<svg width="428" height="655" viewBox="0 0 428 655" fill="none" xmlns="http://www.w3.org/2000/svg">
<g opacity="0.3" filter="url(#filter0_f)">
<mask id="path-1-inside-1" fill="white">
<path fill-rule="evenodd" clip-rule="evenodd" d="M88.0669 399.048C88.0669 476.727 126.424 554.406 222.316 554.406C318.208 554.406 356.565 476.727 356.565 399.048C356.565 347.263 315.012 243.691 231.905 88.3335C219.12 88.3335 212.727 88.3335 212.727 88.3335C212.727 88.3335 88.0669 321.37 88.0669 399.048ZM229.915 519.925C229.915 559.962 250.179 600 300.839 600C351.499 600 371.763 559.962 371.763 519.925C371.763 493.233 349.81 439.849 305.905 359.773L300.839 351.766L295.773 359.773C295.773 359.773 229.915 479.887 229.915 519.925Z"/>
</mask>
<path d="M231.905 88.3335L307.737 47.7682L283.432 2.3335H231.905V88.3335ZM212.727 88.3335V2.3335H161.2L136.895 47.7682L212.727 88.3335ZM305.905 359.773L381.314 318.427L380.02 316.068L378.582 313.794L305.905 359.773ZM295.773 359.773L223.096 313.794L221.658 316.068L220.364 318.427L295.773 359.773ZM300.839 351.766L373.516 305.787L300.839 190.91L228.162 305.787L300.839 351.766ZM2.06689 399.048C2.06689 450.391 14.5083 508.959 50.1241 557.044C88.3048 608.592 147.774 640.406 222.316 640.406V468.406C210.208 468.406 203.152 466.028 199.186 464.055C195.231 462.088 191.707 459.216 188.34 454.67C180.804 444.496 174.067 425.385 174.067 399.048H2.06689ZM222.316 640.406C296.858 640.406 356.327 608.592 394.508 557.044C430.124 508.959 442.565 450.391 442.565 399.048H270.565C270.565 425.385 263.828 444.496 256.292 454.67C252.925 459.216 249.401 462.088 245.446 464.055C241.48 466.028 234.424 468.406 222.316 468.406V640.406ZM442.565 399.048C442.565 355.454 426.45 303.435 405.216 250.508C382.801 194.638 350.031 126.832 307.737 47.7682L156.073 128.899C196.886 205.192 226.446 266.851 245.584 314.553C265.903 365.198 270.565 390.857 270.565 399.048H442.565ZM231.905 2.3335C231.88 2.3335 231.855 2.3335 231.83 2.3335C231.805 2.3335 231.781 2.3335 231.756 2.3335C231.731 2.3335 231.706 2.3335 231.681 2.3335C231.656 2.3335 231.632 2.3335 231.607 2.3335C231.582 2.3335 231.557 2.3335 231.533 2.3335C231.508 2.3335 231.483 2.3335 231.458 2.3335C231.434 2.3335 231.409 2.3335 231.384 2.3335C231.36 2.3335 231.335 2.3335 231.311 2.3335C231.286 2.3335 231.261 2.3335 231.237 2.3335C231.212 2.3335 231.188 2.3335 231.163 2.3335C231.139 2.3335 231.114 2.3335 231.09 2.3335C231.066 2.3335 231.041 2.3335 231.017 2.3335C230.992 2.3335 230.968 2.3335 230.944 2.3335C230.919 2.3335 230.895 2.3335 230.871 2.3335C230.846 2.3335 230.822 2.3335 230.798 2.3335C230.774 2.3335 230.75 2.3335 230.725 2.3335C230.701 2.3335 230.677 2.3335 230.653 2.3335C230.629 2.3335 230.605 2.3335 230.58 2.3335C230.556 2.3335 230.532 2.3335 230.508 2.3335C230.484 2.3335 230.46 2.3335 230.436 2.3335C230.412 2.3335 230.388 2.3335 230.364 2.3335C230.34 2.3335 230.316 2.3335 230.293 2.3335C230.269 2.3335 230.245 2.3335 230.221 2.3335C230.197 2.3335 230.173 2.3335 230.149 2.3335C230.126 2.3335 230.102 2.3335 230.078 2.3335C230.054 2.3335 230.031 2.3335 230.007 2.3335C229.983 2.3335 229.96 2.3335 229.936 2.3335C229.912 2.3335 229.889 2.3335 229.865 2.3335C229.841 2.3335 229.818 2.3335 229.794 2.3335C229.771 2.3335 229.747 2.3335 229.724 2.3335C229.7 2.3335 229.677 2.3335 229.653 2.3335C229.63 2.3335 229.606 2.3335 229.583 2.3335C229.559 2.3335 229.536 2.3335 229.513 2.3335C229.489 2.3335 229.466 2.3335 229.443 2.3335C229.419 2.3335 229.396 2.3335 229.373 2.3335C229.35 2.3335 229.326 2.3335 229.303 2.3335C229.28 2.3335 229.257 2.3335 229.234 2.3335C229.21 2.3335 229.187 2.3335 229.164 2.3335C229.141 2.3335 229.118 2.3335 229.095 2.3335C229.072 2.3335 229.049 2.3335 229.026 2.3335C229.003 2.3335 228.98 2.3335 228.957 2.3335C228.934 2.3335 228.911 2.3335 228.888 2.3335C228.865 2.3335 228.842 2.3335 228.819 2.3335C228.796 2.3335 228.773 2.3335 228.751 2.3335C228.728 2.3335 228.705 2.3335 228.682 2.3335C228.659 2.3335 228.637 2.3335 228.614 2.3335C228.591 2.3335 228.568 2.3335 228.546 2.3335C228.523 2.3335 228.5 2.3335 228.478 2.3335C228.455 2.3335 228.433 2.3335 228.41 2.3335C228.387 2.3335 228.365 2.3335 228.342 2.3335C228.32 2.3335 228.297 2.3335 228.275 2.3335C228.252 2.3335 228.23 2.3335 228.207 2.3335C228.185 2.3335 228.163 2.3335 228.14 2.3335C228.118 2.3335 228.095 2.3335 228.073 2.3335C228.051 2.3335 228.028 2.3335 228.006 2.3335C227.984 2.3335 227.962 2.3335 227.939 2.3335C227.917 2.3335 227.895 2.3335 227.873 2.3335C227.851 2.3335 227.828 2.3335 227.806 2.3335C227.784 2.3335 227.762 2.3335 227.74 2.3335C227.718 2.3335 227.696 2.3335 227.674 2.3335C227.652 2.3335 227.63 2.3335 227.608 2.3335C227.586 2.3335 227.564 2.3335 227.542 2.3335C227.52 2.3335 227.498 2.3335 227.476 2.3335C227.454 2.3335 227.432 2.3335 227.41 2.3335C227.388 2.3335 227.367 2.3335 227.345 2.3335C227.323 2.3335 227.301 2.3335 227.279 2.3335C227.258 2.3335 227.236 2.3335 227.214 2.3335C227.193 2.3335 227.171 2.3335 227.149 2.3335C227.128 2.3335 227.106 2.3335 227.084 2.3335C227.063 2.3335 227.041 2.3335 227.02 2.3335C226.998 2.3335 226.977 2.3335 226.955 2.3335C226.934 2.3335 226.912 2.3335 226.891 2.3335C226.869 2.3335 226.848 2.3335 226.826 2.3335C226.805 2.3335 226.783 2.3335 226.762 2.3335C226.741 2.3335 226.719 2.3335 226.698 2.3335C226.677 2.3335 226.655 2.3335 226.634 2.3335C226.613 2.3335 226.592 2.3335 226.571 2.3335C226.549 2.3335 226.528 2.3335 226.507 2.3335C226.486 2.3335 226.465 2.3335 226.443 2.3335C226.422 2.3335 226.401 2.3335 226.38 2.3335C226.359 2.3335 226.338 2.3335 226.317 2.3335C226.296 2.3335 226.275 2.3335 226.254 2.3335C226.233 2.3335 226.212 2.3335 226.191 2.3335C226.17 2.3335 226.149 2.3335 226.129 2.3335C226.108 2.3335 226.087 2.3335 226.066 2.3335C226.045 2.3335 226.024 2.3335 226.004 2.3335C225.983 2.3335 225.962 2.3335 225.941 2.3335C225.921 2.3335 225.9 2.3335 225.879 2.3335C225.859 2.3335 225.838 2.3335 225.817 2.3335C225.797 2.3335 225.776 2.3335 225.755 2.3335C225.735 2.3335 225.714 2.3335 225.694 2.3335C225.673 2.3335 225.653 2.3335 225.632 2.3335C225.612 2.3335 225.591 2.3335 225.571 2.3335C225.55 2.3335 225.53 2.3335 225.51 2.3335C225.489 2.3335 225.469 2.3335 225.449 2.3335C225.428 2.3335 225.408 2.3335 225.388 2.3335C225.367 2.3335 225.347 2.3335 225.327 2.3335C225.307 2.3335 225.286 2.3335 225.266 2.3335C225.246 2.3335 225.226 2.3335 225.206 2.3335C225.185 2.3335 225.165 2.3335 225.145 2.3335C225.125 2.3335 225.105 2.3335 225.085 2.3335C225.065 2.3335 225.045 2.3335 225.025 2.3335C225.005 2.3335 224.985 2.3335 224.965 2.3335C224.945 2.3335 224.925 2.3335 224.905 2.3335C224.885 2.3335 224.866 2.3335 224.846 2.3335C224.826 2.3335 224.806 2.3335 224.786 2.3335C224.766 2.3335 224.747 2.3335 224.727 2.3335C224.707 2.3335 224.687 2.3335 224.668 2.3335C224.648 2.3335 224.628 2.3335 224.609 2.3335C224.589 2.3335 224.569 2.3335 224.55 2.3335C224.53 2.3335 224.511 2.3335 224.491 2.3335C224.471 2.3335 224.452 2.3335 224.432 2.3335C224.413 2.3335 224.393 2.3335 224.374 2.3335C224.354 2.3335 224.335 2.3335 224.316 2.3335C224.296 2.3335 224.277 2.3335 224.257 2.3335C224.238 2.3335 224.219 2.3335 224.199 2.3335C224.18 2.3335 224.161 2.3335 224.142 2.3335C224.122 2.3335 224.103 2.3335 224.084 2.3335C224.065 2.3335 224.045 2.3335 224.026 2.3335C224.007 2.3335 223.988 2.3335 223.969 2.3335C223.95 2.3335 223.931 2.3335 223.912 2.3335C223.893 2.3335 223.873 2.3335 223.854 2.3335C223.835 2.3335 223.816 2.3335 223.797 2.3335C223.778 2.3335 223.76 2.3335 223.741 2.3335C223.722 2.3335 223.703 2.3335 223.684 2.3335C223.665 2.3335 223.646 2.3335 223.627 2.3335C223.609 2.3335 223.59 2.3335 223.571 2.3335C223.552 2.3335 223.533 2.3335 223.515 2.3335C223.496 2.3335 223.477 2.3335 223.459 2.3335C223.44 2.3335 223.421 2.3335 223.403 2.3335C223.384 2.3335 223.365 2.3335 223.347 2.3335C223.328 2.3335 223.31 2.3335 223.291 2.3335C223.273 2.3335 223.254 2.3335 223.236 2.3335C223.217 2.3335 223.199 2.3335 223.18 2.3335C223.162 2.3335 223.143 2.3335 223.125 2.3335C223.107 2.3335 223.088 2.3335 223.07 2.3335C223.052 2.3335 223.033 2.3335 223.015 2.3335C222.997 2.3335 222.978 2.3335 222.96 2.3335C222.942 2.3335 222.924 2.3335 222.905 2.3335C222.887 2.3335 222.869 2.3335 222.851 2.3335C222.833 2.3335 222.815 2.3335 222.797 2.3335C222.779 2.3335 222.76 2.3335 222.742 2.3335C222.724 2.3335 222.706 2.3335 222.688 2.3335C222.67 2.3335 222.652 2.3335 222.634 2.3335C222.616 2.3335 222.599 2.3335 222.581 2.3335C222.563 2.3335 222.545 2.3335 222.527 2.3335C222.509 2.3335 222.491 2.3335 222.474 2.3335C222.456 2.3335 222.438 2.3335 222.42 2.3335C222.402 2.3335 222.385 2.3335 222.367 2.3335C222.349 2.3335 222.332 2.3335 222.314 2.3335C222.296 2.3335 222.279 2.3335 222.261 2.3335C222.243 2.3335 222.226 2.3335 222.208 2.3335C222.191 2.3335 222.173 2.3335 222.156 2.3335C222.138 2.3335 222.121 2.3335 222.103 2.3335C222.086 2.3335 222.068 2.3335 222.051 2.3335C222.034 2.3335 222.016 2.3335 221.999 2.3335C221.981 2.3335 221.964 2.3335 221.947 2.3335C221.929 2.3335 221.912 2.3335 221.895 2.3335C221.878 2.3335 221.86 2.3335 221.843 2.3335C221.826 2.3335 221.809 2.3335 221.792 2.3335C221.774 2.3335 221.757 2.3335 221.74 2.3335C221.723 2.3335 221.706 2.3335 221.689 2.3335C221.672 2.3335 221.655 2.3335 221.638 2.3335C221.621 2.3335 221.604 2.3335 221.587 2.3335C221.57 2.3335 221.553 2.3335 221.536 2.3335C221.519 2.3335 221.502 2.3335 221.485 2.3335C221.468 2.3335 221.451 2.3335 221.435 2.3335C221.418 2.3335 221.401 2.3335 221.384 2.3335C221.367 2.3335 221.351 2.3335 221.334 2.3335C221.317 2.3335 221.301 2.3335 221.284 2.3335C221.267 2.3335 221.251 2.3335 221.234 2.3335C221.217 2.3335 221.201 2.3335 221.184 2.3335C221.168 2.3335 221.151 2.3335 221.134 2.3335C221.118 2.3335 221.101 2.3335 221.085 2.3335C221.068 2.3335 221.052 2.3335 221.036 2.3335C221.019 2.3335 221.003 2.3335 220.986 2.3335C220.97 2.3335 220.954 2.3335 220.937 2.3335C220.921 2.3335 220.905 2.3335 220.888 2.3335C220.872 2.3335 220.856 2.3335 220.839 2.3335C220.823 2.3335 220.807 2.3335 220.791 2.3335C220.775 2.3335 220.758 2.3335 220.742 2.3335C220.726 2.3335 220.71 2.3335 220.694 2.3335C220.678 2.3335 220.662 2.3335 220.646 2.3335C220.63 2.3335 220.614 2.3335 220.598 2.3335C220.582 2.3335 220.566 2.3335 220.55 2.3335C220.534 2.3335 220.518 2.3335 220.502 2.3335C220.486 2.3335 220.47 2.3335 220.454 2.3335C220.438 2.3335 220.423 2.3335 220.407 2.3335C220.391 2.3335 220.375 2.3335 220.36 2.3335C220.344 2.3335 220.328 2.3335 220.312 2.3335C220.297 2.3335 220.281 2.3335 220.265 2.3335C220.25 2.3335 220.234 2.3335 220.218 2.3335C220.203 2.3335 220.187 2.3335 220.172 2.3335C220.156 2.3335 220.141 2.3335 220.125 2.3335C220.11 2.3335 220.094 2.3335 220.079 2.3335C220.063 2.3335 220.048 2.3335 220.032 2.3335C220.017 2.3335 220.001 2.3335 219.986 2.3335C219.971 2.3335 219.955 2.3335 219.94 2.3335C219.925 2.3335 219.909 2.3335 219.894 2.3335C219.879 2.3335 219.864 2.3335 219.848 2.3335C219.833 2.3335 219.818 2.3335 219.803 2.3335C219.788 2.3335 219.773 2.3335 219.757 2.3335C219.742 2.3335 219.727 2.3335 219.712 2.3335C219.697 2.3335 219.682 2.3335 219.667 2.3335C219.652 2.3335 219.637 2.3335 219.622 2.3335C219.607 2.3335 219.592 2.3335 219.577 2.3335C219.562 2.3335 219.547 2.3335 219.533 2.3335C219.518 2.3335 219.503 2.3335 219.488 2.3335C219.473 2.3335 219.458 2.3335 219.444 2.3335C219.429 2.3335 219.414 2.3335 219.399 2.3335C219.385 2.3335 219.37 2.3335 219.355 2.3335C219.34 2.3335 219.326 2.3335 219.311 2.3335C219.297 2.3335 219.282 2.3335 219.267 2.3335C219.253 2.3335 219.238 2.3335 219.224 2.3335C219.209 2.3335 219.195 2.3335 219.18 2.3335C219.166 2.3335 219.151 2.3335 219.137 2.3335C219.122 2.3335 219.108 2.3335 219.094 2.3335C219.079 2.3335 219.065 2.3335 219.05 2.3335C219.036 2.3335 219.022 2.3335 219.008 2.3335C218.993 2.3335 218.979 2.3335 218.965 2.3335C218.95 2.3335 218.936 2.3335 218.922 2.3335C218.908 2.3335 218.894 2.3335 218.88 2.3335C218.865 2.3335 218.851 2.3335 218.837 2.3335C218.823 2.3335 218.809 2.3335 218.795 2.3335C218.781 2.3335 218.767 2.3335 218.753 2.3335C218.739 2.3335 218.725 2.3335 218.711 2.3335C218.697 2.3335 218.683 2.3335 218.669 2.3335C218.655 2.3335 218.641 2.3335 218.628 2.3335C218.614 2.3335 218.6 2.3335 218.586 2.3335C218.572 2.3335 218.559 2.3335 218.545 2.3335C218.531 2.3335 218.517 2.3335 218.504 2.3335C218.49 2.3335 218.476 2.3335 218.463 2.3335C218.449 2.3335 218.435 2.3335 218.422 2.3335C218.408 2.3335 218.394 2.3335 218.381 2.3335C218.367 2.3335 218.354 2.3335 218.34 2.3335C218.327 2.3335 218.313 2.3335 218.3 2.3335C218.286 2.3335 218.273 2.3335 218.26 2.3335C218.246 2.3335 218.233 2.3335 218.219 2.3335C218.206 2.3335 218.193 2.3335 218.179 2.3335C218.166 2.3335 218.153 2.3335 218.139 2.3335C218.126 2.3335 218.113 2.3335 218.1 2.3335C218.087 2.3335 218.073 2.3335 218.06 2.3335C218.047 2.3335 218.034 2.3335 218.021 2.3335C218.008 2.3335 217.995 2.3335 217.981 2.3335C217.968 2.3335 217.955 2.3335 217.942 2.3335C217.929 2.3335 217.916 2.3335 217.903 2.3335C217.89 2.3335 217.877 2.3335 217.864 2.3335C217.852 2.3335 217.839 2.3335 217.826 2.3335C217.813 2.3335 217.8 2.3335 217.787 2.3335C217.774 2.3335 217.762 2.3335 217.749 2.3335C217.736 2.3335 217.723 2.3335 217.711 2.3335C217.698 2.3335 217.685 2.3335 217.672 2.3335C217.66 2.3335 217.647 2.3335 217.634 2.3335C217.622 2.3335 217.609 2.3335 217.597 2.3335C217.584 2.3335 217.571 2.3335 217.559 2.3335C217.546 2.3335 217.534 2.3335 217.521 2.3335C217.509 2.3335 217.496 2.3335 217.484 2.3335C217.472 2.3335 217.459 2.3335 217.447 2.3335C217.434 2.3335 217.422 2.3335 217.41 2.3335C217.397 2.3335 217.385 2.3335 217.373 2.3335C217.36 2.3335 217.348 2.3335 217.336 2.3335C217.324 2.3335 217.311 2.3335 217.299 2.3335C217.287 2.3335 217.275 2.3335 217.263 2.3335C217.251 2.3335 217.239 2.3335 217.226 2.3335C217.214 2.3335 217.202 2.3335 217.19 2.3335C217.178 2.3335 217.166 2.3335 217.154 2.3335C217.142 2.3335 217.13 2.3335 217.118 2.3335C217.106 2.3335 217.094 2.3335 217.082 2.3335C217.071 2.3335 217.059 2.3335 217.047 2.3335C217.035 2.3335 217.023 2.3335 217.011 2.3335C217 2.3335 216.988 2.3335 216.976 2.3335C216.964 2.3335 216.953 2.3335 216.941 2.3335C216.929 2.3335 216.917 2.3335 216.906 2.3335C216.894 2.3335 216.882 2.3335 216.871 2.3335C216.859 2.3335 216.848 2.3335 216.836 2.3335C216.825 2.3335 216.813 2.3335 216.802 2.3335C216.79 2.3335 216.779 2.3335 216.767 2.3335C216.756 2.3335 216.744 2.3335 216.733 2.3335C216.721 2.3335 216.71 2.3335 216.699 2.3335C216.687 2.3335 216.676 2.3335 216.665 2.3335C216.653 2.3335 216.642 2.3335 216.631 2.3335C216.619 2.3335 216.608 2.3335 216.597 2.3335C216.586 2.3335 216.575 2.3335 216.563 2.3335C216.552 2.3335 216.541 2.3335 216.53 2.3335C216.519 2.3335 216.508 2.3335 216.497 2.3335C216.486 2.3335 216.475 2.3335 216.464 2.3335C216.453 2.3335 216.442 2.3335 216.431 2.3335C216.42 2.3335 216.409 2.3335 216.398 2.3335C216.387 2.3335 216.376 2.3335 216.365 2.3335C216.354 2.3335 216.343 2.3335 216.332 2.3335C216.322 2.3335 216.311 2.3335 216.3 2.3335C216.289 2.3335 216.278 2.3335 216.268 2.3335C216.257 2.3335 216.246 2.3335 216.236 2.3335C216.225 2.3335 216.214 2.3335 216.204 2.3335C216.193 2.3335 216.182 2.3335 216.172 2.3335C216.161 2.3335 216.151 2.3335 216.14 2.3335C216.13 2.3335 216.119 2.3335 216.109 2.3335C216.098 2.3335 216.088 2.3335 216.077 2.3335C216.067 2.3335 216.056 2.3335 216.046 2.3335C216.036 2.3335 216.025 2.3335 216.015 2.3335C216.005 2.3335 215.994 2.3335 215.984 2.3335C215.974 2.3335 215.963 2.3335 215.953 2.3335C215.943 2.3335 215.933 2.3335 215.923 2.3335C215.912 2.3335 215.902 2.3335 215.892 2.3335C215.882 2.3335 215.872 2.3335 215.862 2.3335C215.852 2.3335 215.841 2.3335 215.831 2.3335C215.821 2.3335 215.811 2.3335 215.801 2.3335C215.791 2.3335 215.781 2.3335 215.771 2.3335C215.761 2.3335 215.752 2.3335 215.742 2.3335C215.732 2.3335 215.722 2.3335 215.712 2.3335C215.702 2.3335 215.692 2.3335 215.683 2.3335C215.673 2.3335 215.663 2.3335 215.653 2.3335C215.643 2.3335 215.634 2.3335 215.624 2.3335C215.614 2.3335 215.605 2.3335 215.595 2.3335C215.585 2.3335 215.576 2.3335 215.566 2.3335C215.556 2.3335 215.547 2.3335 215.537 2.3335C215.528 2.3335 215.518 2.3335 215.509 2.3335C215.499 2.3335 215.49 2.3335 215.48 2.3335C215.471 2.3335 215.461 2.3335 215.452 2.3335C215.443 2.3335 215.433 2.3335 215.424 2.3335C215.414 2.3335 215.405 2.3335 215.396 2.3335C215.386 2.3335 215.377 2.3335 215.368 2.3335C215.359 2.3335 215.349 2.3335 215.34 2.3335C215.331 2.3335 215.322 2.3335 215.313 2.3335C215.303 2.3335 215.294 2.3335 215.285 2.3335C215.276 2.3335 215.267 2.3335 215.258 2.3335C215.249 2.3335 215.24 2.3335 215.231 2.3335C215.222 2.3335 215.213 2.3335 215.204 2.3335C215.195 2.3335 215.186 2.3335 215.177 2.3335C215.168 2.3335 215.159 2.3335 215.15 2.3335C215.141 2.3335 215.132 2.3335 215.124 2.3335C215.115 2.3335 215.106 2.3335 215.097 2.3335C215.088 2.3335 215.08 2.3335 215.071 2.3335C215.062 2.3335 215.053 2.3335 215.045 2.3335C215.036 2.3335 215.027 2.3335 215.019 2.3335C215.01 2.3335 215.002 2.3335 214.993 2.3335C214.984 2.3335 214.976 2.3335 214.967 2.3335C214.959 2.3335 214.95 2.3335 214.942 2.3335C214.933 2.3335 214.925 2.3335 214.916 2.3335C214.908 2.3335 214.9 2.3335 214.891 2.3335C214.883 2.3335 214.874 2.3335 214.866 2.3335C214.858 2.3335 214.849 2.3335 214.841 2.3335C214.833 2.3335 214.825 2.3335 214.816 2.3335C214.808 2.3335 214.8 2.3335 214.792 2.3335C214.783 2.3335 214.775 2.3335 214.767 2.3335C214.759 2.3335 214.751 2.3335 214.743 2.3335C214.735 2.3335 214.727 2.3335 214.719 2.3335C214.711 2.3335 214.703 2.3335 214.695 2.3335C214.687 2.3335 214.679 2.3335 214.671 2.3335C214.663 2.3335 214.655 2.3335 214.647 2.3335C214.639 2.3335 214.631 2.3335 214.623 2.3335C214.615 2.3335 214.608 2.3335 214.6 2.3335C214.592 2.3335 214.584 2.3335 214.576 2.3335C214.569 2.3335 214.561 2.3335 214.553 2.3335C214.545 2.3335 214.538 2.3335 214.53 2.3335C214.522 2.3335 214.515 2.3335 214.507 2.3335C214.5 2.3335 214.492 2.3335 214.484 2.3335C214.477 2.3335 214.469 2.3335 214.462 2.3335C214.454 2.3335 214.447 2.3335 214.439 2.3335C214.432 2.3335 214.425 2.3335 214.417 2.3335C214.41 2.3335 214.402 2.3335 214.395 2.3335C214.388 2.3335 214.38 2.3335 214.373 2.3335C214.366 2.3335 214.358 2.3335 214.351 2.3335C214.344 2.3335 214.337 2.3335 214.329 2.3335C214.322 2.3335 214.315 2.3335 214.308 2.3335C214.301 2.3335 214.293 2.3335 214.286 2.3335C214.279 2.3335 214.272 2.3335 214.265 2.3335C214.258 2.3335 214.251 2.3335 214.244 2.3335C214.237 2.3335 214.23 2.3335 214.223 2.3335C214.216 2.3335 214.209 2.3335 214.202 2.3335C214.195 2.3335 214.188 2.3335 214.181 2.3335C214.174 2.3335 214.168 2.3335 214.161 2.3335C214.154 2.3335 214.147 2.3335 214.14 2.3335C214.134 2.3335 214.127 2.3335 214.12 2.3335C214.113 2.3335 214.107 2.3335 214.1 2.3335C214.093 2.3335 214.087 2.3335 214.08 2.3335C214.073 2.3335 214.067 2.3335 214.06 2.3335C214.054 2.3335 214.047 2.3335 214.04 2.3335C214.034 2.3335 214.027 2.3335 214.021 2.3335C214.014 2.3335 214.008 2.3335 214.002 2.3335C213.995 2.3335 213.989 2.3335 213.982 2.3335C213.976 2.3335 213.97 2.3335 213.963 2.3335C213.957 2.3335 213.951 2.3335 213.944 2.3335C213.938 2.3335 213.932 2.3335 213.925 2.3335C213.919 2.3335 213.913 2.3335 213.907 2.3335C213.901 2.3335 213.894 2.3335 213.888 2.3335C213.882 2.3335 213.876 2.3335 213.87 2.3335C213.864 2.3335 213.858 2.3335 213.852 2.3335C213.846 2.3335 213.84 2.3335 213.834 2.3335C213.828 2.3335 213.822 2.3335 213.816 2.3335C213.81 2.3335 213.804 2.3335 213.798 2.3335C213.792 2.3335 213.786 2.3335 213.78 2.3335C213.774 2.3335 213.769 2.3335 213.763 2.3335C213.757 2.3335 213.751 2.3335 213.745 2.3335C213.74 2.3335 213.734 2.3335 213.728 2.3335C213.723 2.3335 213.717 2.3335 213.711 2.3335C213.706 2.3335 213.7 2.3335 213.694 2.3335C213.689 2.3335 213.683 2.3335 213.678 2.3335C213.672 2.3335 213.666 2.3335 213.661 2.3335C213.655 2.3335 213.65 2.3335 213.645 2.3335C213.639 2.3335 213.634 2.3335 213.628 2.3335C213.623 2.3335 213.617 2.3335 213.612 2.3335C213.607 2.3335 213.601 2.3335 213.596 2.3335C213.591 2.3335 213.585 2.3335 213.58 2.3335C213.575 2.3335 213.57 2.3335 213.564 2.3335C213.559 2.3335 213.554 2.3335 213.549 2.3335C213.544 2.3335 213.539 2.3335 213.533 2.3335C213.528 2.3335 213.523 2.3335 213.518 2.3335C213.513 2.3335 213.508 2.3335 213.503 2.3335C213.498 2.3335 213.493 2.3335 213.488 2.3335C213.483 2.3335 213.478 2.3335 213.473 2.3335C213.468 2.3335 213.463 2.3335 213.458 2.3335C213.454 2.3335 213.449 2.3335 213.444 2.3335C213.439 2.3335 213.434 2.3335 213.429 2.3335C213.425 2.3335 213.42 2.3335 213.415 2.3335C213.41 2.3335 213.406 2.3335 213.401 2.3335C213.396 2.3335 213.392 2.3335 213.387 2.3335C213.382 2.3335 213.378 2.3335 213.373 2.3335C213.369 2.3335 213.364 2.3335 213.36 2.3335C213.355 2.3335 213.351 2.3335 213.346 2.3335C213.342 2.3335 213.337 2.3335 213.333 2.3335C213.328 2.3335 213.324 2.3335 213.319 2.3335C213.315 2.3335 213.311 2.3335 213.306 2.3335C213.302 2.3335 213.298 2.3335 213.293 2.3335C213.289 2.3335 213.285 2.3335 213.281 2.3335C213.276 2.3335 213.272 2.3335 213.268 2.3335C213.264 2.3335 213.26 2.3335 213.255 2.3335C213.251 2.3335 213.247 2.3335 213.243 2.3335C213.239 2.3335 213.235 2.3335 213.231 2.3335C213.227 2.3335 213.223 2.3335 213.219 2.3335C213.215 2.3335 213.211 2.3335 213.207 2.3335C213.203 2.3335 213.199 2.3335 213.195 2.3335C213.191 2.3335 213.187 2.3335 213.183 2.3335C213.18 2.3335 213.176 2.3335 213.172 2.3335C213.168 2.3335 213.164 2.3335 213.161 2.3335C213.157 2.3335 213.153 2.3335 213.149 2.3335C213.146 2.3335 213.142 2.3335 213.138 2.3335C213.135 2.3335 213.131 2.3335 213.127 2.3335C213.124 2.3335 213.12 2.3335 213.117 2.3335C213.113 2.3335 213.11 2.3335 213.106 2.3335C213.103 2.3335 213.099 2.3335 213.096 2.3335C213.092 2.3335 213.089 2.3335 213.085 2.3335C213.082 2.3335 213.078 2.3335 213.075 2.3335C213.072 2.3335 213.068 2.3335 213.065 2.3335C213.062 2.3335 213.058 2.3335 213.055 2.3335C213.052 2.3335 213.049 2.3335 213.045 2.3335C213.042 2.3335 213.039 2.3335 213.036 2.3335C213.033 2.3335 213.03 2.3335 213.026 2.3335C213.023 2.3335 213.02 2.3335 213.017 2.3335C213.014 2.3335 213.011 2.3335 213.008 2.3335C213.005 2.3335 213.002 2.3335 212.999 2.3335C212.996 2.3335 212.993 2.3335 212.99 2.3335C212.987 2.3335 212.984 2.3335 212.981 2.3335C212.979 2.3335 212.976 2.3335 212.973 2.3335C212.97 2.3335 212.967 2.3335 212.965 2.3335C212.962 2.3335 212.959 2.3335 212.956 2.3335C212.954 2.3335 212.951 2.3335 212.948 2.3335C212.945 2.3335 212.943 2.3335 212.94 2.3335C212.938 2.3335 212.935 2.3335 212.932 2.3335C212.93 2.3335 212.927 2.3335 212.925 2.3335C212.922 2.3335 212.92 2.3335 212.917 2.3335C212.915 2.3335 212.912 2.3335 212.91 2.3335C212.907 2.3335 212.905 2.3335 212.902 2.3335C212.9 2.3335 212.898 2.3335 212.895 2.3335C212.893 2.3335 212.891 2.3335 212.888 2.3335C212.886 2.3335 212.884 2.3335 212.882 2.3335C212.879 2.3335 212.877 2.3335 212.875 2.3335C212.873 2.3335 212.871 2.3335 212.868 2.3335C212.866 2.3335 212.864 2.3335 212.862 2.3335C212.86 2.3335 212.858 2.3335 212.856 2.3335C212.854 2.3335 212.852 2.3335 212.85 2.3335C212.848 2.3335 212.846 2.3335 212.844 2.3335C212.842 2.3335 212.84 2.3335 212.838 2.3335C212.836 2.3335 212.834 2.3335 212.832 2.3335C212.831 2.3335 212.829 2.3335 212.827 2.3335C212.825 2.3335 212.823 2.3335 212.822 2.3335C212.82 2.3335 212.818 2.3335 212.816 2.3335C212.815 2.3335 212.813 2.3335 212.811 2.3335C212.81 2.3335 212.808 2.3335 212.806 2.3335C212.805 2.3335 212.803 2.3335 212.802 2.3335C212.8 2.3335 212.799 2.3335 212.797 2.3335C212.796 2.3335 212.794 2.3335 212.793 2.3335C212.791 2.3335 212.79 2.3335 212.788 2.3335C212.787 2.3335 212.786 2.3335 212.784 2.3335C212.783 2.3335 212.781 2.3335 212.78 2.3335C212.779 2.3335 212.778 2.3335 212.776 2.3335C212.775 2.3335 212.774 2.3335 212.773 2.3335C212.771 2.3335 212.77 2.3335 212.769 2.3335C212.768 2.3335 212.767 2.3335 212.766 2.3335C212.764 2.3335 212.763 2.3335 212.762 2.3335C212.761 2.3335 212.76 2.3335 212.759 2.3335C212.758 2.3335 212.757 2.3335 212.756 2.3335C212.755 2.3335 212.754 2.3335 212.753 2.3335C212.752 2.3335 212.751 2.3335 212.751 2.3335C212.75 2.3335 212.749 2.3335 212.748 2.3335C212.747 2.3335 212.746 2.3335 212.746 2.3335C212.745 2.3335 212.744 2.3335 212.743 2.3335C212.743 2.3335 212.742 2.3335 212.741 2.3335C212.74 2.3335 212.74 2.3335 212.739 2.3335C212.739 2.3335 212.738 2.3335 212.737 2.3335C212.737 2.3335 212.736 2.3335 212.736 2.3335C212.735 2.3335 212.735 2.3335 212.734 2.3335C212.734 2.3335 212.733 2.3335 212.733 2.3335C212.732 2.3335 212.732 2.3335 212.731 2.3335C212.731 2.3335 212.731 2.3335 212.73 2.3335C212.73 2.3335 212.73 2.3335 212.729 2.3335C212.729 2.3335 212.729 2.3335 212.729 2.3335C212.728 2.3335 212.728 2.3335 212.728 2.3335C212.728 2.3335 212.728 2.3335 212.727 2.3335C212.727 2.3335 212.727 2.3335 212.727 2.3335C212.727 2.3335 212.727 2.3335 212.727 2.3335C212.727 2.3335 212.727 2.3335 212.727 88.3335C212.727 174.333 212.727 174.333 212.727 174.333C212.727 174.333 212.727 174.333 212.727 174.333C212.727 174.333 212.727 174.333 212.727 174.333C212.728 174.333 212.728 174.333 212.728 174.333C212.728 174.333 212.728 174.333 212.729 174.333C212.729 174.333 212.729 174.333 212.729 174.333C212.73 174.333 212.73 174.333 212.73 174.333C212.731 174.333 212.731 174.333 212.731 174.333C212.732 174.333 212.732 174.333 212.733 174.333C212.733 174.333 212.734 174.333 212.734 174.333C212.735 174.333 212.735 174.333 212.736 174.333C212.736 174.333 212.737 174.333 212.737 174.333C212.738 174.333 212.739 174.333 212.739 174.333C212.74 174.333 212.74 174.333 212.741 174.333C212.742 174.333 212.743 174.333 212.743 174.333C212.744 174.333 212.745 174.333 212.746 174.333C212.746 174.333 212.747 174.333 212.748 174.333C212.749 174.333 212.75 174.333 212.751 174.333C212.751 174.333 212.752 174.333 212.753 174.333C212.754 174.333 212.755 174.333 212.756 174.333C212.757 174.333 212.758 174.333 212.759 174.333C212.76 174.333 212.761 174.333 212.762 174.333C212.763 174.333 212.764 174.333 212.766 174.333C212.767 174.333 212.768 174.333 212.769 174.333C212.77 174.333 212.771 174.333 212.773 174.333C212.774 174.333 212.775 174.333 212.776 174.333C212.778 174.333 212.779 174.333 212.78 174.333C212.781 174.333 212.783 174.333 212.784 174.333C212.786 174.333 212.787 174.333 212.788 174.333C212.79 174.333 212.791 174.333 212.793 174.333C212.794 174.333 212.796 174.333 212.797 174.333C212.799 174.333 212.8 174.333 212.802 174.333C212.803 174.333 212.805 174.333 212.806 174.333C212.808 174.333 212.81 174.333 212.811 174.333C212.813 174.333 212.815 174.333 212.816 174.333C212.818 174.333 212.82 174.333 212.822 174.333C212.823 174.333 212.825 174.333 212.827 174.333C212.829 174.333 212.831 174.333 212.832 174.333C212.834 174.333 212.836 174.333 212.838 174.333C212.84 174.333 212.842 174.333 212.844 174.333C212.846 174.333 212.848 174.333 212.85 174.333C212.852 174.333 212.854 174.333 212.856 174.333C212.858 174.333 212.86 174.333 212.862 174.333C212.864 174.333 212.866 174.333 212.868 174.333C212.871 174.333 212.873 174.333 212.875 174.333C212.877 174.333 212.879 174.333 212.882 174.333C212.884 174.333 212.886 174.333 212.888 174.333C212.891 174.333 212.893 174.333 212.895 174.333C212.898 174.333 212.9 174.333 212.902 174.333C212.905 174.333 212.907 174.333 212.91 174.333C212.912 174.333 212.915 174.333 212.917 174.333C212.92 174.333 212.922 174.333 212.925 174.333C212.927 174.333 212.93 174.333 212.932 174.333C212.935 174.333 212.938 174.333 212.94 174.333C212.943 174.333 212.945 174.333 212.948 174.333C212.951 174.333 212.954 174.333 212.956 174.333C212.959 174.333 212.962 174.333 212.965 174.333C212.967 174.333 212.97 174.333 212.973 174.333C212.976 174.333 212.979 174.333 212.981 174.333C212.984 174.333 212.987 174.333 212.99 174.333C212.993 174.333 212.996 174.333 212.999 174.333C213.002 174.333 213.005 174.333 213.008 174.333C213.011 174.333 213.014 174.333 213.017 174.333C213.02 174.333 213.023 174.333 213.026 174.333C213.03 174.333 213.033 174.333 213.036 174.333C213.039 174.333 213.042 174.333 213.045 174.333C213.049 174.333 213.052 174.333 213.055 174.333C213.058 174.333 213.062 174.333 213.065 174.333C213.068 174.333 213.072 174.333 213.075 174.333C213.078 174.333 213.082 174.333 213.085 174.333C213.089 174.333 213.092 174.333 213.096 174.333C213.099 174.333 213.103 174.333 213.106 174.333C213.11 174.333 213.113 174.333 213.117 174.333C213.12 174.333 213.124 174.333 213.127 174.333C213.131 174.333 213.135 174.333 213.138 174.333C213.142 174.333 213.146 174.333 213.149 174.333C213.153 174.333 213.157 174.333 213.161 174.333C213.164 174.333 213.168 174.333 213.172 174.333C213.176 174.333 213.18 174.333 213.183 174.333C213.187 174.333 213.191 174.333 213.195 174.333C213.199 174.333 213.203 174.333 213.207 174.333C213.211 174.333 213.215 174.333 213.219 174.333C213.223 174.333 213.227 174.333 213.231 174.333C213.235 174.333 213.239 174.333 213.243 174.333C213.247 174.333 213.251 174.333 213.255 174.333C213.26 174.333 213.264 174.333 213.268 174.333C213.272 174.333 213.276 174.333 213.281 174.333C213.285 174.333 213.289 174.333 213.293 174.333C213.298 174.333 213.302 174.333 213.306 174.333C213.311 174.333 213.315 174.333 213.319 174.333C213.324 174.333 213.328 174.333 213.333 174.333C213.337 174.333 213.342 174.333 213.346 174.333C213.351 174.333 213.355 174.333 213.36 174.333C213.364 174.333 213.369 174.333 213.373 174.333C213.378 174.333 213.382 174.333 213.387 174.333C213.392 174.333 213.396 174.333 213.401 174.333C213.406 174.333 213.41 174.333 213.415 174.333C213.42 174.333 213.425 174.333 213.429 174.333C213.434 174.333 213.439 174.333 213.444 174.333C213.449 174.333 213.454 174.333 213.458 174.333C213.463 174.333 213.468 174.333 213.473 174.333C213.478 174.333 213.483 174.333 213.488 174.333C213.493 174.333 213.498 174.333 213.503 174.333C213.508 174.333 213.513 174.333 213.518 174.333C213.523 174.333 213.528 174.333 213.533 174.333C213.539 174.333 213.544 174.333 213.549 174.333C213.554 174.333 213.559 174.333 213.564 174.333C213.57 174.333 213.575 174.333 213.58 174.333C213.585 174.333 213.591 174.333 213.596 174.333C213.601 174.333 213.607 174.333 213.612 174.333C213.617 174.333 213.623 174.333 213.628 174.333C213.634 174.333 213.639 174.333 213.645 174.333C213.65 174.333 213.655 174.333 213.661 174.333C213.666 174.333 213.672 174.333 213.678 174.333C213.683 174.333 213.689 174.333 213.694 174.333C213.7 174.333 213.706 174.333 213.711 174.333C213.717 174.333 213.723 174.333 213.728 174.333C213.734 174.333 213.74 174.333 213.745 174.333C213.751 174.333 213.757 174.333 213.763 174.333C213.769 174.333 213.774 174.333 213.78 174.333C213.786 174.333 213.792 174.333 213.798 174.333C213.804 174.333 213.81 174.333 213.816 174.333C213.822 174.333 213.828 174.333 213.834 174.333C213.84 174.333 213.846 174.333 213.852 174.333C213.858 174.333 213.864 174.333 213.87 174.333C213.876 174.333 213.882 174.333 213.888 174.333C213.894 174.333 213.901 174.333 213.907 174.333C213.913 174.333 213.919 174.333 213.925 174.333C213.932 174.333 213.938 174.333 213.944 174.333C213.951 174.333 213.957 174.333 213.963 174.333C213.97 174.333 213.976 174.333 213.982 174.333C213.989 174.333 213.995 174.333 214.002 174.333C214.008 174.333 214.014 174.333 214.021 174.333C214.027 174.333 214.034 174.333 214.04 174.333C214.047 174.333 214.054 174.333 214.06 174.333C214.067 174.333 214.073 174.333 214.08 174.333C214.087 174.333 214.093 174.333 214.1 174.333C214.107 174.333 214.113 174.333 214.12 174.333C214.127 174.333 214.134 174.333 214.14 174.333C214.147 174.333 214.154 174.333 214.161 174.333C214.168 174.333 214.174 174.333 214.181 174.333C214.188 174.333 214.195 174.333 214.202 174.333C214.209 174.333 214.216 174.333 214.223 174.333C214.23 174.333 214.237 174.333 214.244 174.333C214.251 174.333 214.258 174.333 214.265 174.333C214.272 174.333 214.279 174.333 214.286 174.333C214.293 174.333 214.301 174.333 214.308 174.333C214.315 174.333 214.322 174.333 214.329 174.333C214.337 174.333 214.344 174.333 214.351 174.333C214.358 174.333 214.366 174.333 214.373 174.333C214.38 174.333 214.388 174.333 214.395 174.333C214.402 174.333 214.41 174.333 214.417 174.333C214.425 174.333 214.432 174.333 214.439 174.333C214.447 174.333 214.454 174.333 214.462 174.333C214.469 174.333 214.477 174.333 214.484 174.333C214.492 174.333 214.5 174.333 214.507 174.333C214.515 174.333 214.522 174.333 214.53 174.333C214.538 174.333 214.545 174.333 214.553 174.333C214.561 174.333 214.569 174.333 214.576 174.333C214.584 174.333 214.592 174.333 214.6 174.333C214.608 174.333 214.615 174.333 214.623 174.333C214.631 174.333 214.639 174.333 214.647 174.333C214.655 174.333 214.663 174.333 214.671 174.333C214.679 174.333 214.687 174.333 214.695 174.333C214.703 174.333 214.711 174.333 214.719 174.333C214.727 174.333 214.735 174.333 214.743 174.333C214.751 174.333 214.759 174.333 214.767 174.333C214.775 174.333 214.783 174.333 214.792 174.333C214.8 174.333 214.808 174.333 214.816 174.333C214.825 174.333 214.833 174.333 214.841 174.333C214.849 174.333 214.858 174.333 214.866 174.333C214.874 174.333 214.883 174.333 214.891 174.333C214.9 174.333 214.908 174.333 214.916 174.333C214.925 174.333 214.933 174.333 214.942 174.333C214.95 174.333 214.959 174.333 214.967 174.333C214.976 174.333 214.984 174.333 214.993 174.333C215.002 174.333 215.01 174.333 215.019 174.333C215.027 174.333 215.036 174.333 215.045 174.333C215.053 174.333 215.062 174.333 215.071 174.333C215.08 174.333 215.088 174.333 215.097 174.333C215.106 174.333 215.115 174.333 215.124 174.333C215.132 174.333 215.141 174.333 215.15 174.333C215.159 174.333 215.168 174.333 215.177 174.333C215.186 174.333 215.195 174.333 215.204 174.333C215.213 174.333 215.222 174.333 215.231 174.333C215.24 174.333 215.249 174.333 215.258 174.333C215.267 174.333 215.276 174.333 215.285 174.333C215.294 174.333 215.303 174.333 215.313 174.333C215.322 174.333 215.331 174.333 215.34 174.333C215.349 174.333 215.359 174.333 215.368 174.333C215.377 174.333 215.386 174.333 215.396 174.333C215.405 174.333 215.414 174.333 215.424 174.333C215.433 174.333 215.443 174.333 215.452 174.333C215.461 174.333 215.471 174.333 215.48 174.333C215.49 174.333 215.499 174.333 215.509 174.333C215.518 174.333 215.528 174.333 215.537 174.333C215.547 174.333 215.556 174.333 215.566 174.333C215.576 174.333 215.585 174.333 215.595 174.333C215.605 174.333 215.614 174.333 215.624 174.333C215.634 174.333 215.643 174.333 215.653 174.333C215.663 174.333 215.673 174.333 215.683 174.333C215.692 174.333 215.702 174.333 215.712 174.333C215.722 174.333 215.732 174.333 215.742 174.333C215.752 174.333 215.761 174.333 215.771 174.333C215.781 174.333 215.791 174.333 215.801 174.333C215.811 174.333 215.821 174.333 215.831 174.333C215.841 174.333 215.852 174.333 215.862 174.333C215.872 174.333 215.882 174.333 215.892 174.333C215.902 174.333 215.912 174.333 215.923 174.333C215.933 174.333 215.943 174.333 215.953 174.333C215.963 174.333 215.974 174.333 215.984 174.333C215.994 174.333 216.005 174.333 216.015 174.333C216.025 174.333 216.036 174.333 216.046 174.333C216.056 174.333 216.067 174.333 216.077 174.333C216.088 174.333 216.098 174.333 216.109 174.333C216.119 174.333 216.13 174.333 216.14 174.333C216.151 174.333 216.161 174.333 216.172 174.333C216.182 174.333 216.193 174.333 216.204 174.333C216.214 174.333 216.225 174.333 216.236 174.333C216.246 174.333 216.257 174.333 216.268 174.333C216.278 174.333 216.289 174.333 216.3 174.333C216.311 174.333 216.322 174.333 216.332 174.333C216.343 174.333 216.354 174.333 216.365 174.333C216.376 174.333 216.387 174.333 216.398 174.333C216.409 174.333 216.42 174.333 216.431 174.333C216.442 174.333 216.453 174.333 216.464 174.333C216.475 174.333 216.486 174.333 216.497 174.333C216.508 174.333 216.519 174.333 216.53 174.333C216.541 174.333 216.552 174.333 216.563 174.333C216.575 174.333 216.586 174.333 216.597 174.333C216.608 174.333 216.619 174.333 216.631 174.333C216.642 174.333 216.653 174.333 216.665 174.333C216.676 174.333 216.687 174.333 216.699 174.333C216.71 174.333 216.721 174.333 216.733 174.333C216.744 174.333 216.756 174.333 216.767 174.333C216.779 174.333 216.79 174.333 216.802 174.333C216.813 174.333 216.825 174.333 216.836 174.333C216.848 174.333 216.859 174.333 216.871 174.333C216.882 174.333 216.894 174.333 216.906 174.333C216.917 174.333 216.929 174.333 216.941 174.333C216.953 174.333 216.964 174.333 216.976 174.333C216.988 174.333 217 174.333 217.011 174.333C217.023 174.333 217.035 174.333 217.047 174.333C217.059 174.333 217.071 174.333 217.082 174.333C217.094 174.333 217.106 174.333 217.118 174.333C217.13 174.333 217.142 174.333 217.154 174.333C217.166 174.333 217.178 174.333 217.19 174.333C217.202 174.333 217.214 174.333 217.226 174.333C217.239 174.333 217.251 174.333 217.263 174.333C217.275 174.333 217.287 174.333 217.299 174.333C217.311 174.333 217.324 174.333 217.336 174.333C217.348 174.333 217.36 174.333 217.373 174.333C217.385 174.333 217.397 174.333 217.41 174.333C217.422 174.333 217.434 174.333 217.447 174.333C217.459 174.333 217.472 174.333 217.484 174.333C217.496 174.333 217.509 174.333 217.521 174.333C217.534 174.333 217.546 174.333 217.559 174.333C217.571 174.333 217.584 174.333 217.597 174.333C217.609 174.333 217.622 174.333 217.634 174.333C217.647 174.333 217.66 174.333 217.672 174.333C217.685 174.333 217.698 174.333 217.711 174.333C217.723 174.333 217.736 174.333 217.749 174.333C217.762 174.333 217.774 174.333 217.787 174.333C217.8 174.333 217.813 174.333 217.826 174.333C217.839 174.333 217.852 174.333 217.864 174.333C217.877 174.333 217.89 174.333 217.903 174.333C217.916 174.333 217.929 174.333 217.942 174.333C217.955 174.333 217.968 174.333 217.981 174.333C217.995 174.333 218.008 174.333 218.021 174.333C218.034 174.333 218.047 174.333 218.06 174.333C218.073 174.333 218.087 174.333 218.1 174.333C218.113 174.333 218.126 174.333 218.139 174.333C218.153 174.333 218.166 174.333 218.179 174.333C218.193 174.333 218.206 174.333 218.219 174.333C218.233 174.333 218.246 174.333 218.26 174.333C218.273 174.333 218.286 174.333 218.3 174.333C218.313 174.333 218.327 174.333 218.34 174.333C218.354 174.333 218.367 174.333 218.381 174.333C218.394 174.333 218.408 174.333 218.422 174.333C218.435 174.333 218.449 174.333 218.463 174.333C218.476 174.333 218.49 174.333 218.504 174.333C218.517 174.333 218.531 174.333 218.545 174.333C218.559 174.333 218.572 174.333 218.586 174.333C218.6 174.333 218.614 174.333 218.628 174.333C218.641 174.333 218.655 174.333 218.669 174.333C218.683 174.333 218.697 174.333 218.711 174.333C218.725 174.333 218.739 174.333 218.753 174.333C218.767 174.333 218.781 174.333 218.795 174.333C218.809 174.333 218.823 174.333 218.837 174.333C218.851 174.333 218.865 174.333 218.88 174.333C218.894 174.333 218.908 174.333 218.922 174.333C218.936 174.333 218.95 174.333 218.965 174.333C218.979 174.333 218.993 174.333 219.008 174.333C219.022 174.333 219.036 174.333 219.05 174.333C219.065 174.333 219.079 174.333 219.094 174.333C219.108 174.333 219.122 174.333 219.137 174.333C219.151 174.333 219.166 174.333 219.18 174.333C219.195 174.333 219.209 174.333 219.224 174.333C219.238 174.333 219.253 174.333 219.267 174.333C219.282 174.333 219.297 174.333 219.311 174.333C219.326 174.333 219.34 174.333 219.355 174.333C219.37 174.333 219.385 174.333 219.399 174.333C219.414 174.333 219.429 174.333 219.444 174.333C219.458 174.333 219.473 174.333 219.488 174.333C219.503 174.333 219.518 174.333 219.533 174.333C219.547 174.333 219.562 174.333 219.577 174.333C219.592 174.333 219.607 174.333 219.622 174.333C219.637 174.333 219.652 174.333 219.667 174.333C219.682 174.333 219.697 174.333 219.712 174.333C219.727 174.333 219.742 174.333 219.757 174.333C219.773 174.333 219.788 174.333 219.803 174.333C219.818 174.333 219.833 174.333 219.848 174.333C219.864 174.333 219.879 174.333 219.894 174.333C219.909 174.333 219.925 174.333 219.94 174.333C219.955 174.333 219.971 174.333 219.986 174.333C220.001 174.333 220.017 174.333 220.032 174.333C220.048 174.333 220.063 174.333 220.079 174.333C220.094 174.333 220.11 174.333 220.125 174.333C220.141 174.333 220.156 174.333 220.172 174.333C220.187 174.333 220.203 174.333 220.218 174.333C220.234 174.333 220.25 174.333 220.265 174.333C220.281 174.333 220.297 174.333 220.312 174.333C220.328 174.333 220.344 174.333 220.36 174.333C220.375 174.333 220.391 174.333 220.407 174.333C220.423 174.333 220.438 174.333 220.454 174.333C220.47 174.333 220.486 174.333 220.502 174.333C220.518 174.333 220.534 174.333 220.55 174.333C220.566 174.333 220.582 174.333 220.598 174.333C220.614 174.333 220.63 174.333 220.646 174.333C220.662 174.333 220.678 174.333 220.694 174.333C220.71 174.333 220.726 174.333 220.742 174.333C220.758 174.333 220.775 174.333 220.791 174.333C220.807 174.333 220.823 174.333 220.839 174.333C220.856 174.333 220.872 174.333 220.888 174.333C220.905 174.333 220.921 174.333 220.937 174.333C220.954 174.333 220.97 174.333 220.986 174.333C221.003 174.333 221.019 174.333 221.036 174.333C221.052 174.333 221.068 174.333 221.085 174.333C221.101 174.333 221.118 174.333 221.134 174.333C221.151 174.333 221.168 174.333 221.184 174.333C221.201 174.333 221.217 174.333 221.234 174.333C221.251 174.333 221.267 174.333 221.284 174.333C221.301 174.333 221.317 174.333 221.334 174.333C221.351 174.333 221.367 174.333 221.384 174.333C221.401 174.333 221.418 174.333 221.435 174.333C221.451 174.333 221.468 174.333 221.485 174.333C221.502 174.333 221.519 174.333 221.536 174.333C221.553 174.333 221.57 174.333 221.587 174.333C221.604 174.333 221.621 174.333 221.638 174.333C221.655 174.333 221.672 174.333 221.689 174.333C221.706 174.333 221.723 174.333 221.74 174.333C221.757 174.333 221.774 174.333 221.792 174.333C221.809 174.333 221.826 174.333 221.843 174.333C221.86 174.333 221.878 174.333 221.895 174.333C221.912 174.333 221.929 174.333 221.947 174.333C221.964 174.333 221.981 174.333 221.999 174.333C222.016 174.333 222.034 174.333 222.051 174.333C222.068 174.333 222.086 174.333 222.103 174.333C222.121 174.333 222.138 174.333 222.156 174.333C222.173 174.333 222.191 174.333 222.208 174.333C222.226 174.333 222.243 174.333 222.261 174.333C222.279 174.333 222.296 174.333 222.314 174.333C222.332 174.333 222.349 174.333 222.367 174.333C222.385 174.333 222.402 174.333 222.42 174.333C222.438 174.333 222.456 174.333 222.474 174.333C222.491 174.333 222.509 174.333 222.527 174.333C222.545 174.333 222.563 174.333 222.581 174.333C222.599 174.333 222.616 174.333 222.634 174.333C222.652 174.333 222.67 174.333 222.688 174.333C222.706 174.333 222.724 174.333 222.742 174.333C222.76 174.333 222.779 174.333 222.797 174.333C222.815 174.333 222.833 174.333 222.851 174.333C222.869 174.333 222.887 174.333 222.905 174.333C222.924 174.333 222.942 174.333 222.96 174.333C222.978 174.333 222.997 174.333 223.015 174.333C223.033 174.333 223.052 174.333 223.07 174.333C223.088 174.333 223.107 174.333 223.125 174.333C223.143 174.333 223.162 174.333 223.18 174.333C223.199 174.333 223.217 174.333 223.236 174.333C223.254 174.333 223.273 174.333 223.291 174.333C223.31 174.333 223.328 174.333 223.347 174.333C223.365 174.333 223.384 174.333 223.403 174.333C223.421 174.333 223.44 174.333 223.459 174.333C223.477 174.333 223.496 174.333 223.515 174.333C223.533 174.333 223.552 174.333 223.571 174.333C223.59 174.333 223.609 174.333 223.627 174.333C223.646 174.333 223.665 174.333 223.684 174.333C223.703 174.333 223.722 174.333 223.741 174.333C223.76 174.333 223.778 174.333 223.797 174.333C223.816 174.333 223.835 174.333 223.854 174.333C223.873 174.333 223.893 174.333 223.912 174.333C223.931 174.333 223.95 174.333 223.969 174.333C223.988 174.333 224.007 174.333 224.026 174.333C224.045 174.333 224.065 174.333 224.084 174.333C224.103 174.333 224.122 174.333 224.142 174.333C224.161 174.333 224.18 174.333 224.199 174.333C224.219 174.333 224.238 174.333 224.257 174.333C224.277 174.333 224.296 174.333 224.316 174.333C224.335 174.333 224.354 174.333 224.374 174.333C224.393 174.333 224.413 174.333 224.432 174.333C224.452 174.333 224.471 174.333 224.491 174.333C224.511 174.333 224.53 174.333 224.55 174.333C224.569 174.333 224.589 174.333 224.609 174.333C224.628 174.333 224.648 174.333 224.668 174.333C224.687 174.333 224.707 174.333 224.727 174.333C224.747 174.333 224.766 174.333 224.786 174.333C224.806 174.333 224.826 174.333 224.846 174.333C224.866 174.333 224.885 174.333 224.905 174.333C224.925 174.333 224.945 174.333 224.965 174.333C224.985 174.333 225.005 174.333 225.025 174.333C225.045 174.333 225.065 174.333 225.085 174.333C225.105 174.333 225.125 174.333 225.145 174.333C225.165 174.333 225.185 174.333 225.206 174.333C225.226 174.333 225.246 174.333 225.266 174.333C225.286 174.333 225.307 174.333 225.327 174.333C225.347 174.333 225.367 174.333 225.388 174.333C225.408 174.333 225.428 174.333 225.449 174.333C225.469 174.333 225.489 174.333 225.51 174.333C225.53 174.333 225.55 174.333 225.571 174.333C225.591 174.333 225.612 174.333 225.632 174.333C225.653 174.333 225.673 174.333 225.694 174.333C225.714 174.333 225.735 174.333 225.755 174.333C225.776 174.333 225.797 174.333 225.817 174.333C225.838 174.333 225.859 174.333 225.879 174.333C225.9 174.333 225.921 174.333 225.941 174.333C225.962 174.333 225.983 174.333 226.004 174.333C226.024 174.333 226.045 174.333 226.066 174.333C226.087 174.333 226.108 174.333 226.129 174.333C226.149 174.333 226.17 174.333 226.191 174.333C226.212 174.333 226.233 174.333 226.254 174.333C226.275 174.333 226.296 174.333 226.317 174.333C226.338 174.333 226.359 174.333 226.38 174.333C226.401 174.333 226.422 174.333 226.443 174.333C226.465 174.333 226.486 174.333 226.507 174.333C226.528 174.333 226.549 174.333 226.571 174.333C226.592 174.333 226.613 174.333 226.634 174.333C226.655 174.333 226.677 174.333 226.698 174.333C226.719 174.333 226.741 174.333 226.762 174.333C226.783 174.333 226.805 174.333 226.826 174.333C226.848 174.333 226.869 174.333 226.891 174.333C226.912 174.333 226.934 174.333 226.955 174.333C226.977 174.333 226.998 174.333 227.02 174.333C227.041 174.333 227.063 174.333 227.084 174.333C227.106 174.333 227.128 174.333 227.149 174.333C227.171 174.333 227.193 174.333 227.214 174.333C227.236 174.333 227.258 174.333 227.279 174.333C227.301 174.333 227.323 174.333 227.345 174.333C227.367 174.333 227.388 174.333 227.41 174.333C227.432 174.333 227.454 174.333 227.476 174.333C227.498 174.333 227.52 174.333 227.542 174.333C227.564 174.333 227.586 174.333 227.608 174.333C227.63 174.333 227.652 174.333 227.674 174.333C227.696 174.333 227.718 174.333 227.74 174.333C227.762 174.333 227.784 174.333 227.806 174.333C227.828 174.333 227.851 174.333 227.873 174.333C227.895 174.333 227.917 174.333 227.939 174.333C227.962 174.333 227.984 174.333 228.006 174.333C228.028 174.333 228.051 174.333 228.073 174.333C228.095 174.333 228.118 174.333 228.14 174.333C228.163 174.333 228.185 174.333 228.207 174.333C228.23 174.333 228.252 174.333 228.275 174.333C228.297 174.333 228.32 174.333 228.342 174.333C228.365 174.333 228.387 174.333 228.41 174.333C228.433 174.333 228.455 174.333 228.478 174.333C228.5 174.333 228.523 174.333 228.546 174.333C228.568 174.333 228.591 174.333 228.614 174.333C228.637 174.333 228.659 174.333 228.682 174.333C228.705 174.333 228.728 174.333 228.751 174.333C228.773 174.333 228.796 174.333 228.819 174.333C228.842 174.333 228.865 174.333 228.888 174.333C228.911 174.333 228.934 174.333 228.957 174.333C228.98 174.333 229.003 174.333 229.026 174.333C229.049 174.333 229.072 174.333 229.095 174.333C229.118 174.333 229.141 174.333 229.164 174.333C229.187 174.333 229.21 174.333 229.234 174.333C229.257 174.333 229.28 174.333 229.303 174.333C229.326 174.333 229.35 174.333 229.373 174.333C229.396 174.333 229.419 174.333 229.443 174.333C229.466 174.333 229.489 174.333 229.513 174.333C229.536 174.333 229.559 174.333 229.583 174.333C229.606 174.333 229.63 174.333 229.653 174.333C229.677 174.333 229.7 174.333 229.724 174.333C229.747 174.333 229.771 174.333 229.794 174.333C229.818 174.333 229.841 174.333 229.865 174.333C229.889 174.333 229.912 174.333 229.936 174.333C229.96 174.333 229.983 174.333 230.007 174.333C230.031 174.333 230.054 174.333 230.078 174.333C230.102 174.333 230.126 174.333 230.149 174.333C230.173 174.333 230.197 174.333 230.221 174.333C230.245 174.333 230.269 174.333 230.293 174.333C230.316 174.333 230.34 174.333 230.364 174.333C230.388 174.333 230.412 174.333 230.436 174.333C230.46 174.333 230.484 174.333 230.508 174.333C230.532 174.333 230.556 174.333 230.58 174.333C230.605 174.333 230.629 174.333 230.653 174.333C230.677 174.333 230.701 174.333 230.725 174.333C230.75 174.333 230.774 174.333 230.798 174.333C230.822 174.333 230.846 174.333 230.871 174.333C230.895 174.333 230.919 174.333 230.944 174.333C230.968 174.333 230.992 174.333 231.017 174.333C231.041 174.333 231.066 174.333 231.09 174.333C231.114 174.333 231.139 174.333 231.163 174.333C231.188 174.333 231.212 174.333 231.237 174.333C231.261 174.333 231.286 174.333 231.311 174.333C231.335 174.333 231.36 174.333 231.384 174.333C231.409 174.333 231.434 174.333 231.458 174.333C231.483 174.333 231.508 174.333 231.533 174.333C231.557 174.333 231.582 174.333 231.607 174.333C231.632 174.333 231.656 174.333 231.681 174.333C231.706 174.333 231.731 174.333 231.756 174.333C231.781 174.333 231.805 174.333 231.83 174.333C231.855 174.333 231.88 174.333 231.905 174.333V2.3335ZM212.727 88.3335C136.895 47.7682 136.892 47.7742 136.888 47.7812C136.886 47.7847 136.882 47.7925 136.878 47.7995C136.871 47.8134 136.861 47.831 136.85 47.8521C136.828 47.8942 136.798 47.9505 136.76 48.0207C136.685 48.1612 136.581 48.3574 136.447 48.608C136.181 49.1092 135.799 49.8279 135.31 50.7521C134.332 52.6004 132.924 55.2723 131.148 58.6724C127.596 65.4695 122.562 75.195 116.537 87.0831C104.519 110.797 88.4113 143.411 72.2227 178.717C56.1435 213.785 39.4185 252.734 26.5419 288.841C14.8781 321.547 2.06689 363.24 2.06689 399.048H174.067C174.067 399.379 174.218 394.939 176.916 384.009C179.412 373.901 183.301 361.329 188.548 346.616C199.045 317.182 213.485 283.307 228.571 250.406C243.547 217.743 258.604 187.243 269.96 164.835C275.622 153.662 280.327 144.575 283.593 138.325C285.225 135.201 286.495 132.79 287.344 131.187C287.768 130.385 288.086 129.786 288.291 129.401C288.394 129.208 288.468 129.069 288.513 128.985C288.535 128.943 288.55 128.914 288.558 128.9C288.562 128.893 288.564 128.889 288.564 128.889C288.564 128.889 288.563 128.891 288.563 128.891C288.561 128.895 288.559 128.899 212.727 88.3335ZM143.915 519.925C143.915 552.866 152.034 592.93 177.883 626.978C206.226 664.312 249.768 686 300.839 686V514C299.72 514 302.007 513.843 305.932 515.748C309.904 517.676 312.973 520.468 314.876 522.975C316.579 525.217 316.775 526.438 316.54 525.618C316.304 524.794 315.915 522.85 315.915 519.925H143.915ZM300.839 686C351.91 686 395.452 664.312 423.795 626.978C449.644 592.93 457.763 552.866 457.763 519.925H285.763C285.763 522.85 285.374 524.794 285.138 525.618C284.903 526.438 285.099 525.217 286.802 522.975C288.705 520.468 291.774 517.676 295.746 515.748C299.671 513.843 301.958 514 300.839 514V686ZM457.763 519.925C457.763 488.446 446.268 454.961 434.836 427.16C422.158 396.33 404.03 359.857 381.314 318.427L230.496 401.12C251.686 439.765 266.487 470.022 275.761 492.576C286.282 518.159 285.763 524.711 285.763 519.925H457.763ZM295.773 359.773C220.364 318.427 220.361 318.432 220.358 318.439C220.356 318.441 220.353 318.448 220.35 318.453C220.344 318.464 220.337 318.476 220.329 318.49C220.314 318.519 220.294 318.555 220.271 318.598C220.223 318.684 220.16 318.8 220.082 318.943C219.926 319.23 219.708 319.63 219.433 320.136C218.884 321.149 218.106 322.591 217.131 324.411C215.182 328.05 212.439 333.22 209.165 339.524C202.648 352.069 193.871 369.402 185.011 388.256C176.265 406.866 166.845 428.206 159.432 448.485C153.297 465.269 143.915 493.127 143.915 519.925H315.915C315.915 526.703 314.765 524.533 320.978 507.535C325.914 494.032 332.959 477.837 340.677 461.414C348.281 445.234 355.969 430.037 361.801 418.809C364.7 413.227 367.102 408.701 368.756 405.614C369.581 404.072 370.218 402.894 370.633 402.128C370.841 401.745 370.993 401.465 371.086 401.295C371.132 401.21 371.164 401.153 371.18 401.123C371.188 401.108 371.192 401.101 371.192 401.1C371.193 401.1 371.192 401.101 371.19 401.105C371.189 401.106 371.187 401.11 371.187 401.111C371.184 401.115 371.182 401.12 295.773 359.773ZM378.582 313.794L373.516 305.787L228.162 397.745L233.228 405.753L378.582 313.794ZM228.162 305.787L223.096 313.794L368.45 405.753L373.516 397.745L228.162 305.787Z" fill="url(#paint0_linear)" mask="url(#path-1-inside-1)"/>
</g>
<g filter="url(#filter1_ddii)">
<path fill-rule="evenodd" clip-rule="evenodd" d="M88.0669 393.823C88.0669 470.196 126.253 546.568 221.719 546.568C317.184 546.568 355.371 470.196 355.371 393.823C355.371 342.908 314.002 241.078 231.265 88.3335C218.537 88.3335 212.172 88.3335 212.172 88.3335C212.172 88.3335 88.0669 317.451 88.0669 393.823ZM229.902 516.564C229.902 557.478 250.165 598.392 300.82 598.392C351.475 598.392 371.737 557.478 371.737 516.564C371.737 489.288 349.786 434.736 305.885 352.909L300.82 344.726L295.754 352.909C295.754 352.909 229.902 475.65 229.902 516.564Z" fill="url(#paint1_linear)"/>
</g>
<g filter="url(#filter2_f)">
<rect x="219.199" y="135.036" width="24.9342" height="280.613" transform="rotate(22.9027 219.199 135.036)" fill="#FACFB0"/>
</g>
<defs>
<filter id="filter0_f" x="57.0669" y="57.3335" width="345.696" height="573.667" filterUnits="userSpaceOnUse" color-interpolation-filters="sRGB">
<feFlood flood-opacity="0" result="BackgroundImageFix"/>
<feBlend mode="normal" in="SourceGraphic" in2="BackgroundImageFix" result="shape"/>
<feGaussianBlur stdDeviation="15.5" result="effect1_foregroundBlur"/>
</filter>
<filter id="filter1_ddii" x="0.0668945" y="0.333496" width="429.67" height="654.058" filterUnits="userSpaceOnUse" color-interpolation-filters="sRGB">
<feFlood flood-opacity="0" result="BackgroundImageFix"/>
<feColorMatrix in="SourceAlpha" type="matrix" values="0 0 0 0 0 0 0 0 0 0 0 0 0 0 0 0 0 0 127 0"/>
<feOffset dx="-16" dy="-16"/>
<feGaussianBlur stdDeviation="36"/>
<feColorMatrix type="matrix" values="0 0 0 0 0 0 0 0 0 0 0 0 0 0 0 0 0 0 0.14 0"/>
<feBlend mode="normal" in2="BackgroundImageFix" result="effect1_dropShadow"/>
<feColorMatrix in="SourceAlpha" type="matrix" values="0 0 0 0 0 0 0 0 0 0 0 0 0 0 0 0 0 0 127 0"/>
<feOffset dx="-16" dy="-16"/>
<feGaussianBlur stdDeviation="36"/>
<feColorMatrix type="matrix" values="0 0 0 0 0.92549 0 0 0 0 0.92549 0 0 0 0 0.92549 0 0 0 0.25 0"/>
<feBlend mode="normal" in2="effect1_dropShadow" result="effect2_dropShadow"/>
<feBlend mode="normal" in="SourceGraphic" in2="effect2_dropShadow" result="shape"/>
<feColorMatrix in="SourceAlpha" type="matrix" values="0 0 0 0 0 0 0 0 0 0 0 0 0 0 0 0 0 0 127 0" result="hardAlpha"/>
<feOffset dx="30.2" dy="-18.04"/>
<feGaussianBlur stdDeviation="19.3"/>
<feComposite in2="hardAlpha" operator="arithmetic" k2="-1" k3="1"/>
<feColorMatrix type="matrix" values="0 0 0 0 0.9375 0 0 0 0 0.496686 0 0 0 0 0.171875 0 0 0 0.8 0"/>
<feBlend mode="normal" in2="shape" result="effect3_innerShadow"/>
<feColorMatrix in="SourceAlpha" type="matrix" values="0 0 0 0 0 0 0 0 0 0 0 0 0 0 0 0 0 0 127 0" result="hardAlpha"/>
<feOffset dx="59.8" dy="-78"/>
<feGaussianBlur stdDeviation="29"/>
<feComposite in2="hardAlpha" operator="arithmetic" k2="-1" k3="1"/>
<feColorMatrix type="matrix" values="0 0 0 0 1 0 0 0 0 1 0 0 0 0 1 0 0 0 0.1 0"/>
<feBlend mode="normal" in2="effect3_innerShadow" result="effect4_innerShadow"/>
</filter>
<filter id="filter2_f" x="6.99316" y="32.0356" width="338.174" height="474.195" filterUnits="userSpaceOnUse" color-interpolation-filters="sRGB">
<feFlood flood-opacity="0" result="BackgroundImageFix"/>
<feBlend mode="normal" in="SourceGraphic" in2="BackgroundImageFix" result="shape"/>
<feGaussianBlur stdDeviation="51.5" result="effect1_foregroundBlur"/>
</filter>
<linearGradient id="paint0_linear" x1="90.3922" y1="99.9599" x2="357.785" y2="606.844" gradientUnits="userSpaceOnUse">
<stop offset="0.0614591" stop-color="#FFE2BC"/>
<stop offset="1" stop-color="#FFC28A"/>
</linearGradient>
<linearGradient id="paint1_linear" x1="139.891" y1="88.3335" x2="417.356" y2="746.914" gradientUnits="userSpaceOnUse">
<stop offset="0.0855401" stop-color="#F1954D"/>
<stop offset="0.88224" stop-color="#EB7118"/>
</linearGradient>
</defs>
</svg>
