<?xml version="1.0" encoding="UTF-8"?>
<svg width="68px" height="68px" viewBox="0 0 68 68" version="1.1" xmlns="http://www.w3.org/2000/svg" xmlns:xlink="http://www.w3.org/1999/xlink">
    <title>symptom/flatulence/68x68</title>
    <g id="Page-1" stroke="none" stroke-width="1" fill="none" fill-rule="evenodd">
        <g id="symptom/flatulence/68x68">
            <path d="M12.819426,-2.33158843e-15 L55.180574,5.17920154e-16 C59.6381677,-3.00926524e-16 61.2545989,0.464128056 62.8842285,1.33566352 C64.5138581,2.20719898 65.792801,3.48614185 66.6643365,5.11577148 C67.5358719,6.74540111 68,8.3618323 68,12.819426 L68,55.180574 C68,59.6381677 67.5358719,61.2545989 66.6643365,62.8842285 C65.792801,64.5138581 64.5138581,65.792801 62.8842285,66.6643365 C61.2545989,67.5358719 59.6381677,68 55.180574,68 L12.819426,68 C8.3618323,68 6.74540111,67.5358719 5.11577148,66.6643365 C3.48614185,65.792801 2.20719898,64.5138581 1.33566352,62.8842285 C0.464128056,61.2545989 1.25441118e-15,59.6381677 -2.15894838e-15,55.180574 L3.45280103e-16,12.819426 C-2.00617683e-16,8.3618323 0.464128056,6.74540111 1.33566352,5.11577148 C2.20719898,3.48614185 3.48614185,2.20719898 5.11577148,1.33566352 C6.74540111,0.464128056 8.3618323,1.35472002e-15 12.819426,-2.33158843e-15 Z" id="Rectangle" fill="#FDD5B4"></path>
            <path d="M30.5,40.7772257 C35.0193106,35.3397394 39.0515609,35.0866166 42.596751,40.0178575 C46.1419411,44.9490984 44.7344006,48.7764792 38.3741294,51.5" id="Path-18" stroke="#FF7F0F" fill="#FDD5B4" stroke-linecap="round" stroke-linejoin="round" transform="translate(37.500000, 44.000000) scale(-1, -1) rotate(-90.000000) translate(-37.500000, -44.000000) "></path>
            <path d="M21.5,24.7772257 C26.0193106,19.3397394 30.0515609,19.0866166 33.596751,24.0178575 C37.1419411,28.9490984 35.7344006,32.7764792 29.3741294,35.5" id="Path-18" stroke="#FF7F0F" fill="#FDD5B4" stroke-linecap="round" stroke-linejoin="round" transform="translate(28.500000, 28.000000) scale(-1, 1) rotate(-30.000000) translate(-28.500000, -28.000000) "></path>
            <path d="M25.5571659,32 C18.6629093,33.2005772 16.4857756,36.8023088 19.0257649,42.8051948 C21.5657542,48.8080808 25.5571659,49.6084656 31,45.2063492" id="Path-18-Copy" stroke="#FF7F0F" fill="#FDD5B4" stroke-linecap="round" stroke-linejoin="round"></path>
            <line x1="51" y1="30" x2="38" y2="39" id="Path-15" stroke="#FF7F0F" stroke-linecap="round" stroke-linejoin="round"></line>
            <line x1="34" y1="30" x2="49" y2="25" id="Path-19" stroke="#FF7F0F" stroke-linecap="round"></line>
        </g>
    </g>
</svg>