<?xml version="1.0" encoding="UTF-8"?>
<svg width="68px" height="68px" viewBox="0 0 68 68" version="1.1" xmlns="http://www.w3.org/2000/svg" xmlns:xlink="http://www.w3.org/1999/xlink">
    <title>symptom/headache/68x68</title>
    <g id="Page-1" stroke="none" stroke-width="1" fill="none" fill-rule="evenodd">
        <g id="symptom/headache/68x68">
            <path d="M12.819426,-2.33158843e-15 L55.180574,5.17920154e-16 C59.6381677,-3.00926524e-16 61.2545989,0.464128056 62.8842285,1.33566352 C64.5138581,2.20719898 65.792801,3.48614185 66.6643365,5.11577148 C67.5358719,6.74540111 68,8.3618323 68,12.819426 L68,55.180574 C68,59.6381677 67.5358719,61.2545989 66.6643365,62.8842285 C65.792801,64.5138581 64.5138581,65.792801 62.8842285,66.6643365 C61.2545989,67.5358719 59.6381677,68 55.180574,68 L12.819426,68 C8.3618323,68 6.74540111,67.5358719 5.11577148,66.6643365 C3.48614185,65.792801 2.20719898,64.5138581 1.33566352,62.8842285 C0.464128056,61.2545989 1.25441118e-15,59.6381677 -2.15894838e-15,55.180574 L3.45280103e-16,12.819426 C-2.00617683e-16,8.3618323 0.464128056,6.74540111 1.33566352,5.11577148 C2.20719898,3.48614185 3.48614185,2.20719898 5.11577148,1.33566352 C6.74540111,0.464128056 8.3618323,1.35472002e-15 12.819426,-2.33158843e-15 Z" id="Rectangle" fill="#FDD5B4"></path>
            <path d="M34,53 C44.6775052,53 52,43.1830654 52,32.6896552 C52,22.1962449 44.6775052,15 34,15 C23.3224948,15 16,22.1962449 16,32.6896552 C16,43.1830654 23.3224948,53 34,53 Z" id="Oval" stroke="#FF7F0F" fill="#FDD5B4"></path>
            <path d="M49,33.2260088 C49,24.1940206 42.897921,18 34,18 C25.102079,18 19,24.1940206 19,33.2260088 C19,42.2579971 49,42.2579971 49,33.2260088 Z" id="Oval" fill="#FDB270"></path>
            <polygon id="Path-14" stroke="#FF7F0F" fill="#FF7F0F" stroke-linejoin="round" transform="translate(25.000000, 22.500000) scale(-1, 1) translate(-25.000000, -22.500000) " points="22 23.8636364 24.4511545 23.8636364 22.5703648 30 28 21.8356643 25.1865009 21.8356643 27.0463861 15 23.9984287 15"></polygon>
        </g>
    </g>
</svg>