<?xml version="1.0" encoding="UTF-8"?>
<svg width="44px" height="44px" viewBox="0 0 44 44" version="1.1" xmlns="http://www.w3.org/2000/svg" xmlns:xlink="http://www.w3.org/1999/xlink">
    <title>symptom/cramps/44x44</title>
    <g id="Page-1" stroke="none" stroke-width="1" fill="none" fill-rule="evenodd">
        <g id="symptom/cramps/44x44">
            <path d="M12.819426,-5.17920154e-16 L31.180574,5.17920154e-16 C35.6381677,-3.00926524e-16 37.2545989,0.464128056 38.8842285,1.33566352 C40.5138581,2.20719898 41.792801,3.48614185 42.6643365,5.11577148 C43.5358719,6.74540111 44,8.3618323 44,12.819426 L44,31.180574 C44,35.6381677 43.5358719,37.2545989 42.6643365,38.8842285 C41.792801,40.5138581 40.5138581,41.792801 38.8842285,42.6643365 C37.2545989,43.5358719 35.6381677,44 31.180574,44 L12.819426,44 C8.3618323,44 6.74540111,43.5358719 5.11577148,42.6643365 C3.48614185,41.792801 2.20719898,40.5138581 1.33566352,38.8842285 C0.464128056,37.2545989 2.00617683e-16,35.6381677 -3.45280103e-16,31.180574 L3.45280103e-16,12.819426 C-2.00617683e-16,8.3618323 0.464128056,6.74540111 1.33566352,5.11577148 C2.20719898,3.48614185 3.48614185,2.20719898 5.11577148,1.33566352 C6.74540111,0.464128056 8.3618323,3.00926524e-16 12.819426,-5.17920154e-16 Z" id="Rectangle" fill="#FDD5B4"></path>
            <path d="M12,8 C11.9932267,8.2854395 11.8265601,9.95210617 11.5,13 C11.0101599,17.5718407 10.5424164,15.1743634 9.49111909,22.0828885 C8.79025424,26.6885718 8.29321454,31.327609 8,36 L20,36 L21,31 L23,31 L24,36 L36,36 C35.4697626,29.7668504 34.9721473,25.1224409 34.5071541,22.0667715 C33.8096643,17.4832674 32.7645951,15.4695539 32.5,13 C32.3236033,11.3536307 32.1569366,9.68696407 32,8 L12,8 Z" id="Path-28" stroke="#FF7F0F" stroke-linejoin="round"></path>
            <ellipse id="Oval" fill="#FDB270" cx="22" cy="19.5" rx="10" ry="5.5"></ellipse>
            <polygon id="Path-14" stroke="#FF7F0F" fill="#FF7F0F" stroke-linejoin="round" transform="translate(22.119565, 17.000000) scale(-1, 1) translate(-22.119565, -17.000000) " points="20.2651515 17.9090909 21.780303 17.9090909 20.6177156 22 23.9739789 16.5571096 22.2348485 16.5571096 23.384514 12 21.5004561 12"></polygon>
            <polyline id="Path-31" stroke="#FF7F0F" stroke-linecap="round" stroke-linejoin="round" points="26 18 27 16 29.9408359 14.5517686 31 12 34 11"></polyline>
            <polyline id="Path-31-Copy-2" stroke="#FF7F0F" stroke-linecap="round" stroke-linejoin="round" transform="translate(34.000000, 15.500000) rotate(-345.000000) translate(-34.000000, -15.500000) " points="30 19 31 17 33.9408359 15.5517686 35 13 38 12"></polyline>
            <g id="Group" transform="translate(11.500000, 15.500000) scale(-1, 1) translate(-11.500000, -15.500000) translate(5.000000, 11.000000)" stroke="#FF7F0F" stroke-linecap="round" stroke-linejoin="round">
                <polyline id="Path-31" points="0 7 1 5 3.94083593 3.55176857 5 1 8 0"></polyline>
                <polyline id="Path-31-Copy-2" transform="translate(8.000000, 4.500000) rotate(-345.000000) translate(-8.000000, -4.500000) " points="4 8 5 6 7.94083593 4.55176857 9 2 12 1"></polyline>
            </g>
        </g>
    </g>
</svg>