<?xml version="1.0" encoding="UTF-8"?>
<svg width="68px" height="68px" viewBox="0 0 68 68" version="1.1" xmlns="http://www.w3.org/2000/svg" xmlns:xlink="http://www.w3.org/1999/xlink">
    <title>mood/distracted/68x68</title>
    <g id="Page-1" stroke="none" stroke-width="1" fill="none" fill-rule="evenodd">
        <g id="mood/distracted/68x68">
            <path d="M12.819426,-2.33158843e-15 L55.180574,5.17920154e-16 C59.6381677,-3.00926524e-16 61.2545989,0.464128056 62.8842285,1.33566352 C64.5138581,2.20719898 65.792801,3.48614185 66.6643365,5.11577148 C67.5358719,6.74540111 68,8.3618323 68,12.819426 L68,55.180574 C68,59.6381677 67.5358719,61.2545989 66.6643365,62.8842285 C65.792801,64.5138581 64.5138581,65.792801 62.8842285,66.6643365 C61.2545989,67.5358719 59.6381677,68 55.180574,68 L12.819426,68 C8.3618323,68 6.74540111,67.5358719 5.11577148,66.6643365 C3.48614185,65.792801 2.20719898,64.5138581 1.33566352,62.8842285 C0.464128056,61.2545989 1.25441118e-15,59.6381677 -2.15894838e-15,55.180574 L3.45280103e-16,12.819426 C-2.00617683e-16,8.3618323 0.464128056,6.74540111 1.33566352,5.11577148 C2.20719898,3.48614185 3.48614185,2.20719898 5.11577148,1.33566352 C6.74540111,0.464128056 8.3618323,1.35472002e-15 12.819426,-2.33158843e-15 Z" id="Rectangle" fill="#FFF2E7"></path>
            <circle id="Oval" stroke="#FF7F0F" cx="34" cy="17" r="8"></circle>
            <path d="M34,53 C44.6775052,53 52,43.1830654 52,32.6896552 C52,22.1962449 44.6775052,15 34,15 C23.3224948,15 16,22.1962449 16,32.6896552 C16,43.1830654 23.3224948,53 34,53 Z" id="Oval" stroke="#FF7F0F" fill="#FFF2E7"></path>
            <path d="M27.6068504,30.9300766 C28.7208909,30.800844 27.6068504,28.2537475 25.8506019,29.859545 C24.0943533,31.4653424 27.8970304,34.7960236 29.9485152,31.4653424 C32,28.1346612 27.4281412,26.0445586 25.1422117,27.4379604 C22.8562823,28.8313621 22.0943058,30.9214646 24.3802353,33.7082681 C26.6661647,36.4950715 32,34.2944946 32,31.6181655" id="Path-21" stroke="#FF7F0F" stroke-linecap="round" stroke-linejoin="round"></path>
            <path d="M40.6068504,30.9300766 C41.7208909,30.800844 40.6068504,28.2537475 38.8506019,29.859545 C37.0943533,31.4653424 40.8970304,34.7960236 42.9485152,31.4653424 C45,28.1346612 40.4281412,26.0445586 38.1422117,27.4379604 C35.8562823,28.8313621 35.0943058,30.9214646 37.3802353,33.7082681 C39.6661647,36.4950715 45,34.2944946 45,31.6181655" id="Path-21-Copy" stroke="#FF7F0F" stroke-linecap="round" stroke-linejoin="round"></path>
            <circle id="Oval" stroke="#FF7F0F" cx="38.5" cy="42.5" r="1.5"></circle>
            <path d="M22,19 C23,20 24,20.5 25,20.5 C26,20.5 27,20 28,19 C29,21 30,22 31,22 C32,22 33,21 34,19 C35,21 36,22 37,22 C38,22 39,21 40,19 C41,20 42,20.5 43,20.5 C44,20.5 45,20 46,19" id="Path-25" stroke="#FF7F0F"></path>
        </g>
    </g>
</svg>