<?xml version="1.0" encoding="UTF-8"?>
<svg width="68px" height="68px" viewBox="0 0 68 68" version="1.1" xmlns="http://www.w3.org/2000/svg" xmlns:xlink="http://www.w3.org/1999/xlink">
    <title>mood/moodswing/68x68</title>
    <g id="Page-1" stroke="none" stroke-width="1" fill="none" fill-rule="evenodd">
        <g id="mood/moodswing/68x68">
            <path d="M12.819426,-2.33158843e-15 L55.180574,5.17920154e-16 C59.6381677,-3.00926524e-16 61.2545989,0.464128056 62.8842285,1.33566352 C64.5138581,2.20719898 65.792801,3.48614185 66.6643365,5.11577148 C67.5358719,6.74540111 68,8.3618323 68,12.819426 L68,55.180574 C68,59.6381677 67.5358719,61.2545989 66.6643365,62.8842285 C65.792801,64.5138581 64.5138581,65.792801 62.8842285,66.6643365 C61.2545989,67.5358719 59.6381677,68 55.180574,68 L12.819426,68 C8.3618323,68 6.74540111,67.5358719 5.11577148,66.6643365 C3.48614185,65.792801 2.20719898,64.5138581 1.33566352,62.8842285 C0.464128056,61.2545989 1.25441118e-15,59.6381677 -2.15894838e-15,55.180574 L3.45280103e-16,12.819426 C-2.00617683e-16,8.3618323 0.464128056,6.74540111 1.33566352,5.11577148 C2.20719898,3.48614185 3.48614185,2.20719898 5.11577148,1.33566352 C6.74540111,0.464128056 8.3618323,1.35472002e-15 12.819426,-2.33158843e-15 Z" id="Rectangle" fill="#FDD5B4"></path>
            <g id="Group-3" transform="translate(10.000000, 3.000000)">
                <g id="Group-4" transform="translate(0.000000, 7.014706)">
                    <path d="M17.8888889,38.9705882 C28.5004835,38.9705882 35.7777778,28.9029115 35.7777778,18.1414807 C35.7777778,7.38004994 28.5004835,0 17.8888889,0 C7.27729425,0 0,7.38004994 0,18.1414807 C0,28.9029115 7.27729425,38.9705882 17.8888889,38.9705882 Z" id="Oval" stroke="#FF7F0F"></path>
                    <g id="Group" transform="translate(4.666667, 11.691176)">
                        <ellipse id="Oval" fill="#FF7F0F" cx="6.22222222" cy="3.89705882" rx="3.88888889" ry="3.89705882"></ellipse>
                        <path d="M6.22222222,8.57352941 C8.36999625,8.57352941 13.2222222,10.7258156 13.2222222,8.57352941 C13.2222222,6.42124325 8.36999625,4.67647059 6.22222222,4.67647059 C4.0744482,4.67647059 0,6.42124325 0,8.57352941 C0,10.7258156 4.0744482,8.57352941 6.22222222,8.57352941 Z" id="Oval-Copy-2" fill="#FDD5B4"></path>
                        <rect id="Rectangle-Copy" fill="#FFFFFF" x="6.33333333" y="1.29411765" width="2" height="2.00420168"></rect>
                    </g>
                    <path d="M9.33333333,24.9411765 C10.3703704,25.9803922 12.7037037,26.5 16.3333333,26.5 C19.962963,26.5 21.7777778,25.9803922 21.7777778,24.9411765" id="Line" stroke="#FF7F0F" stroke-linecap="round"></path>
                </g>
                <g id="Group-2" transform="translate(18.666667, 18.705882)">
                    <ellipse id="Oval-Copy" fill="#FF7F0F" cx="6.22222222" cy="3.89705882" rx="3.88888889" ry="3.89705882"></ellipse>
                    <path d="M6.22222222,8.57352941 C8.36999625,8.57352941 13.2222222,10.7258156 13.2222222,8.57352941 C13.2222222,6.42124325 8.36999625,4.67647059 6.22222222,4.67647059 C4.0744482,4.67647059 0,6.42124325 0,8.57352941 C0,10.7258156 4.0744482,8.57352941 6.22222222,8.57352941 Z" id="Oval-Copy-3" fill="#FDD5B4"></path>
                    <rect id="Rectangle" stroke="#FFFFFF" x="7" y="1.55882353" width="1.55555556" height="1.55882353"></rect>
                </g>
                <rect id="Rectangle" fill="#FDD5B4" x="27.2222222" y="0" width="28" height="53"></rect>
            </g>
            <path d="M40.5,15 C50.8809078,15 58,22.1962449 58,32.6896552 C58,43.1830654 50.8809078,53 40.5,53 C38.9200524,53 37.4156616,52.7725999 36.0004266,52.3500245 L35.9996417,15.4865139 C37.4151053,15.1667559 38.9197603,15 40.5,15 Z" id="Combined-Shape" stroke="#FF7F0F" fill="#FDD5B4"></path>
            <path d="M37,44 C44,44 44,43 44,43" id="Line" stroke="#FF7F0F" stroke-linecap="round" transform="translate(40.500000, 43.500000) scale(1, -1) translate(-40.500000, -43.500000) "></path>
            <polygon id="Path-14" stroke="#FF7F0F" fill="#FDD5B4" stroke-linejoin="round" transform="translate(33.500000, 33.500000) scale(-1, 1) translate(-33.500000, -33.500000) " points="24 38.1363636 31.7619893 38.1363636 25.8061552 59 43 31.2412587 34.0905861 31.2412587 39.9802227 8 30.3283577 8"></polygon>
            <g id="Group-Copy" transform="translate(43.000000, 28.000000)">
                <circle id="Oval" fill="#FF7F0F" transform="translate(5.000000, 7.000000) scale(-1, 1) translate(-5.000000, -7.000000) " cx="5" cy="7" r="4"></circle>
                <path d="M6.73849928,5.2174086 C8.50302279,5.20161614 12.4702371,7.24214416 12.4894829,5.16593801 C12.5085902,3.08973185 8.53774501,1.44231235 6.7732215,1.45810481 C5.008698,1.47389726 1.64575194,3.18695408 1.62649381,5.26316023 C1.60739883,7.33936638 4.97397578,5.23320105 6.73849928,5.2174086 Z" id="Oval-Copy-2" fill="#FDD5B4" transform="translate(7.057988, 3.817820) scale(-1, -1) rotate(-345.000000) translate(-7.057988, -3.817820) "></path>
            </g>
        </g>
    </g>
</svg>