<?xml version="1.0" encoding="UTF-8"?>
<svg width="68px" height="68px" viewBox="0 0 68 68" version="1.1" xmlns="http://www.w3.org/2000/svg" xmlns:xlink="http://www.w3.org/1999/xlink">
    <title>symptom/cramps/68x68</title>
    <g id="Page-1" stroke="none" stroke-width="1" fill="none" fill-rule="evenodd">
        <g id="symptom/cramps/68x68">
            <path d="M12.819426,-2.33158843e-15 L55.180574,5.17920154e-16 C59.6381677,-3.00926524e-16 61.2545989,0.464128056 62.8842285,1.33566352 C64.5138581,2.20719898 65.792801,3.48614185 66.6643365,5.11577148 C67.5358719,6.74540111 68,8.3618323 68,12.819426 L68,55.180574 C68,59.6381677 67.5358719,61.2545989 66.6643365,62.8842285 C65.792801,64.5138581 64.5138581,65.792801 62.8842285,66.6643365 C61.2545989,67.5358719 59.6381677,68 55.180574,68 L12.819426,68 C8.3618323,68 6.74540111,67.5358719 5.11577148,66.6643365 C3.48614185,65.792801 2.20719898,64.5138581 1.33566352,62.8842285 C0.464128056,61.2545989 1.25441118e-15,59.6381677 -2.15894838e-15,55.180574 L3.45280103e-16,12.819426 C-2.00617683e-16,8.3618323 0.464128056,6.74540111 1.33566352,5.11577148 C2.20719898,3.48614185 3.48614185,2.20719898 5.11577148,1.33566352 C6.74540111,0.464128056 8.3618323,1.35472002e-15 12.819426,-2.33158843e-15 Z" id="Rectangle" fill="#FFF2E7"></path>
            <path d="M18.2857143,12 C18.2750706,12.4485478 18.0131658,15.0675954 17.5,19.8571429 C16.7302513,27.041464 15.9952257,23.2739997 14.3431871,34.1302533 C13.2418281,41.3677557 12.4607657,48.6576713 12,56 L30.8571429,56 L32.4285714,48.1428571 L35.5714286,48.1428571 L37.1428571,56 L56,56 C55.1667697,46.2050506 54.3848028,38.9066929 53.6540993,34.1049267 C52.558044,26.9022774 50.9157922,23.7378704 50.5,19.8571429 C50.2228052,17.2699912 49.9609004,14.6509435 49.7142857,12 L18.2857143,12 Z" id="Path-28" stroke="#FF7F0F" stroke-linejoin="round"></path>
            <ellipse id="Oval" fill="#FFD3AD" cx="34" cy="30.5" rx="15" ry="8.5"></ellipse>
            <polygon id="Path-14" stroke="#FF7F0F" fill="#FF7F0F" stroke-linejoin="round" transform="translate(34.000000, 26.500000) scale(-1, 1) translate(-34.000000, -26.500000) " points="31 27.8636364 33.4511545 27.8636364 31.5703648 34 37 25.8356643 34.1865009 25.8356643 36.0463861 19 32.9984287 19"></polygon>
            <polyline id="Path-31" stroke="#FF7F0F" stroke-linecap="round" stroke-linejoin="round" points="40 28 41.625 24.8571429 46.4038584 22.5813506 48.125 18.5714286 53 17"></polyline>
            <polyline id="Path-31-Copy-2" stroke="#FF7F0F" stroke-linecap="round" stroke-linejoin="round" points="45 28 47.332858 25.1467779 52.3890674 24.0591641 55.0363504 20.3231236 60 20"></polyline>
            <g id="Group" transform="translate(18.000000, 24.000000) scale(-1, 1) translate(-18.000000, -24.000000) translate(8.000000, 17.000000)" stroke="#FF7F0F" stroke-linecap="round" stroke-linejoin="round">
                <polyline id="Path-31" points="0 11 1.5 7.85714286 5.91125389 5.5813506 7.5 1.57142857 12 0"></polyline>
                <polyline id="Path-31-Copy-2" transform="translate(12.307692, 7.000000) rotate(-345.000000) translate(-12.307692, -7.000000) " points="6.16422309 12.4233426 7.6952827 9.3187952 12.2168241 7.08021676 13.8366152 3.11824732 18.4511615 1.57665736"></polyline>
            </g>
        </g>
    </g>
</svg>