<?xml version="1.0" encoding="UTF-8"?>
<svg width="68px" height="68px" viewBox="0 0 68 68" version="1.1" xmlns="http://www.w3.org/2000/svg" xmlns:xlink="http://www.w3.org/1999/xlink">
    <title>mood/obsessiveThoughts/68x68</title>
    <g id="Page-1" stroke="none" stroke-width="1" fill="none" fill-rule="evenodd">
        <g id="mood/obsessiveThoughts/68x68" fill="#FFF2E7">
            <path d="M12.819426,-2.33158843e-15 L55.180574,5.17920154e-16 C59.6381677,-3.00926524e-16 61.2545989,0.464128056 62.8842285,1.33566352 C64.5138581,2.20719898 65.792801,3.48614185 66.6643365,5.11577148 C67.5358719,6.74540111 68,8.3618323 68,12.819426 L68,55.180574 C68,59.6381677 67.5358719,61.2545989 66.6643365,62.8842285 C65.792801,64.5138581 64.5138581,65.792801 62.8842285,66.6643365 C61.2545989,67.5358719 59.6381677,68 55.180574,68 L12.819426,68 C8.3618323,68 6.74540111,67.5358719 5.11577148,66.6643365 C3.48614185,65.792801 2.20719898,64.5138581 1.33566352,62.8842285 C0.464128056,61.2545989 1.25441118e-15,59.6381677 -2.15894838e-15,55.180574 L3.45280103e-16,12.819426 C-2.00617683e-16,8.3618323 0.464128056,6.74540111 1.33566352,5.11577148 C2.20719898,3.48614185 3.48614185,2.20719898 5.11577148,1.33566352 C6.74540111,0.464128056 8.3618323,1.35472002e-15 12.819426,-2.33158843e-15 Z" id="Rectangle"></path>
            <path d="M34,57 C44.6775052,57 52,47.1830654 52,36.6896552 C52,26.1962449 44.6775052,19 34,19 C30.1009222,19 26.6492259,19.9595998 23.8381043,21.6889373 C22.6963341,22.3913282 27.7391304,24.32 25.3913043,29.64 C23.0434783,34.96 16.7582602,30.9887439 16.4995472,32.1207934 C16.1712455,33.5573428 16,35.0849449 16,36.6896552 C16,47.1830654 23.3224948,57 34,57 Z" id="Oval" stroke="#FF7F0F"></path>
            <circle id="Oval" stroke="#FF7F0F" cx="32" cy="20" r="4"></circle>
            <circle id="Oval" stroke="#FF7F0F" cx="48.5" cy="27.5" r="8.5"></circle>
            <circle id="Oval-Copy-2" stroke="#FF7F0F" cx="44.5" cy="14.5" r="1.5"></circle>
            <circle id="Oval-Copy-3" stroke="#FF7F0F" cx="27.5" cy="9.5" r="2.5"></circle>
            <circle id="Oval-Copy-4" stroke="#FF7F0F" cx="52.5" cy="16.5" r="1.5"></circle>
            <circle id="Oval" stroke="#FF7F0F" cx="15" cy="31" r="4"></circle>
            <circle id="Oval" stroke="#FF7F0F" cx="29.5" cy="28.5" r="1.5"></circle>
            <circle id="Oval-Copy" stroke="#FF7F0F" cx="14.5" cy="17.5" r="5.5"></circle>
        </g>
    </g>
</svg>