<?xml version="1.0" encoding="UTF-8"?>
<svg width="44px" height="44px" viewBox="0 0 44 44" version="1.1" xmlns="http://www.w3.org/2000/svg" xmlns:xlink="http://www.w3.org/1999/xlink">
    <title>mood/relaxed/44x44</title>
    <g id="Page-1" stroke="none" stroke-width="1" fill="none" fill-rule="evenodd">
        <g id="mood/relaxed/44x44">
            <path d="M12.819426,-5.17920154e-16 L31.180574,5.17920154e-16 C35.6381677,-3.00926524e-16 37.2545989,0.464128056 38.8842285,1.33566352 C40.5138581,2.20719898 41.792801,3.48614185 42.6643365,5.11577148 C43.5358719,6.74540111 44,8.3618323 44,12.819426 L44,31.180574 C44,35.6381677 43.5358719,37.2545989 42.6643365,38.8842285 C41.792801,40.5138581 40.5138581,41.792801 38.8842285,42.6643365 C37.2545989,43.5358719 35.6381677,44 31.180574,44 L12.819426,44 C8.3618323,44 6.74540111,43.5358719 5.11577148,42.6643365 C3.48614185,41.792801 2.20719898,40.5138581 1.33566352,38.8842285 C0.464128056,37.2545989 2.00617683e-16,35.6381677 -3.45280103e-16,31.180574 L3.45280103e-16,12.819426 C-2.00617683e-16,8.3618323 0.464128056,6.74540111 1.33566352,5.11577148 C2.20719898,3.48614185 3.48614185,2.20719898 5.11577148,1.33566352 C6.74540111,0.464128056 8.3618323,3.00926524e-16 12.819426,-5.17920154e-16 Z" id="Rectangle" fill="#FFF2E7"></path>
            <path d="M22,38.5 C28.8217394,38.5 33.5,32.0414904 33.5,25.137931 C33.5,18.2343717 28.8217394,13.5 22,13.5 C15.1782606,13.5 10.5,18.2343717 10.5,25.137931 C10.5,32.0414904 15.1782606,38.5 22,38.5 Z" id="Oval" stroke="#FF7F0F"></path>
            <path d="M22,36.326087 C27.6353499,36.326087 31.5,30.0757121 31.5,25.2878561 C31.5,20.5 27.6353499,17 22,17 C16.3646501,17 12.5,20 12.5,25.2878561 C12.5,30.5757121 16.3646501,36.326087 22,36.326087 Z" id="Oval" fill="#FFD3AD"></path>
            <path d="M18.5,30.5 C19.6666667,31.1666667 20.8333333,31.5 22,31.5 C23.1666667,31.5 24.3333333,31.1666667 25.5,30.5" id="Line" stroke="#FFF2E7" stroke-width="5" stroke-linecap="round"></path>
            <path d="M18.5,30.5 C19.6666667,31.1666667 20.8333333,31.5 22,31.5 C23.1666667,31.5 24.3333333,31.1666667 25.5,30.5" id="Line" stroke="#FF7F0F" stroke-linecap="round"></path>
            <path d="M15.5,23.25 C16.1666667,23.9166667 16.8333333,24.25 17.5,24.25 C18.1666667,24.25 18.8333333,23.9166667 19.5,23.25" id="Line-Copy" stroke="#FFF2E7" stroke-width="5" stroke-linecap="round" transform="translate(17.500000, 23.750000) scale(1, -1) translate(-17.500000, -23.750000) "></path>
            <path d="M24.5,23.25 C25.1666667,23.9166667 25.8333333,24.25 26.5,24.25 C27.1666667,24.25 27.8333333,23.9166667 28.5,23.25" id="Line-Copy-2" stroke="#FFF2E7" stroke-width="5" stroke-linecap="round" transform="translate(26.500000, 23.750000) scale(1, -1) translate(-26.500000, -23.750000) "></path>
            <path d="M15.5,23.25 C16.1666667,23.9166667 16.8333333,24.25 17.5,24.25 C18.1666667,24.25 18.8333333,23.9166667 19.5,23.25" id="Line-Copy" stroke="#FF7F0F" stroke-linecap="round" transform="translate(17.500000, 23.750000) scale(1, -1) translate(-17.500000, -23.750000) "></path>
            <path d="M24.5,23.25 C25.1666667,23.9166667 25.8333333,24.25 26.5,24.25 C27.1666667,24.25 27.8333333,23.9166667 28.5,23.25" id="Line-Copy-2" stroke="#FF7F0F" stroke-linecap="round" transform="translate(26.500000, 23.750000) scale(1, -1) translate(-26.500000, -23.750000) "></path>
            <path d="M27,8.5 C30,9.5 32,11 33.5,13.5 C34.1983582,14.6639303 35.5,20 33.5,23 C31.1666667,16.6666667 25.6666667,14 17,15 C21.1191876,9.81750699 24.452521,7.65084032 27,8.5 Z" id="Path-4" stroke="#FF7F0F" fill="#FFF2E7" stroke-linejoin="round"></path>
            <path d="M9.5,22.5 C10.131311,23.9993636 13.5,11 27,13 C29.5,6.5 28.5,3.5 21,3.5 C18,3.5 14.5,3.5 13.5,7 C12.7732125,9.54375633 13.6065458,10.0437563 16,8.5 C9,11.5 6.83333333,16.1666667 9.5,22.5 Z" id="Path-3" stroke="#FF7F0F" fill="#FFF2E7" stroke-linejoin="round"></path>
        </g>
    </g>
</svg>