<?xml version="1.0" encoding="UTF-8"?>
<svg width="44px" height="44px" viewBox="0 0 44 44" version="1.1" xmlns="http://www.w3.org/2000/svg" xmlns:xlink="http://www.w3.org/1999/xlink">
    <title>mood/obsessiveThoughts/44x44</title>
    <g id="Page-1" stroke="none" stroke-width="1" fill="none" fill-rule="evenodd">
        <g id="Group" fill="#FFF2E7">
            <path d="M12.819426,-5.17920154e-16 L31.180574,5.17920154e-16 C35.6381677,-3.00926524e-16 37.2545989,0.464128056 38.8842285,1.33566352 C40.5138581,2.20719898 41.792801,3.48614185 42.6643365,5.11577148 C43.5358719,6.74540111 44,8.3618323 44,12.819426 L44,31.180574 C44,35.6381677 43.5358719,37.2545989 42.6643365,38.8842285 C41.792801,40.5138581 40.5138581,41.792801 38.8842285,42.6643365 C37.2545989,43.5358719 35.6381677,44 31.180574,44 L12.819426,44 C8.3618323,44 6.74540111,43.5358719 5.11577148,42.6643365 C3.48614185,41.792801 2.20719898,40.5138581 1.33566352,38.8842285 C0.464128056,37.2545989 2.00617683e-16,35.6381677 -3.45280103e-16,31.180574 L3.45280103e-16,12.819426 C-2.00617683e-16,8.3618323 0.464128056,6.74540111 1.33566352,5.11577148 C2.20719898,3.48614185 3.48614185,2.20719898 5.11577148,1.33566352 C6.74540111,0.464128056 8.3618323,3.00926524e-16 12.819426,-5.17920154e-16 Z" id="Rectangle"></path>
            <path d="M22,36.5 C28.8217394,36.5 33.5,30.0414904 33.5,23.137931 C33.5,16.2343717 28.8217394,11.5 22,11.5 C19.5089225,11.5 17.3036721,12.1313157 15.5076778,13.2690377 C14.7782134,13.731137 18,15 16.5,18.5 C15,22 10.984444,19.3873315 10.8191552,20.1321009 C10.6094068,21.0771992 10.5,22.0822006 10.5,23.137931 C10.5,30.0414904 15.1782606,36.5 22,36.5 Z" id="Oval" stroke="#FF7F0F"></path>
            <circle id="Oval" stroke="#FF7F0F" cx="20.5" cy="12.5" r="2.5"></circle>
            <circle id="Oval" stroke="#FF7F0F" cx="31.5" cy="17.5" r="5.5"></circle>
            <circle id="Oval-Copy-2" stroke="#FF7F0F" cx="29" cy="9" r="1"></circle>
            <circle id="Oval-Copy-3" stroke="#FF7F0F" cx="17" cy="5" r="1"></circle>
            <circle id="Oval-Copy-4" stroke="#FF7F0F" cx="34" cy="10" r="1"></circle>
            <circle id="Oval" stroke="#FF7F0F" cx="9.5" cy="19.5" r="2.5"></circle>
            <circle id="Oval" stroke="#FF7F0F" cx="19" cy="18" r="1"></circle>
            <circle id="Oval-Copy" stroke="#FF7F0F" cx="9.5" cy="10.5" r="3.5"></circle>
        </g>
    </g>
</svg>