<?xml version="1.0" encoding="UTF-8"?>
<svg width="68px" height="68px" viewBox="0 0 68 68" version="1.1" xmlns="http://www.w3.org/2000/svg" xmlns:xlink="http://www.w3.org/1999/xlink">
    <title>symptom/lowerBackpain/68x68</title>
    <g id="Page-1" stroke="none" stroke-width="1" fill="none" fill-rule="evenodd">
        <g id="symptom/lowerBackpain/68x68">
            <path d="M12.819426,-2.33158843e-15 L55.180574,5.17920154e-16 C59.6381677,-3.00926524e-16 61.2545989,0.464128056 62.8842285,1.33566352 C64.5138581,2.20719898 65.792801,3.48614185 66.6643365,5.11577148 C67.5358719,6.74540111 68,8.3618323 68,12.819426 L68,55.180574 C68,59.6381677 67.5358719,61.2545989 66.6643365,62.8842285 C65.792801,64.5138581 64.5138581,65.792801 62.8842285,66.6643365 C61.2545989,67.5358719 59.6381677,68 55.180574,68 L12.819426,68 C8.3618323,68 6.74540111,67.5358719 5.11577148,66.6643365 C3.48614185,65.792801 2.20719898,64.5138581 1.33566352,62.8842285 C0.464128056,61.2545989 1.25441118e-15,59.6381677 -2.15894838e-15,55.180574 L3.45280103e-16,12.819426 C-2.00617683e-16,8.3618323 0.464128056,6.74540111 1.33566352,5.11577148 C2.20719898,3.48614185 3.48614185,2.20719898 5.11577148,1.33566352 C6.74540111,0.464128056 8.3618323,1.35472002e-15 12.819426,-2.33158843e-15 Z" id="Rectangle" fill="#FDD5B4"></path>
            <path d="M39,58.2839461 C40.5427169,59.0540077 46.4489181,59.9056081 49.7990184,56.7438228 C53.1491187,53.5820374 54.7428767,50.0447108 53.6668475,42.9855493 C52.5908182,35.9263878 50.9785722,32.8250206 50.5703769,29.0216031 C50.2982467,26.4859914 50.5553662,19.8121237 51.3417353,9" id="Path-28" stroke="#FF7F0F" stroke-linecap="round" stroke-linejoin="round"></path>
            <path d="M14,58.2839461 C15.5427169,59.0540077 21.4489181,59.9056081 24.7990184,56.7438228 C28.1491187,53.5820374 29.7428767,50.0447108 28.6668475,42.9855493 C27.5908182,35.9263878 25.9785722,32.8250206 25.5703769,29.0216031 C25.2982467,26.4859914 25.5553662,19.8121237 26.3417353,9" id="Path-28" stroke="#FF7F0F" stroke-linecap="round" stroke-linejoin="round" transform="translate(21.500000, 34.000000) scale(-1, 1) translate(-21.500000, -34.000000) "></path>
            <ellipse id="Oval" fill="#FDB270" cx="34" cy="29.5" rx="12" ry="16.5"></ellipse>
            <polygon id="Path-14" stroke="#FF7F0F" fill="#FF7F0F" stroke-linejoin="round" transform="translate(34.000000, 29.500000) scale(-1, 1) translate(-34.000000, -29.500000) " points="31 30.8636364 33.4511545 30.8636364 31.5703648 37 37 28.8356643 34.1865009 28.8356643 36.0463861 22 32.9984287 22"></polygon>
        </g>
    </g>
</svg>