<?xml version="1.0" encoding="UTF-8"?>
<svg width="68px" height="68px" viewBox="0 0 68 68" version="1.1" xmlns="http://www.w3.org/2000/svg" xmlns:xlink="http://www.w3.org/1999/xlink">
    <title>mood/happy/68x68</title>
    <g id="Page-1" stroke="none" stroke-width="1" fill="none" fill-rule="evenodd">
        <g id="mood/happy/68x68" transform="translate(0.000000, 0.000000)">
            <path d="M12.819426,-2.33158843e-15 L55.180574,5.17920154e-16 C59.6381677,-3.00926524e-16 61.2545989,0.464128056 62.8842285,1.33566352 C64.5138581,2.20719898 65.792801,3.48614185 66.6643365,5.11577148 C67.5358719,6.74540111 68,8.3618323 68,12.819426 L68,55.180574 C68,59.6381677 67.5358719,61.2545989 66.6643365,62.8842285 C65.792801,64.5138581 64.5138581,65.792801 62.8842285,66.6643365 C61.2545989,67.5358719 59.6381677,68 55.180574,68 L12.819426,68 C8.3618323,68 6.74540111,67.5358719 5.11577148,66.6643365 C3.48614185,65.792801 2.20719898,64.5138581 1.33566352,62.8842285 C0.464128056,61.2545989 1.25441118e-15,59.6381677 -2.15894838e-15,55.180574 L3.45280103e-16,12.819426 C-2.00617683e-16,8.3618323 0.464128056,6.74540111 1.33566352,5.11577148 C2.20719898,3.48614185 3.48614185,2.20719898 5.11577148,1.33566352 C6.74540111,0.464128056 8.3618323,1.35472002e-15 12.819426,-2.33158843e-15 Z" id="Rectangle" fill="#FDD5B4"></path>
            <path d="M25.5808337,48.0121665 C21.6052707,45.7173331 15.2443698,41.1276665 15.2443698,28.8885554 C15.2443698,12.0597778 29.2293244,9.5 34,9.5 C43.5413512,9.5 53.5,13.2011112 53.5,28.5 C53.5,43.7988888 50,48 49,53.5" id="Path-22" stroke="#FF7F0F" fill="#FDD5B4" stroke-linecap="round" stroke-linejoin="round"></path>
            <path d="M34,51 C41.8571429,51 49,42.34 49,35.5 C49,23.34 45.7857143,14 34,14 C22.2142857,14 18.7857143,22.36 18.7857143,35.28 C18.7857143,40.6 26.1428571,51 34,51 Z" id="Oval" stroke="#FF7F0F" fill="#FDD5B4"></path>
            <g id="Group" transform="translate(20.000000, 26.000000)">
                <ellipse id="Oval" fill="#FF7F0F" cx="6.42857143" cy="3.96" rx="3.92857143" ry="3.8"></ellipse>
                <path d="M6.42857143,8.52 C8.59826152,8.52 13.5,10.618682 13.5,8.52 C13.5,6.42131795 8.59826152,4.72 6.42857143,4.72 C4.25888134,4.72 0.142857143,6.42131795 0.142857143,8.52 C0.142857143,10.618682 4.25888134,8.52 6.42857143,8.52 Z" id="Oval-Copy-2" fill="#FDD5B4"></path>
                <rect id="Rectangle-Copy" fill="#FFFFFF" x="7" y="2" width="1" height="1"></rect>
            </g>
            <g id="Group-2" transform="translate(35.000000, 26.000000)">
                <ellipse id="Oval-Copy" fill="#FF7F0F" cx="6.22222222" cy="3.92857143" rx="3.88888889" ry="3.92857143"></ellipse>
                <path d="M6.22222222,8.64285714 C8.36999625,8.64285714 13.2222222,10.8125472 13.2222222,8.64285714 C13.2222222,6.47316705 8.36999625,4.71428571 6.22222222,4.71428571 C4.0744482,4.71428571 0,6.47316705 0,8.64285714 C0,10.8125472 4.0744482,8.64285714 6.22222222,8.64285714 Z" id="Oval-Copy-3" fill="#FDD5B4"></path>
                <rect id="Rectangle" fill="#FFFFFF" x="7" y="2" width="1" height="1"></rect>
            </g>
            <path d="M27,38.5 C29.625,41.8333333 31.9583333,43.5 34,43.5 C36.0416667,43.5 38.375,41.8333333 41,38.5 L27,38.5 Z" id="Line" stroke="#FF7F0F" stroke-linecap="round"></path>
            <path d="M22.5,19 C27.4481481,17.6666667 31.1148148,17 33.5,17 C35.8851852,17 39.7185185,17.6666667 45,19" id="Line-3" stroke="#FF7F0F" stroke-linecap="round" stroke-linejoin="round"></path>
        </g>
    </g>
</svg>