<?xml version="1.0" encoding="UTF-8"?>
<svg width="68px" height="68px" viewBox="0 0 68 68" version="1.1" xmlns="http://www.w3.org/2000/svg" xmlns:xlink="http://www.w3.org/1999/xlink">
    <title>mood/irritable/68x68</title>
    <g id="Page-1" stroke="none" stroke-width="1" fill="none" fill-rule="evenodd">
        <g id="mood/irritable/68x68">
            <path d="M12.819426,-2.33158843e-15 L55.180574,5.17920154e-16 C59.6381677,-3.00926524e-16 61.2545989,0.464128056 62.8842285,1.33566352 C64.5138581,2.20719898 65.792801,3.48614185 66.6643365,5.11577148 C67.5358719,6.74540111 68,8.3618323 68,12.819426 L68,55.180574 C68,59.6381677 67.5358719,61.2545989 66.6643365,62.8842285 C65.792801,64.5138581 64.5138581,65.792801 62.8842285,66.6643365 C61.2545989,67.5358719 59.6381677,68 55.180574,68 L12.819426,68 C8.3618323,68 6.74540111,67.5358719 5.11577148,66.6643365 C3.48614185,65.792801 2.20719898,64.5138581 1.33566352,62.8842285 C0.464128056,61.2545989 1.25441118e-15,59.6381677 -2.15894838e-15,55.180574 L3.45280103e-16,12.819426 C-2.00617683e-16,8.3618323 0.464128056,6.74540111 1.33566352,5.11577148 C2.20719898,3.48614185 3.48614185,2.20719898 5.11577148,1.33566352 C6.74540111,0.464128056 8.3618323,1.35472002e-15 12.819426,-2.33158843e-15 Z" id="Rectangle" fill="#FFF2E7"></path>
            <path d="M51.4686351,32 C54.70282,39.4594313 55.7154944,44.5260979 54.5066585,47.2 C53.2978226,49.8739021 46.4622698,51.4739021 34,52 L51.4686351,32 Z" id="Path-24" stroke="#FF7F0F"></path>
            <path d="M30.3004748,32 C33.6886685,39.4594313 34.7495656,44.5260979 33.4831661,47.2 C32.2167666,49.8739021 25.0557112,51.4739021 12,52 L30.3004748,32 Z" id="Path-24" stroke="#FF7F0F" transform="translate(23.000000, 42.000000) scale(-1, 1) translate(-23.000000, -42.000000) "></path>
            <path d="M34,53 C44.6775052,53 52,43.1830654 52,32.6896552 C52,22.1962449 44.6775052,15 34,15 C23.3224948,15 16,22.1962449 16,32.6896552 C16,43.1830654 23.3224948,53 34,53 Z" id="Oval" stroke="#FF7F0F" fill="#FFF2E7"></path>
            <polygon id="Rectangle" fill="#FFF2E7" points="20.2490375 17 28 24.3570226 23.4980749 27 17 20.3333333"></polygon>
            <path d="M49,33.2260088 C49,24.1940206 42.897921,18 34,18 C25.102079,18 19,24.1940206 19,33.2260088 C19,42.2579971 49,42.2579971 49,33.2260088 Z" id="Oval" fill="#FFD3AD"></path>
            <path d="M23,18.3967391 C23,18.3967391 36.1142857,25 50,25 C40.7428571,7.39130435 23,18.3967391 23,18.3967391 Z" id="Path-23" stroke="#FF7F0F" fill="#FFF2E7"></path>
            <g id="Group" transform="translate(22.000000, 24.000000)">
                <circle id="Oval" fill="#FF7F0F" cx="5" cy="11" r="4"></circle>
                <path d="M6.68471052,8.70996634 C8.47873353,8.68469841 12.5010869,10.8060699 12.5317693,8.6276134 C12.5624518,6.44915689 8.53428909,4.74025397 6.74026608,4.7655219 C4.94624307,4.79078983 1.51800739,6.60471244 1.4873249,8.78316896 C1.45664241,10.9616255 4.89068751,8.73523427 6.68471052,8.70996634 Z" id="Oval-Copy-2" fill="#FFD3AD" transform="translate(7.009532, 7.251725) scale(1, -1) rotate(-45.000000) translate(-7.009532, -7.251725) "></path>
            </g>
            <g id="Group-Copy" transform="translate(39.000000, 32.000000) scale(-1, 1) translate(-39.000000, -32.000000) translate(32.000000, 24.000000)">
                <circle id="Oval" fill="#FF7F0F" cx="5" cy="11" r="4"></circle>
                <path d="M6.68471052,8.70996634 C8.47873353,8.68469841 12.5010869,10.8060699 12.5317693,8.6276134 C12.5624518,6.44915689 8.53428909,4.74025397 6.74026608,4.7655219 C4.94624307,4.79078983 1.51800739,6.60471244 1.4873249,8.78316896 C1.45664241,10.9616255 4.89068751,8.73523427 6.68471052,8.70996634 Z" id="Oval-Copy-2" fill="#FFD3AD" transform="translate(7.009532, 7.251725) scale(1, -1) rotate(-45.000000) translate(-7.009532, -7.251725) "></path>
            </g>
            <path d="M21.5276147,17.5276147 L25.8577792,21.8577792 C26.2833144,22.2833144 26.4804186,22.6116938 26.5876293,22.965412 C26.69484,23.3191302 26.69484,23.6808698 26.5876293,24.034588 C26.4804186,24.3883062 26.2833144,24.7166856 25.8577792,25.1422208 L25.460569,25.539431 C24.6795204,26.3204796 23.4131904,26.3204796 22.6321418,25.539431 C22.6169402,25.5242294 22.6019846,25.5087836 22.587281,25.4930997 L17.9301845,20.5255302 C17.174724,19.7197056 17.2155521,18.454034 18.0213767,17.6985735 C18.0430327,17.678271 18.065138,17.6584532 18.0876762,17.6391347 L18.3597223,17.4059523 C18.7887003,17.0382568 19.1141563,16.8682885 19.4574081,16.7828728 C19.8006599,16.697457 20.1452604,16.7106913 20.4809501,16.8221817 C20.8166397,16.9336721 21.1281011,17.1281011 21.5276147,17.5276147 Z" id="Rectangle" fill="#FFF2E7"></path>
            <path d="M30,44 C31.0666667,45.3333333 32.1333333,46 33.2,46 C35.0489024,46 36.6489024,46 38,46" id="Line" stroke="#FF7F0F" stroke-linecap="round" transform="translate(34.000000, 45.000000) scale(1, -1) translate(-34.000000, -45.000000) "></path>
            <g id="Group-2" transform="translate(9.000000, 8.000000)" stroke="#FF7F0F" stroke-linecap="round">
                <path d="M10,14 C9.77470446,15.5770688 6.5,19 2.5,15.5 C-1.5,12 1.92952612,8.37787665 3.5,8.5" id="Path-16" fill="#FFF2E7" stroke-linejoin="round"></path>
                <path d="M3.5,8.5 C1.09786477,8.5 0.068576141,3.46081363 3.5,1.5 C7,-0.5 9.5,1 10,3" id="Path-17" stroke-linejoin="round"></path>
                <line x1="15" y1="19" x2="9" y2="13" id="Path-15" stroke-linejoin="round"></line>
                <path d="M10,3 C12.6666667,0.333333333 15.1666667,0.666666667 17.5,4 C19.8333333,7.33333333 18.7092732,9.66666667 14.1278195,11" id="Path-18" fill="#FFF2E7" stroke-linejoin="round"></path>
                <line x1="12" y1="9" x2="19" y2="16" id="Path-19"></line>
            </g>
        </g>
    </g>
</svg>