<?xml version="1.0" encoding="UTF-8"?>
<svg width="68px" height="68px" viewBox="0 0 68 68" version="1.1" xmlns="http://www.w3.org/2000/svg" xmlns:xlink="http://www.w3.org/1999/xlink">
    <title>symptom/sensetiveBreasts/68x68</title>
    <g id="Page-1" stroke="none" stroke-width="1" fill="none" fill-rule="evenodd">
        <g id="symptom/sensetiveBreasts/68x68">
            <path d="M12.819426,-2.33158843e-15 L55.180574,5.17920154e-16 C59.6381677,-3.00926524e-16 61.2545989,0.464128056 62.8842285,1.33566352 C64.5138581,2.20719898 65.792801,3.48614185 66.6643365,5.11577148 C67.5358719,6.74540111 68,8.3618323 68,12.819426 L68,55.180574 C68,59.6381677 67.5358719,61.2545989 66.6643365,62.8842285 C65.792801,64.5138581 64.5138581,65.792801 62.8842285,66.6643365 C61.2545989,67.5358719 59.6381677,68 55.180574,68 L12.819426,68 C8.3618323,68 6.74540111,67.5358719 5.11577148,66.6643365 C3.48614185,65.792801 2.20719898,64.5138581 1.33566352,62.8842285 C0.464128056,61.2545989 1.25441118e-15,59.6381677 -2.15894838e-15,55.180574 L3.45280103e-16,12.819426 C-2.00617683e-16,8.3618323 0.464128056,6.74540111 1.33566352,5.11577148 C2.20719898,3.48614185 3.48614185,2.20719898 5.11577148,1.33566352 C6.74540111,0.464128056 8.3618323,1.35472002e-15 12.819426,-2.33158843e-15 Z" id="Rectangle" fill="#FDD5B4"></path>
            <line x1="39.5" y1="49.8" x2="39.5" y2="56.2" id="Line" stroke="#FF7F0F" stroke-linecap="round" stroke-linejoin="round"></line>
            <path d="M35.5,24 C35.5,24 32.3333333,27.605199 26,34.8155969 C27.7595054,41.9250765 29.9261721,46.4865442 32.5,48.5 C36.3607418,51.5201837 42.4493353,32.3055051 35.5,24 Z" id="Path-32" fill="#FDB270"></path>
            <path d="M49,9 L26,34.9195402 C27.5333333,47.48659 33.9222222,52.1992337 45.1666667,49.0574713" id="Path-30" stroke="#FF7F0F" stroke-linecap="round" stroke-linejoin="round"></path>
            <polygon id="Path-14" stroke="#FF7F0F" fill="#FF7F0F" stroke-linejoin="round" points="21.4119698 24.5699002 19.4604383 25.6760005 24 30 15.6295816 25.5679387 17.8696004 24.298328 13 19.3754116 15.426687 18"></polygon>
            <polygon id="Path-14-Copy" stroke="#FF7F0F" fill="#FF7F0F" stroke-linejoin="round" points="17.0470267 33.4710008 16.4422861 35.5214973 23 35.4315935 13.5528571 38 14.2469942 35.6463866 7 35.5497478 7.75198187 33"></polygon>
            <polygon id="Path-14-Copy-2" stroke="#FF7F0F" fill="#FF7F0F" stroke-linejoin="round" points="17.5698402 43.0922542 18.1935686 45.3178447 24 42 17.0195173 49.0722361 16.3035855 46.5176453 9.77559278 50 9 47.2325266"></polygon>
        </g>
    </g>
</svg>