<?xml version="1.0" encoding="UTF-8"?>
<svg width="44px" height="44px" viewBox="0 0 44 44" version="1.1" xmlns="http://www.w3.org/2000/svg" xmlns:xlink="http://www.w3.org/1999/xlink">
    <title>mood/irritable/44x44</title>
    <g id="Page-1" stroke="none" stroke-width="1" fill="none" fill-rule="evenodd">
        <g id="mood/irritable/44x44">
            <path d="M12.819426,-5.17920154e-16 L31.180574,5.17920154e-16 C35.6381677,-3.00926524e-16 37.2545989,0.464128056 38.8842285,1.33566352 C40.5138581,2.20719898 41.792801,3.48614185 42.6643365,5.11577148 C43.5358719,6.74540111 44,8.3618323 44,12.819426 L44,31.180574 C44,35.6381677 43.5358719,37.2545989 42.6643365,38.8842285 C41.792801,40.5138581 40.5138581,41.792801 38.8842285,42.6643365 C37.2545989,43.5358719 35.6381677,44 31.180574,44 L12.819426,44 C8.3618323,44 6.74540111,43.5358719 5.11577148,42.6643365 C3.48614185,41.792801 2.20719898,40.5138581 1.33566352,38.8842285 C0.464128056,37.2545989 2.00617683e-16,35.6381677 -3.45280103e-16,31.180574 L3.45280103e-16,12.819426 C-2.00617683e-16,8.3618323 0.464128056,6.74540111 1.33566352,5.11577148 C2.20719898,3.48614185 3.48614185,2.20719898 5.11577148,1.33566352 C6.74540111,0.464128056 8.3618323,3.00926524e-16 12.819426,-5.17920154e-16 Z" id="Rectangle" fill="#FFF2E7"></path>
            <path d="M33.5,21 C35.6291375,25.6621445 36.2958042,28.8288112 35.5,30.5 C34.7041958,32.1711888 30.2041958,33.1711888 22,33.5 L33.5,21 Z" id="Path-24" stroke="#FF7F0F"></path>
            <path d="M19.5,21 C21.6291375,25.6621445 22.2958042,28.8288112 21.5,30.5 C20.7041958,32.1711888 16.2041958,33.1711888 8,33.5 L19.5,21 Z" id="Path-24" stroke="#FF7F0F" transform="translate(14.912389, 27.250000) scale(-1, 1) translate(-14.912389, -27.250000) "></path>
            <path d="M22,34.5 C28.8217394,34.5 33.5,28.0414904 33.5,21.137931 C33.5,14.2343717 28.8217394,9.5 22,9.5 C15.1782606,9.5 10.5,14.2343717 10.5,21.137931 C10.5,28.0414904 15.1782606,34.5 22,34.5 Z" id="Oval" stroke="#FF7F0F" fill="#FFF2E7"></path>
            <polygon id="Rectangle" fill="#FFF2E7" transform="translate(14.409010, 14.719670) rotate(-315.000000) translate(-14.409010, -14.719670) " points="10.9644661 13.3535534 17.8535534 13.0857864 16.9644661 16.3535534 10.9644661 16.3535534"></polygon>
            <path d="M31.5,21.2878561 C31.5,15.5849157 27.6353499,11.673913 22,11.673913 C16.3646501,11.673913 12.5,15.5849157 12.5,21.2878561 C12.5,26.9907964 31.5,26.9907964 31.5,21.2878561 Z" id="Oval" fill="#FFD3AD"></path>
            <path d="M15,12 C15,12 23.5,16.5 32.5,16.5 C26.5,4.5 15,12 15,12 Z" id="Path-23" stroke="#FF7F0F" fill="#FFF2E7"></path>
            <g id="Group" transform="translate(13.974444, 15.805886)">
                <circle id="Oval" fill="#FF7F0F" cx="3.52555563" cy="6.69411428" r="2.5"></circle>
                <path d="M4.29411765,5.5 C5.43117448,5.5 8,6.88071187 8,5.5 C8,4.11928813 5.43117448,3 4.29411765,3 C3.15706081,3 1,4.11928813 1,5.5 C1,6.88071187 3.15706081,5.5 4.29411765,5.5 Z" id="Oval-Copy-2" fill="#FFD3AD" transform="translate(4.500000, 4.556825) scale(1, -1) rotate(-45.000000) translate(-4.500000, -4.556825) "></path>
            </g>
            <g id="Group-Copy" transform="translate(25.474444, 20.805886) scale(-1, 1) translate(-25.474444, -20.805886) translate(20.974444, 15.805886)">
                <circle id="Oval" fill="#FF7F0F" cx="3.52555563" cy="6.69411428" r="2.5"></circle>
                <path d="M4.29411765,5.5 C5.43117448,5.5 8,6.88071187 8,5.5 C8,4.11928813 5.43117448,3 4.29411765,3 C3.15706081,3 1,4.11928813 1,5.5 C1,6.88071187 3.15706081,5.5 4.29411765,5.5 Z" id="Oval-Copy-2" fill="#FFD3AD" transform="translate(4.500000, 4.556825) scale(1, -1) rotate(-45.000000) translate(-4.500000, -4.556825) "></path>
            </g>
            <path d="M12.0669873,12.75 L16.0669873,12.75 C16.8954144,12.75 17.5669873,13.4215729 17.5669873,14.25 C17.5669873,15.0784271 16.8954144,15.75 16.0669873,15.75 L12.0669873,15.75 C11.2385602,15.75 10.5669873,15.0784271 10.5669873,14.25 C10.5669873,13.4215729 11.2385602,12.75 12.0669873,12.75 Z" id="Rectangle" fill="#FFF2E7" transform="translate(14.066987, 14.250000) rotate(-315.000000) translate(-14.066987, -14.250000) "></path>
            <path d="M19.5,28.5 C20.1666667,29.1666667 20.8333333,29.5 21.5,29.5 C22.655564,29.5 23.655564,29.5 24.5,29.5" id="Line" stroke="#FF7F0F" stroke-linecap="round" transform="translate(22.000000, 29.000000) scale(1, -1) translate(-22.000000, -29.000000) "></path>
            <g id="Group-2" transform="translate(6.500000, 5.764978)" stroke="#FF7F0F" stroke-linecap="round">
                <path d="M5.5,8.73502168 C4.16666667,11.068355 2.61857027,11.3555449 0.855710816,9.59659127 C-1.78857837,6.95816086 2.50188335,3.86760209 3.94228433,5.35289558" id="Path-16" fill="#FFF2E7" stroke-linejoin="round"></path>
                <path d="M1.5,5.23502168 C-7.99915689e-14,5.23502168 -0.5,2.23502168 1.5,0.73502168 C3.47900095,-0.749229029 6.5,0.23502168 6.5,1.73502168" id="Path-17"></path>
                <line x1="8.5" y1="11.7350217" x2="5" y2="7.93814668" id="Path-15" stroke-linejoin="round"></line>
                <path d="M6,2.32276207 C7.66666667,0.264268475 9.16666667,0.23502168 10.5,2.23502168 C11.8333333,4.23502168 11,5.73502168 8,6.73502168" id="Path-18" fill="#FFF2E7" stroke-linejoin="round"></path>
                <line x1="7" y1="5.73502168" x2="11.5" y2="10.2350217" id="Path-19"></line>
            </g>
        </g>
    </g>
</svg>