<?xml version="1.0" encoding="UTF-8"?>
<svg width="44px" height="44px" viewBox="0 0 44 44" version="1.1" xmlns="http://www.w3.org/2000/svg" xmlns:xlink="http://www.w3.org/1999/xlink">
    <title>bleeding/heavy/44x44</title>
    <g id="Page-1" stroke="none" stroke-width="1" fill="none" fill-rule="evenodd">
        <g id="bleeding/heavy/44x44">
            <path d="M12.819426,-5.17920154e-16 L31.180574,5.17920154e-16 C35.6381677,-3.00926524e-16 37.2545989,0.464128056 38.8842285,1.33566352 C40.5138581,2.20719898 41.792801,3.48614185 42.6643365,5.11577148 C43.5358719,6.74540111 44,8.3618323 44,12.819426 L44,31.180574 C44,35.6381677 43.5358719,37.2545989 42.6643365,38.8842285 C41.792801,40.5138581 40.5138581,41.792801 38.8842285,42.6643365 C37.2545989,43.5358719 35.6381677,44 31.180574,44 L12.819426,44 C8.3618323,44 6.74540111,43.5358719 5.11577148,42.6643365 C3.48614185,41.792801 2.20719898,40.5138581 1.33566352,38.8842285 C0.464128056,37.2545989 2.00617683e-16,35.6381677 -3.45280103e-16,31.180574 L3.45280103e-16,12.819426 C-2.00617683e-16,8.3618323 0.464128056,6.74540111 1.33566352,5.11577148 C2.20719898,3.48614185 3.48614185,2.20719898 5.11577148,1.33566352 C6.74540111,0.464128056 8.3618323,3.00926524e-16 12.819426,-5.17920154e-16 Z" id="Rectangle" fill="#FFF2E7"></path>
            <path d="M15,26 C15,30 17,34 22,34 C27,34 29,30 29,26 C29,23.3333333 26.8333333,18 22.5,10 C21.8333333,10 21.5,10 21.5,10 C21.5,10 15,22 15,26 Z" id="Path" fill="#FF7F0F"></path>
        </g>
    </g>
</svg>