<?xml version="1.0" encoding="UTF-8"?>
<svg width="68px" height="68px" viewBox="0 0 68 68" version="1.1" xmlns="http://www.w3.org/2000/svg" xmlns:xlink="http://www.w3.org/1999/xlink">
    <title>symptom/ravenousAppetite/68x68</title>
    <g id="Page-1" stroke="none" stroke-width="1" fill="none" fill-rule="evenodd">
        <g id="symptom/ravenousAppetite/68x68">
            <path d="M12.819426,-2.33158843e-15 L55.180574,5.17920154e-16 C59.6381677,-3.00926524e-16 61.2545989,0.464128056 62.8842285,1.33566352 C64.5138581,2.20719898 65.792801,3.48614185 66.6643365,5.11577148 C67.5358719,6.74540111 68,8.3618323 68,12.819426 L68,55.180574 C68,59.6381677 67.5358719,61.2545989 66.6643365,62.8842285 C65.792801,64.5138581 64.5138581,65.792801 62.8842285,66.6643365 C61.2545989,67.5358719 59.6381677,68 55.180574,68 L12.819426,68 C8.3618323,68 6.74540111,67.5358719 5.11577148,66.6643365 C3.48614185,65.792801 2.20719898,64.5138581 1.33566352,62.8842285 C0.464128056,61.2545989 1.25441118e-15,59.6381677 -2.15894838e-15,55.180574 L3.45280103e-16,12.819426 C-2.00617683e-16,8.3618323 0.464128056,6.74540111 1.33566352,5.11577148 C2.20719898,3.48614185 3.48614185,2.20719898 5.11577148,1.33566352 C6.74540111,0.464128056 8.3618323,1.35472002e-15 12.819426,-2.33158843e-15 Z" id="Rectangle" fill="#FFF2E7"></path>
            <path d="M30.1290323,9 L10,56.46875 L20.0645161,51.875 C20.0645161,55.9583333 20.8387097,58 22.3870968,58 C23.9354839,58 24.7096774,55.4479167 24.7096774,50.34375 L58,35.03125 C54.275727,29.0574399 50.1466948,23.9532732 45.6129032,19.71875 C41.0791117,15.4842268 35.9178214,11.9113101 30.1290323,9 Z" id="Path-35" stroke="#FF7F0F" stroke-linecap="round" stroke-linejoin="round"></path>
            <path d="M27,15.6809523 C29.9366707,14.5662877 32.3003071,14.8200859 34.0909091,16.4423468 C36.7768121,18.8757382 34.2037955,20.3857734 37.6382642,23.0824775 C41.0727329,25.7791816 43.5454545,24.0562924 46.6969697,28.6246598 C48.7979798,31.6702381 50.8989899,34.4620181 53,37" id="Path-36" stroke="#FF7F0F"></path>
            <circle id="Oval" stroke="#FF7F0F" cx="30" cy="32" r="4"></circle>
            <circle id="Oval-Copy" stroke="#FF7F0F" cx="41" cy="35" r="4"></circle>
            <circle id="Oval-Copy-2" stroke="#FF7F0F" cx="22.5" cy="42.5" r="2.5"></circle>
        </g>
    </g>
</svg>