<?xml version="1.0" encoding="UTF-8"?>
<svg width="44px" height="44px" viewBox="0 0 44 44" version="1.1" xmlns="http://www.w3.org/2000/svg" xmlns:xlink="http://www.w3.org/1999/xlink">
    <title>mood/distracted/44x44</title>
    <g id="Page-1" stroke="none" stroke-width="1" fill="none" fill-rule="evenodd">
        <g id="mood/distracted/44x44">
            <path d="M12.819426,-5.17920154e-16 L31.180574,5.17920154e-16 C35.6381677,-3.00926524e-16 37.2545989,0.464128056 38.8842285,1.33566352 C40.5138581,2.20719898 41.792801,3.48614185 42.6643365,5.11577148 C43.5358719,6.74540111 44,8.3618323 44,12.819426 L44,31.180574 C44,35.6381677 43.5358719,37.2545989 42.6643365,38.8842285 C41.792801,40.5138581 40.5138581,41.792801 38.8842285,42.6643365 C37.2545989,43.5358719 35.6381677,44 31.180574,44 L12.819426,44 C8.3618323,44 6.74540111,43.5358719 5.11577148,42.6643365 C3.48614185,41.792801 2.20719898,40.5138581 1.33566352,38.8842285 C0.464128056,37.2545989 2.00617683e-16,35.6381677 -3.45280103e-16,31.180574 L3.45280103e-16,12.819426 C-2.00617683e-16,8.3618323 0.464128056,6.74540111 1.33566352,5.11577148 C2.20719898,3.48614185 3.48614185,2.20719898 5.11577148,1.33566352 C6.74540111,0.464128056 8.3618323,3.00926524e-16 12.819426,-5.17920154e-16 Z" id="Rectangle" fill="#FDD5B4"></path>
            <circle id="Oval" stroke="#FF7F0F" cx="22" cy="11" r="5"></circle>
            <path d="M22,34.5 C28.8217394,34.5 33.5,28.0414904 33.5,21.137931 C33.5,14.2343717 28.8217394,9.5 22,9.5 C15.1782606,9.5 10.5,14.2343717 10.5,21.137931 C10.5,28.0414904 15.1782606,34.5 22,34.5 Z" id="Oval" stroke="#FF7F0F" fill="#FDD5B4"></path>
            <path d="M17.6172669,20.0061805 C18.3482872,19.9134344 17.6172669,18.0854644 16.4648373,19.2378941 C15.3124076,20.3903237 17.8076796,22.7806475 19.1538398,20.3903237 C20.5,18 17.5,16.5 16,17.5 C14.5,18.5 14,20 15.5,22 C17,24 20.5,22.4207161 20.5,20.5" id="Path-21" stroke="#FF7F0F" stroke-linecap="round" stroke-linejoin="round"></path>
            <path d="M26.6172669,20.0061805 C27.3482872,19.9134344 26.6172669,18.0854644 25.4648373,19.2378941 C24.3124076,20.3903237 26.8076796,22.7806475 28.1538398,20.3903237 C29.5,18 26.5,16.5 25,17.5 C23.5,18.5 23,20 24.5,22 C26,24 29.5,22.4207161 29.5,20.5" id="Path-21-Copy" stroke="#FF7F0F" stroke-linecap="round" stroke-linejoin="round"></path>
            <circle id="Oval" stroke="#FF7F0F" cx="25" cy="28" r="1"></circle>
            <path d="M14,12.5 C14.6666667,13.1666667 15.3333333,13.5 16,13.5 C16.6666667,13.5 17.3333333,13.1666667 18,12.5 C18.6666667,13.8333333 19.3333333,14.5 20,14.5 C20.6666667,14.5 21.3333333,13.8333333 22,12.5 C22.6666667,13.8333333 23.3333333,14.5 24,14.5 C24.6666667,14.5 25.3333333,13.8333333 26,12.5 C26.6666667,13.1666667 27.3333333,13.5 28,13.5 C28.6666667,13.5 29.3333333,13.1666667 30,12.5" id="Path-25" stroke="#FF7F0F"></path>
        </g>
    </g>
</svg>