<?xml version="1.0" encoding="UTF-8"?>
<svg width="44px" height="44px" viewBox="0 0 44 44" version="1.1" xmlns="http://www.w3.org/2000/svg" xmlns:xlink="http://www.w3.org/1999/xlink">
    <title>symptom/ravenousAppetite/44x44</title>
    <g id="Page-1" stroke="none" stroke-width="1" fill="none" fill-rule="evenodd">
        <g id="symptom/ravenousAppetite/44x44">
            <path d="M12.819426,-5.17920154e-16 L31.180574,5.17920154e-16 C35.6381677,-3.00926524e-16 37.2545989,0.464128056 38.8842285,1.33566352 C40.5138581,2.20719898 41.792801,3.48614185 42.6643365,5.11577148 C43.5358719,6.74540111 44,8.3618323 44,12.819426 L44,31.180574 C44,35.6381677 43.5358719,37.2545989 42.6643365,38.8842285 C41.792801,40.5138581 40.5138581,41.792801 38.8842285,42.6643365 C37.2545989,43.5358719 35.6381677,44 31.180574,44 L12.819426,44 C8.3618323,44 6.74540111,43.5358719 5.11577148,42.6643365 C3.48614185,41.792801 2.20719898,40.5138581 1.33566352,38.8842285 C0.464128056,37.2545989 2.00617683e-16,35.6381677 -3.45280103e-16,31.180574 L3.45280103e-16,12.819426 C-2.00617683e-16,8.3618323 0.464128056,6.74540111 1.33566352,5.11577148 C2.20719898,3.48614185 3.48614185,2.20719898 5.11577148,1.33566352 C6.74540111,0.464128056 8.3618323,3.00926524e-16 12.819426,-5.17920154e-16 Z" id="Rectangle" fill="#FDD5B4"></path>
            <path d="M19.5,5.5 L6.5,36.5 L13,33.5 C13,36.1666667 13.5,37.5 14.5,37.5 C15.5,37.5 16,35.8333333 16,32.5 L37.5,22.5 C35.0947404,18.5987363 32.4280737,15.2654029 29.5,12.5 C26.5719263,9.73459707 23.238593,7.40126373 19.5,5.5 Z" id="Path-35" stroke="#FF7F0F" stroke-linecap="round" stroke-linejoin="round"></path>
            <path d="M17.5,10 C19.3636564,9.26801123 20.8636564,9.4346779 22,10.5 C23.7045154,12.0979832 22.0716394,13.0896078 24.2512061,14.8605057 C26.4307728,16.6314037 28,15.5 30,18.5 C31.3333333,20.5 32.6666667,22.3333333 34,24" id="Path-36" stroke="#FF7F0F"></path>
            <circle id="Oval" stroke="#FF7F0F" cx="19.5" cy="20.5" r="2.5"></circle>
            <circle id="Oval-Copy" stroke="#FF7F0F" cx="26.5" cy="22.5" r="2.5"></circle>
            <circle id="Oval-Copy-2" stroke="#FF7F0F" cx="14.5" cy="27.5" r="1.5"></circle>
        </g>
    </g>
</svg>