<?xml version="1.0" encoding="UTF-8"?>
<svg width="44px" height="44px" viewBox="0 0 44 44" version="1.1" xmlns="http://www.w3.org/2000/svg" xmlns:xlink="http://www.w3.org/1999/xlink">
    <title>symptom/tiredness/44x44</title>
    <g id="Page-1" stroke="none" stroke-width="1" fill="none" fill-rule="evenodd">
        <g id="symptom/tiredness/44x44">
            <path d="M12.819426,-5.17920154e-16 L31.180574,5.17920154e-16 C35.6381677,-3.00926524e-16 37.2545989,0.464128056 38.8842285,1.33566352 C40.5138581,2.20719898 41.792801,3.48614185 42.6643365,5.11577148 C43.5358719,6.74540111 44,8.3618323 44,12.819426 L44,31.180574 C44,35.6381677 43.5358719,37.2545989 42.6643365,38.8842285 C41.792801,40.5138581 40.5138581,41.792801 38.8842285,42.6643365 C37.2545989,43.5358719 35.6381677,44 31.180574,44 L12.819426,44 C8.3618323,44 6.74540111,43.5358719 5.11577148,42.6643365 C3.48614185,41.792801 2.20719898,40.5138581 1.33566352,38.8842285 C0.464128056,37.2545989 2.00617683e-16,35.6381677 -3.45280103e-16,31.180574 L3.45280103e-16,12.819426 C-2.00617683e-16,8.3618323 0.464128056,6.74540111 1.33566352,5.11577148 C2.20719898,3.48614185 3.48614185,2.20719898 5.11577148,1.33566352 C6.74540111,0.464128056 8.3618323,3.00926524e-16 12.819426,-5.17920154e-16 Z" id="Rectangle" fill="#FDD5B4"></path>
            <path d="M12.4856604,11.9810127 C7.14087869,22.5265954 6.31718605,29.5511591 10.0145824,33.0547039 C15.5606771,38.3100211 28.7004913,38.2148004 34,33 C37.5330058,29.5234664 36.6765362,22.5171373 31.4305912,11.9810127 L12.4856604,11.9810127 Z" id="Path-33" stroke="#FF7F0F" stroke-linejoin="round"></path>
            <path d="M22,31.5 C28.8217394,31.5 33.5,25.0414904 33.5,18.137931 C33.5,11.2343717 28.8217394,6.5 22,6.5 C15.1782606,6.5 10.5,11.2343717 10.5,18.137931 C10.5,25.0414904 15.1782606,31.5 22,31.5 Z" id="Oval" stroke="#FF7F0F" fill="#FDD5B4"></path>
            <line x1="25.5" y1="14.5" x2="27.5" y2="14.5" id="Line" stroke="#FF7F0F" stroke-linecap="round" stroke-linejoin="round"></line>
            <line x1="16.5" y1="14.5" x2="18.5" y2="14.5" id="Line-Copy" stroke="#FF7F0F" stroke-linecap="round" stroke-linejoin="round"></line>
            <path d="M17.5,13.5 C17.5,13.5 17.8333333,13.8333333 18.5,14.5 C17.8333333,13.8333333 17.5,13.5 17.5,13.5 Z" id="Line-Copy-2" stroke="#FF7F0F" stroke-linecap="round" stroke-linejoin="round"></path>
            <path d="M25.5,13.5 C25.5,13.5 25.8333333,13.8333333 26.5,14.5 C25.8333333,13.8333333 25.5,13.5 25.5,13.5 Z" id="Line-Copy-3" stroke="#FF7F0F" stroke-linecap="round" stroke-linejoin="round" transform="translate(26.000000, 14.000000) scale(-1, 1) translate(-26.000000, -14.000000) "></path>
            <ellipse id="Oval" stroke="#FF7F0F" cx="22" cy="22" rx="5" ry="4"></ellipse>
            <path d="M15.5,8.5 C17.6666667,8.83333333 19.8333333,9 22,9 C24.1666667,9 26.3333333,8.83333333 28.5,8.5" id="Path-34" stroke="#FF7F0F" stroke-linecap="round" stroke-linejoin="round"></path>
        </g>
    </g>
</svg>