<?xml version="1.0" encoding="UTF-8"?>
<svg width="44px" height="44px" viewBox="0 0 44 44" version="1.1" xmlns="http://www.w3.org/2000/svg" xmlns:xlink="http://www.w3.org/1999/xlink">
    <title>mood/anxious/44x44</title>
    <g id="Page-1" stroke="none" stroke-width="1" fill="none" fill-rule="evenodd">
        <g id="mood/anxious/44x44">
            <path d="M12.819426,-5.17920154e-16 L31.180574,5.17920154e-16 C35.6381677,-3.00926524e-16 37.2545989,0.464128056 38.8842285,1.33566352 C40.5138581,2.20719898 41.792801,3.48614185 42.6643365,5.11577148 C43.5358719,6.74540111 44,8.3618323 44,12.819426 L44,31.180574 C44,35.6381677 43.5358719,37.2545989 42.6643365,38.8842285 C41.792801,40.5138581 40.5138581,41.792801 38.8842285,42.6643365 C37.2545989,43.5358719 35.6381677,44 31.180574,44 L12.819426,44 C8.3618323,44 6.74540111,43.5358719 5.11577148,42.6643365 C3.48614185,41.792801 2.20719898,40.5138581 1.33566352,38.8842285 C0.464128056,37.2545989 2.00617683e-16,35.6381677 -3.45280103e-16,31.180574 L3.45280103e-16,12.819426 C-2.00617683e-16,8.3618323 0.464128056,6.74540111 1.33566352,5.11577148 C2.20719898,3.48614185 3.48614185,2.20719898 5.11577148,1.33566352 C6.74540111,0.464128056 8.3618323,3.00926524e-16 12.819426,-5.17920154e-16 Z" id="Rectangle" fill="#FFF2E7"></path>
            <ellipse id="Oval" stroke="#FF7F0F" cx="22" cy="17.525" rx="13" ry="13.5"></ellipse>
            <path d="M22,35.5 C28.8217394,35.5 33.5,29.0414904 33.5,22.137931 C33.5,15.2343717 28.8217394,10.5 22,10.5 C15.1782606,10.5 10.5,15.2343717 10.5,22.137931 C10.5,29.0414904 15.1782606,35.5 22,35.5 Z" id="Oval" stroke="#FF7F0F" fill="#FFF2E7"></path>
            <g id="Group-3" transform="translate(15.000000, 19.000000)">
                <circle id="Oval" fill="#FF7F0F" cx="2.5" cy="2.5" r="2.5"></circle>
                <rect id="Rectangle-Copy" stroke="#FFFFFF" x="2" y="2" width="1" height="1"></rect>
            </g>
            <g id="Group-2" transform="translate(23.948889, 18.805886)">
                <g id="Group" fill="#FF7F0F">
                    <circle id="Oval" transform="translate(2.500000, 2.694114) scale(-1, 1) translate(-2.500000, -2.694114) " cx="2.5" cy="2.69411428" r="2.5"></circle>
                </g>
                <rect id="Rectangle-Copy-2" stroke="#FFFFFF" x="2.05111126" y="2.19411428" width="1" height="1"></rect>
            </g>
            <path d="M22,28.5 C23.6568542,28.5 26,28.8284271 26,28 C26,27.1715729 23.6568542,25.5 22,25.5 C20.3431458,25.5 18.5,27.1715729 18.5,28 C18.5,28.8284271 20.3431458,28.5 22,28.5 Z" id="Oval" stroke="#FF7F0F"></path>
            <path d="M15,16.5 C17.3333333,16.5 18.5,16.1666667 18.5,15.5" id="Line" stroke="#FF7F0F" stroke-linecap="round"></path>
            <path d="M26,16.5 C28.3333333,16.5 29.5,16.1666667 29.5,15.5" id="Line-Copy" stroke="#FF7F0F" stroke-linecap="round" transform="translate(27.750000, 16.000000) scale(-1, 1) translate(-27.750000, -16.000000) "></path>
        </g>
    </g>
</svg>