<?xml version="1.0" encoding="UTF-8"?>
<svg width="44px" height="44px" viewBox="0 0 44 44" version="1.1" xmlns="http://www.w3.org/2000/svg" xmlns:xlink="http://www.w3.org/1999/xlink">
    <title>symptom/acne/44x44</title>
    <g id="Page-1" stroke="none" stroke-width="1" fill="none" fill-rule="evenodd">
        <g id="symptom/acne/44x44">
            <path d="M12.819426,-5.17920154e-16 L31.180574,5.17920154e-16 C35.6381677,-3.00926524e-16 37.2545989,0.464128056 38.8842285,1.33566352 C40.5138581,2.20719898 41.792801,3.48614185 42.6643365,5.11577148 C43.5358719,6.74540111 44,8.3618323 44,12.819426 L44,31.180574 C44,35.6381677 43.5358719,37.2545989 42.6643365,38.8842285 C41.792801,40.5138581 40.5138581,41.792801 38.8842285,42.6643365 C37.2545989,43.5358719 35.6381677,44 31.180574,44 L12.819426,44 C8.3618323,44 6.74540111,43.5358719 5.11577148,42.6643365 C3.48614185,41.792801 2.20719898,40.5138581 1.33566352,38.8842285 C0.464128056,37.2545989 2.00617683e-16,35.6381677 -3.45280103e-16,31.180574 L3.45280103e-16,12.819426 C-2.00617683e-16,8.3618323 0.464128056,6.74540111 1.33566352,5.11577148 C2.20719898,3.48614185 3.48614185,2.20719898 5.11577148,1.33566352 C6.74540111,0.464128056 8.3618323,3.00926524e-16 12.819426,-5.17920154e-16 Z" id="Rectangle" fill="#FDD5B4"></path>
            <path d="M22,34.5 C28.8217394,34.5 33.5,28.0414904 33.5,21.137931 C33.5,14.2343717 28.8217394,9.5 22,9.5 C15.1782606,9.5 10.5,14.2343717 10.5,21.137931 C10.5,28.0414904 15.1782606,34.5 22,34.5 Z" id="Oval" stroke="#FF7F0F" fill="#FDD5B4"></path>
            <circle id="Oval" fill="#FF7F0F" cx="24" cy="16" r="1"></circle>
            <circle id="Oval-Copy-2" fill="#FF7F0F" cx="29" cy="21" r="1"></circle>
            <circle id="Oval-Copy-4" fill="#FF7F0F" cx="18" cy="28" r="1"></circle>
            <circle id="Oval-Copy" stroke="#FDB270" cx="24" cy="16" r="2"></circle>
            <circle id="Oval-Copy-3" stroke="#FDB270" cx="29" cy="21" r="2"></circle>
            <circle id="Oval-Copy-5" stroke="#FDB270" cx="18" cy="28" r="2"></circle>
        </g>
    </g>
</svg>