<?xml version="1.0" encoding="UTF-8"?>
<svg width="44px" height="44px" viewBox="0 0 44 44" version="1.1" xmlns="http://www.w3.org/2000/svg" xmlns:xlink="http://www.w3.org/1999/xlink">
    <title>symptom/nausea/44x44</title>
    <g id="Page-1" stroke="none" stroke-width="1" fill="none" fill-rule="evenodd">
        <g id="symptom/nausea/44x44">
            <path d="M12.819426,-5.17920154e-16 L31.180574,5.17920154e-16 C35.6381677,-3.00926524e-16 37.2545989,0.464128056 38.8842285,1.33566352 C40.5138581,2.20719898 41.792801,3.48614185 42.6643365,5.11577148 C43.5358719,6.74540111 44,8.3618323 44,12.819426 L44,31.180574 C44,35.6381677 43.5358719,37.2545989 42.6643365,38.8842285 C41.792801,40.5138581 40.5138581,41.792801 38.8842285,42.6643365 C37.2545989,43.5358719 35.6381677,44 31.180574,44 L12.819426,44 C8.3618323,44 6.74540111,43.5358719 5.11577148,42.6643365 C3.48614185,41.792801 2.20719898,40.5138581 1.33566352,38.8842285 C0.464128056,37.2545989 2.00617683e-16,35.6381677 -3.45280103e-16,31.180574 L3.45280103e-16,12.819426 C-2.00617683e-16,8.3618323 0.464128056,6.74540111 1.33566352,5.11577148 C2.20719898,3.48614185 3.48614185,2.20719898 5.11577148,1.33566352 C6.74540111,0.464128056 8.3618323,3.00926524e-16 12.819426,-5.17920154e-16 Z" id="Rectangle" fill="#FFF2E7"></path>
            <g id="Group" transform="translate(8.500000, 7.491008)">
                <path d="M13.5,29.0089916 C20.3217394,29.0089916 25,22.5504821 25,15.6469227 C25,8.74336331 20.3217394,4.00899165 13.5,4.00899165 C6.67826059,4.00899165 2,8.74336331 2,15.6469227 C2,22.5504821 6.67826059,29.0089916 13.5,29.0089916 Z" id="Oval" stroke="#FF7F0F" fill="#FFF2E7"></path>
                <ellipse id="Oval" fill="#FFD3AD" cx="20.5" cy="20.0089916" rx="3" ry="1.5"></ellipse>
                <ellipse id="Oval-Copy-3" fill="#FFD3AD" cx="6.5" cy="20.0089916" rx="3" ry="1.5"></ellipse>
                <circle id="Oval" fill="#FF7F0F" cx="9" cy="17.0089916" r="2.5"></circle>
                <path d="M7.76856202,15.8148774 C8.90561885,15.8148774 11.4744444,17.1955892 11.4744444,15.8148774 C11.4744444,14.4341655 8.90561885,13.3148774 7.76856202,13.3148774 C6.63150518,13.3148774 4.47444437,14.4341655 4.47444437,15.8148774 C4.47444437,17.1955892 6.63150518,15.8148774 7.76856202,15.8148774 Z" id="Oval-Copy-2" fill="#FFF2E7" transform="translate(7.974444, 14.871702) scale(1, -1) rotate(-345.000000) translate(-7.974444, -14.871702) "></path>
                <circle id="Oval" fill="#FF7F0F" transform="translate(17.948889, 17.008992) scale(-1, 1) translate(-17.948889, -17.008992) " cx="17.9488887" cy="17.0089916" r="2.5"></circle>
                <path d="M18.768562,15.8148774 C19.9056189,15.8148774 22.4744444,17.1955892 22.4744444,15.8148774 C22.4744444,14.4341655 19.9056189,13.3148774 18.768562,13.3148774 C17.6315052,13.3148774 15.4744444,14.4341655 15.4744444,15.8148774 C15.4744444,17.1955892 17.6315052,15.8148774 18.768562,15.8148774 Z" id="Oval-Copy-2" fill="#FFF2E7" transform="translate(18.974444, 14.871702) scale(-1, -1) rotate(-345.000000) translate(-18.974444, -14.871702) "></path>
                <path d="M16,11.5089916 C25.5,16.5089916 27,13.3227001 27,10.0089916 C27,7.69600178 23.5,0.508991649 14.5,0.00899164876 C10.9015654,-0.190921382 11,3.00899165 10,3.00899165 C9,3.00899165 9.5,1.50899165 7,2.00899165 C4.5,2.50899165 1.5,6.00899165 1,10.5089916 C0.5,15.0089916 6.5,6.50899165 16,11.5089916 Z" id="Oval" stroke="#FF7F0F" fill="#FFF2E7"></path>
            </g>
            <line x1="19.5" y1="30.5" x2="24" y2="30.5" id="Line-4" stroke="#FF7F0F" stroke-linecap="square"></line>
            <path d="M26.25,31.25 C26.25,30.4215729 25.5784271,29.75 24.75,29.75 C23.9215729,29.75 23.25,30.4215729 23.25,31.25" id="Oval" stroke="#FF7F0F" transform="translate(24.750000, 30.500000) rotate(-90.000000) translate(-24.750000, -30.500000) "></path>
            <path d="M20.25,31.25 C20.25,30.4215729 19.5784271,29.75 18.75,29.75 C17.9215729,29.75 17.25,30.4215729 17.25,31.25" id="Oval-Copy" stroke="#FF7F0F" transform="translate(18.750000, 30.500000) scale(-1, 1) rotate(-90.000000) translate(-18.750000, -30.500000) "></path>
        </g>
    </g>
</svg>