<?xml version="1.0" encoding="UTF-8"?>
<svg width="44px" height="44px" viewBox="0 0 44 44" version="1.1" xmlns="http://www.w3.org/2000/svg" xmlns:xlink="http://www.w3.org/1999/xlink">
    <title>mood/playful/44x44/dark</title>
    <g id="mood/playful/44x44/dark" stroke="none" stroke-width="1" fill="none" fill-rule="evenodd">
        <g id="mood/playful/44x44">
            <path d="M12.819426,-5.17920154e-16 L31.180574,5.17920154e-16 C35.6381677,-3.00926524e-16 37.2545989,0.464128056 38.8842285,1.33566352 C40.5138581,2.20719898 41.792801,3.48614185 42.6643365,5.11577148 C43.5358719,6.74540111 44,8.3618323 44,12.819426 L44,31.180574 C44,35.6381677 43.5358719,37.2545989 42.6643365,38.8842285 C41.792801,40.5138581 40.5138581,41.792801 38.8842285,42.6643365 C37.2545989,43.5358719 35.6381677,44 31.180574,44 L12.819426,44 C8.3618323,44 6.74540111,43.5358719 5.11577148,42.6643365 C3.48614185,41.792801 2.20719898,40.5138581 1.33566352,38.8842285 C0.464128056,37.2545989 2.00617683e-16,35.6381677 -3.45280103e-16,31.180574 L3.45280103e-16,12.819426 C-2.00617683e-16,8.3618323 0.464128056,6.74540111 1.33566352,5.11577148 C2.20719898,3.48614185 3.48614185,2.20719898 5.11577148,1.33566352 C6.74540111,0.464128056 8.3618323,3.00926524e-16 12.819426,-5.17920154e-16 Z" id="Rectangle" fill="#FDD5B4"></path>
            <path d="M13.5,18 C15.709139,18 22,11.9852814 22,9.5 C22,7.63832948 19.8076606,6.55406304 17,6.5 C16.0595073,6.4818903 15.0036865,6.12361755 14,6.5 C10,8 4.5,17 4.5,17 C4.5,17 11.290861,18 13.5,18 Z" id="Oval" stroke="#FF7F0F"></path>
            <path d="M22,34.5 C28.8217394,34.5 33.5,28.0414904 33.5,21.137931 C33.5,14.2343717 28.8217394,9.5 22,9.5 C15.1782606,9.5 10.5,14.2343717 10.5,21.137931 C10.5,28.0414904 15.1782606,34.5 22,34.5 Z" id="Oval" stroke="#FF7F0F" fill="#FDD5B4"></path>
            <circle id="Oval" fill="#FF7F0F" transform="translate(17.448889, 19.500000) scale(-1, 1) translate(-17.448889, -19.500000) " cx="17.4488887" cy="19.5" r="2.5"></circle>
            <path d="M24.5,19.75 C24.8333333,20.25 25.5,20.5 26.5,20.5 C27.5,20.5 28.1666667,20.1666667 28.5,19.5" id="Line-Copy-2" stroke="#FF7F0F" stroke-linecap="round" transform="translate(26.500000, 20.000000) scale(1, -1) translate(-26.500000, -20.000000) "></path>
            <line x1="18.5" y1="25.5" x2="25.5" y2="25.5" id="Line-2" stroke="#FF7F0F" stroke-linecap="square"></line>
            <path d="M22,30 C22.8284271,30 24,28.5 24,26 C24,26 23.3284271,25 22.5,25 C21.6715729,25 20,26 20,26 C20,28.5 21.1715729,30 22,30 Z" id="Oval" fill="#FF7F0F"></path>
            <path d="M20,9.5 C21,13.1666667 24.8333333,14.8333333 31.5,14.5" id="Path-5" stroke="#FF7F0F"></path>
            <path d="M17.5,22.5 C18.8807119,22.5 22,23.8807119 22,22.5 C22,21.1192881 18.8807119,20 17.5,20 C16.1192881,20 13.5,21.1192881 13.5,22.5 C13.5,23.8807119 16.1192881,22.5 17.5,22.5 Z" id="Oval-Copy-2" fill="#FDD5B4"></path>
        </g>
    </g>
</svg>