<?xml version="1.0" encoding="UTF-8"?>
<svg width="68px" height="68px" viewBox="0 0 68 68" version="1.1" xmlns="http://www.w3.org/2000/svg" xmlns:xlink="http://www.w3.org/1999/xlink">
    <title>symptom/nausea/68x68</title>
    <g id="Page-1" stroke="none" stroke-width="1" fill="none" fill-rule="evenodd">
        <g id="symptom/nausea/68x68">
            <path d="M12.819426,-2.33158843e-15 L55.180574,5.17920154e-16 C59.6381677,-3.00926524e-16 61.2545989,0.464128056 62.8842285,1.33566352 C64.5138581,2.20719898 65.792801,3.48614185 66.6643365,5.11577148 C67.5358719,6.74540111 68,8.3618323 68,12.819426 L68,55.180574 C68,59.6381677 67.5358719,61.2545989 66.6643365,62.8842285 C65.792801,64.5138581 64.5138581,65.792801 62.8842285,66.6643365 C61.2545989,67.5358719 59.6381677,68 55.180574,68 L12.819426,68 C8.3618323,68 6.74540111,67.5358719 5.11577148,66.6643365 C3.48614185,65.792801 2.20719898,64.5138581 1.33566352,62.8842285 C0.464128056,61.2545989 1.25441118e-15,59.6381677 -2.15894838e-15,55.180574 L3.45280103e-16,12.819426 C-2.00617683e-16,8.3618323 0.464128056,6.74540111 1.33566352,5.11577148 C2.20719898,3.48614185 3.48614185,2.20719898 5.11577148,1.33566352 C6.74540111,0.464128056 8.3618323,1.35472002e-15 12.819426,-2.33158843e-15 Z" id="Rectangle" fill="#FFF2E7"></path>
            <g id="Group" transform="translate(13.000000, 12.000000)">
                <path d="M21,44 C31.6775052,44 39,34.1830654 39,23.6896552 C39,13.1962449 31.6775052,6 21,6 C10.3224948,6 3,13.1962449 3,23.6896552 C3,34.1830654 10.3224948,44 21,44 Z" id="Oval" stroke="#FF7F0F" fill="#FFF2E7"></path>
                <ellipse id="Oval" fill="#FFD3AD" cx="31.5" cy="30.5" rx="4.5" ry="2.5"></ellipse>
                <ellipse id="Oval-Copy-3" fill="#FFD3AD" cx="10.5" cy="30.5" rx="4.5" ry="2.5"></ellipse>
                <circle id="Oval" fill="#FF7F0F" cx="14" cy="26" r="4"></circle>
                <path d="M12.0774436,24.236434 C13.8445061,24.230117 17.8289623,26.3349926 17.836644,24.2158457 C17.8443035,22.0966988 13.858395,20.3930621 12.0913325,20.3993616 C10.3242701,20.4056961 6.96583489,22.1355877 6.95815116,24.2547346 C6.95049365,26.3738815 10.3103812,24.2427509 12.0774436,24.236434 Z" id="Oval-Copy-2" fill="#FFF2E7" transform="translate(12.397398, 22.796306) scale(1, -1) rotate(-345.000000) translate(-12.397398, -22.796306) "></path>
                <circle id="Oval" fill="#FF7F0F" transform="translate(28.000000, 26.000000) scale(-1, 1) translate(-28.000000, -26.000000) " cx="28" cy="26" r="4"></circle>
                <path d="M29.2031421,24.236434 C30.9702046,24.230117 34.9546608,26.3349926 34.9623424,24.2158457 C34.970002,22.0966988 30.9840934,20.3930621 29.217031,20.3993616 C27.4499685,20.4056961 24.0915334,22.1355877 24.0838496,24.2547346 C24.0761921,26.3738815 27.4360796,24.2427509 29.2031421,24.236434 Z" id="Oval-Copy-2" fill="#FFF2E7" transform="translate(29.523096, 22.796306) scale(-1, -1) rotate(-345.000000) translate(-29.523096, -22.796306) "></path>
                <path d="M25.0957902,17.9504356 C39.6948805,25.7488753 42,20.7792549 42,15.6109036 C42,12.0033612 36.6213878,0.79386814 22.7906707,0.0140241662 C17.2607896,-0.297777779 17.4120585,4.69308801 15.8753122,4.69308801 C14.3385658,4.69308801 15.106939,2.35355609 11.2650731,3.13340006 C7.42320728,3.91324404 2.81296825,9.37215185 2.04459508,16.3907476 C1.27622191,23.4093434 10.4967,10.1519958 25.0957902,17.9504356 Z" id="Oval" stroke="#FF7F0F" fill="#FFF2E7"></path>
            </g>
            <line x1="30" y1="47" x2="37" y2="47" id="Line-4" stroke="#FF7F0F" stroke-linecap="square"></line>
            <path d="M41,48 C41,46.8954305 39.8807119,46 38.5,46 C37.1192881,46 36,46.8954305 36,48" id="Oval" stroke="#FF7F0F" transform="translate(38.500000, 47.000000) rotate(-90.000000) translate(-38.500000, -47.000000) "></path>
            <path d="M31,48 C31,46.8954305 30.1045695,46 29,46 C27.8954305,46 27,46.8954305 27,48" id="Oval-Copy" stroke="#FF7F0F" transform="translate(29.000000, 47.000000) scale(-1, 1) rotate(-90.000000) translate(-29.000000, -47.000000) "></path>
        </g>
    </g>
</svg>