<?xml version="1.0" encoding="UTF-8"?>
<svg width="68px" height="68px" viewBox="0 0 68 68" version="1.1" xmlns="http://www.w3.org/2000/svg" xmlns:xlink="http://www.w3.org/1999/xlink">
    <title>symptom/nausea/68x68</title>
    <g id="Page-1" stroke="none" stroke-width="1" fill="none" fill-rule="evenodd">
        <g id="symptom/nausea/68x68">
            <path d="M12.819426,-2.33158843e-15 L55.180574,5.17920154e-16 C59.6381677,-3.00926524e-16 61.2545989,0.464128056 62.8842285,1.33566352 C64.5138581,2.20719898 65.792801,3.48614185 66.6643365,5.11577148 C67.5358719,6.74540111 68,8.3618323 68,12.819426 L68,55.180574 C68,59.6381677 67.5358719,61.2545989 66.6643365,62.8842285 C65.792801,64.5138581 64.5138581,65.792801 62.8842285,66.6643365 C61.2545989,67.5358719 59.6381677,68 55.180574,68 L12.819426,68 C8.3618323,68 6.74540111,67.5358719 5.11577148,66.6643365 C3.48614185,65.792801 2.20719898,64.5138581 1.33566352,62.8842285 C0.464128056,61.2545989 1.25441118e-15,59.6381677 -2.15894838e-15,55.180574 L3.45280103e-16,12.819426 C-2.00617683e-16,8.3618323 0.464128056,6.74540111 1.33566352,5.11577148 C2.20719898,3.48614185 3.48614185,2.20719898 5.11577148,1.33566352 C6.74540111,0.464128056 8.3618323,1.35472002e-15 12.819426,-2.33158843e-15 Z" id="Rectangle" fill="#FDD5B4"></path>
            <g id="Group" transform="translate(15.000000, 12.000000)">
                <path d="M19,44 C29.6775052,44 37,34.1830654 37,23.6896552 C37,13.1962449 29.6775052,6 19,6 C8.32249484,6 1,13.1962449 1,23.6896552 C1,34.1830654 8.32249484,44 19,44 Z" id="Oval" stroke="#FF7F0F" fill="#FDD5B4"></path>
                <ellipse id="Oval" fill="#FDB270" cx="29.5" cy="30.5" rx="4.5" ry="2.5"></ellipse>
                <ellipse id="Oval-Copy-3" fill="#FDB270" cx="8.5" cy="30.5" rx="4.5" ry="2.5"></ellipse>
                <circle id="Oval" fill="#FF7F0F" cx="12" cy="26" r="4"></circle>
                <path d="M10.0774436,24.236434 C11.8445061,24.230117 15.8289623,26.3349926 15.836644,24.2158457 C15.8443035,22.0966988 11.858395,20.3930621 10.0913325,20.3993616 C8.32427007,20.4056961 4.96583489,22.1355877 4.95815116,24.2547346 C4.95049365,26.3738815 8.31038118,24.2427509 10.0774436,24.236434 Z" id="Oval-Copy-2" fill="#FDD5B4" transform="translate(10.397398, 22.796306) scale(1, -1) rotate(-345.000000) translate(-10.397398, -22.796306) "></path>
                <circle id="Oval" fill="#FF7F0F" transform="translate(26.000000, 26.000000) scale(-1, 1) translate(-26.000000, -26.000000) " cx="26" cy="26" r="4"></circle>
                <path d="M27.2031421,24.236434 C28.9702046,24.230117 32.9546608,26.3349926 32.9623424,24.2158457 C32.970002,22.0966988 28.9840934,20.3930621 27.217031,20.3993616 C25.4499685,20.4056961 22.0915334,22.1355877 22.0838496,24.2547346 C22.0761921,26.3738815 25.4360796,24.2427509 27.2031421,24.236434 Z" id="Oval-Copy-2" fill="#FDD5B4" transform="translate(27.523096, 22.796306) scale(-1, -1) rotate(-345.000000) translate(-27.523096, -22.796306) "></path>
                <path d="M23.0957902,17.9504356 C37.6948805,25.7488753 40,20.7792549 40,15.6109036 C40,12.0033612 34.6213878,0.79386814 20.7906707,0.0140241662 C15.2607896,-0.297777779 15.4120585,4.69308801 13.8753122,4.69308801 C12.3385658,4.69308801 13.106939,2.35355609 9.26507314,3.13340006 C5.42320728,3.91324404 0.812968252,9.37215185 0.04459508,16.3907476 C-0.723778092,23.4093434 8.49669997,10.1519958 23.0957902,17.9504356 Z" id="Oval" stroke="#FF7F0F" fill="#FDD5B4"></path>
            </g>
            <line x1="30" y1="47" x2="37" y2="47" id="Line-4" stroke="#FF7F0F" stroke-linecap="square"></line>
            <path d="M41,48 C41,46.8954305 39.8807119,46 38.5,46 C37.1192881,46 36,46.8954305 36,48" id="Oval" stroke="#FF7F0F" transform="translate(38.500000, 47.000000) rotate(-90.000000) translate(-38.500000, -47.000000) "></path>
            <path d="M31,48 C31,46.8954305 30.1045695,46 29,46 C27.8954305,46 27,46.8954305 27,48" id="Oval-Copy" stroke="#FF7F0F" transform="translate(29.000000, 47.000000) scale(-1, 1) rotate(-90.000000) translate(-29.000000, -47.000000) "></path>
        </g>
    </g>
</svg>