<?xml version="1.0" encoding="UTF-8"?>
<svg width="44px" height="44px" viewBox="0 0 44 44" version="1.1" xmlns="http://www.w3.org/2000/svg" xmlns:xlink="http://www.w3.org/1999/xlink">
    <title>symptom/lowerBackpain/44x44</title>
    <g id="Page-1" stroke="none" stroke-width="1" fill="none" fill-rule="evenodd">
        <g id="symptom/lowerBackpain/44x44">
            <path d="M12.819426,-5.17920154e-16 L31.180574,5.17920154e-16 C35.6381677,-3.00926524e-16 37.2545989,0.464128056 38.8842285,1.33566352 C40.5138581,2.20719898 41.792801,3.48614185 42.6643365,5.11577148 C43.5358719,6.74540111 44,8.3618323 44,12.819426 L44,31.180574 C44,35.6381677 43.5358719,37.2545989 42.6643365,38.8842285 C41.792801,40.5138581 40.5138581,41.792801 38.8842285,42.6643365 C37.2545989,43.5358719 35.6381677,44 31.180574,44 L12.819426,44 C8.3618323,44 6.74540111,43.5358719 5.11577148,42.6643365 C3.48614185,41.792801 2.20719898,40.5138581 1.33566352,38.8842285 C0.464128056,37.2545989 2.00617683e-16,35.6381677 -3.45280103e-16,31.180574 L3.45280103e-16,12.819426 C-2.00617683e-16,8.3618323 0.464128056,6.74540111 1.33566352,5.11577148 C2.20719898,3.48614185 3.48614185,2.20719898 5.11577148,1.33566352 C6.74540111,0.464128056 8.3618323,3.00926524e-16 12.819426,-5.17920154e-16 Z" id="Rectangle" fill="#FDD5B4"></path>
            <path d="M25,38 C26,38.5 29.8284413,39.052943 32,37 C34.1715587,34.947057 35.2046438,32.6502756 34.5071541,28.0667715 C33.8096643,23.4832674 32.7645951,21.4695539 32.5,19 C32.3236033,17.3536307 32.49027,13.0202974 33,6" id="Path-28" stroke="#FF7F0F" stroke-linecap="round" stroke-linejoin="round"></path>
            <path d="M9.3,38 C10.3,38.5 14.1284413,39.052943 16.3,37 C18.4715587,34.947057 19.5046438,32.6502756 18.8071541,28.0667715 C18.1096643,23.4832674 17.0645951,21.4695539 16.8,19 C16.6236033,17.3536307 16.79027,13.0202974 17.3,6" id="Path-28" stroke="#FF7F0F" stroke-linecap="round" stroke-linejoin="round" transform="translate(14.161553, 22.232466) scale(-1, 1) translate(-14.161553, -22.232466) "></path>
            <ellipse id="Oval" fill="#FDB270" cx="22" cy="18.95" rx="8" ry="10.5"></ellipse>
            <polygon id="Path-14" stroke="#FF7F0F" fill="#FF7F0F" stroke-linejoin="round" transform="translate(22.119565, 19.000000) scale(-1, 1) translate(-22.119565, -19.000000) " points="20.2651515 19.9090909 21.780303 19.9090909 20.6177156 24 23.9739789 18.5571096 22.2348485 18.5571096 23.384514 14 21.5004561 14"></polygon>
        </g>
    </g>
</svg>