<?xml version="1.0" encoding="UTF-8"?>
<svg width="68px" height="68px" viewBox="0 0 68 68" version="1.1" xmlns="http://www.w3.org/2000/svg" xmlns:xlink="http://www.w3.org/1999/xlink">
    <title>symptom/constipation/68x68</title>
    <g id="Page-1" stroke="none" stroke-width="1" fill="none" fill-rule="evenodd">
        <g id="symptom/constipation/68x68">
            <path d="M12.819426,-2.33158843e-15 L55.180574,5.17920154e-16 C59.6381677,-3.00926524e-16 61.2545989,0.464128056 62.8842285,1.33566352 C64.5138581,2.20719898 65.792801,3.48614185 66.6643365,5.11577148 C67.5358719,6.74540111 68,8.3618323 68,12.819426 L68,55.180574 C68,59.6381677 67.5358719,61.2545989 66.6643365,62.8842285 C65.792801,64.5138581 64.5138581,65.792801 62.8842285,66.6643365 C61.2545989,67.5358719 59.6381677,68 55.180574,68 L12.819426,68 C8.3618323,68 6.74540111,67.5358719 5.11577148,66.6643365 C3.48614185,65.792801 2.20719898,64.5138581 1.33566352,62.8842285 C0.464128056,61.2545989 1.25441118e-15,59.6381677 -2.15894838e-15,55.180574 L3.45280103e-16,12.819426 C-2.00617683e-16,8.3618323 0.464128056,6.74540111 1.33566352,5.11577148 C2.20719898,3.48614185 3.48614185,2.20719898 5.11577148,1.33566352 C6.74540111,0.464128056 8.3618323,1.35472002e-15 12.819426,-2.33158843e-15 Z" id="Rectangle" fill="#FDD5B4"></path>
            <ellipse id="Oval" fill="#FDB270" cx="33.5" cy="44.5" rx="15.5" ry="9.5"></ellipse>
            <path d="M34.2421056,13 C33.7296537,16.5833333 32.960976,18.6309524 31.9360723,19.1428571 C30.3987167,19.9107143 27,20 27,20 C20.8505778,20 22.711939,28.3571429 26.5553278,28.3571429 C26.5553278,28.3571429 30.9111686,28.3571429 39.62285,28.3571429 C32.960976,28.3571429 27.5802315,28.3571429 23.4806167,28.3571429 C15.793839,28.3571429 16.5625168,38.3392857 23.4806167,38.3392857 C28.0926834,38.3392857 34.4983315,38.3392857 42.6975611,38.3392857 C33.4734278,38.3392857 29.1175871,40.6428571 29.6300389,45.25 C29.8503461,47.2306475 30.0706532,49.0220737 30.2909604,50.6242784 C30.4857235,52.040712 30.7778682,53.8326192 31.1673945,56 L34.2421056,56 L34.6861616,50.6770169 L35.0107834,46.7857143 C35.0107834,44.7380952 37.8292685,43.7142857 43.4662389,43.7142857 C51.9216944,43.7142857 52.6903722,32.9642857 42.6975611,32.9642857 C36.0356871,32.9642857 30.9111686,32.9642857 27.3240056,32.9642857 C30.9111686,32.9642857 35.0107834,32.9642857 39.62285,32.9642857 C46.54095,32.9642857 45.0035945,23.75 40.3915278,23.75 C35.7794611,23.75 29.6300389,23.75 29.6300389,23.75 C29.6300389,23.75 38.0854945,24.5178571 38.8541723,20.6785714 C39.3666241,18.1190476 38.8541723,15.8154762 37.3168167,13.7678571" id="Path-37" stroke="#FF7F0F" stroke-linecap="round" stroke-linejoin="round"></path>
            <ellipse id="Oval" fill="#FF7F0F" cx="32.5" cy="49" rx="4.5" ry="3"></ellipse>
        </g>
    </g>
</svg>