<?xml version="1.0" encoding="UTF-8"?>
<svg width="68px" height="68px" viewBox="0 0 68 68" version="1.1" xmlns="http://www.w3.org/2000/svg" xmlns:xlink="http://www.w3.org/1999/xlink">
    <title>mood/sad/68x68</title>
    <g id="mood/sad/68x68" stroke="none" stroke-width="1" fill="none" fill-rule="evenodd">
        <g>
            <path d="M12.819426,-2.33158843e-15 L55.180574,5.17920154e-16 C59.6381677,-3.00926524e-16 61.2545989,0.464128056 62.8842285,1.33566352 C64.5138581,2.20719898 65.792801,3.48614185 66.6643365,5.11577148 C67.5358719,6.74540111 68,8.3618323 68,12.819426 L68,55.180574 C68,59.6381677 67.5358719,61.2545989 66.6643365,62.8842285 C65.792801,64.5138581 64.5138581,65.792801 62.8842285,66.6643365 C61.2545989,67.5358719 59.6381677,68 55.180574,68 L12.819426,68 C8.3618323,68 6.74540111,67.5358719 5.11577148,66.6643365 C3.48614185,65.792801 2.20719898,64.5138581 1.33566352,62.8842285 C0.464128056,61.2545989 1.25441118e-15,59.6381677 -2.15894838e-15,55.180574 L3.45280103e-16,12.819426 C-2.00617683e-16,8.3618323 0.464128056,6.74540111 1.33566352,5.11577148 C2.20719898,3.48614185 3.48614185,2.20719898 5.11577148,1.33566352 C6.74540111,0.464128056 8.3618323,1.35472002e-15 12.819426,-2.33158843e-15 Z" id="Rectangle" fill="#FFF2E7"></path>
            <g id="Group" transform="translate(10.000000, 12.000000)">
                <path d="M7.88497217,23 L0,30 C5.78231293,36.2222222 10.7761286,38.8148148 14.9814471,37.7777778 C19.1867656,36.7407407 16.821274,31.8148148 7.88497217,23 Z" id="Path-12" stroke="#FF7F0F"></path>
                <path d="M38.8849722,24 L31,31 C36.7823129,37.2222222 41.7761286,39.8148148 45.9814471,38.7777778 C50.1867656,37.7407407 47.821274,32.8148148 38.8849722,24 Z" id="Path-12" stroke="#FF7F0F" transform="translate(39.500000, 31.500000) scale(-1, 1) translate(-39.500000, -31.500000) "></path>
                <path d="M24,44 C34.6775052,44 42,34.1830654 42,23.6896552 C42,13.1962449 34.6775052,6 24,6 C13.3224948,6 6,13.1962449 6,23.6896552 C6,34.1830654 13.3224948,44 24,44 Z" id="Oval" stroke="#FF7F0F" fill="#FFF2E7"></path>
                <circle id="Oval" fill="#FF7F0F" cx="17" cy="26" r="4"></circle>
                <path d="M15.1207827,24.2406408 C16.8802402,24.2363616 20.8499898,26.3451778 20.8551911,24.226694 C20.8603823,22.1082101 16.8896488,20.4005072 15.1301913,20.4047784 C13.3707338,20.4090657 10.0287315,22.1345542 10.0235292,24.253038 C10.018339,26.3715219 13.3613252,24.2449201 15.1207827,24.2406408 Z" id="Oval-Copy-2" fill="#FFF2E7" transform="translate(15.439360, 22.798554) scale(1, -1) rotate(-345.000000) translate(-15.439360, -22.798554) "></path>
                <circle id="Oval" fill="#FF7F0F" transform="translate(31.000000, 26.000000) scale(-1, 1) translate(-31.000000, -26.000000) " cx="31" cy="26" r="4"></circle>
                <path d="M32.1629223,24.2406408 C33.9223799,24.2363616 37.8921295,26.3451778 37.8973308,24.226694 C37.9025219,22.1082101 33.9317885,20.4005072 32.1723309,20.4047784 C30.4128734,20.4090657 27.0708711,22.1345542 27.0656689,24.253038 C27.0604787,26.3715219 30.4034648,24.2449201 32.1629223,24.2406408 Z" id="Oval-Copy-2" fill="#FFF2E7" transform="translate(32.481500, 22.798554) scale(-1, -1) rotate(-345.000000) translate(-32.481500, -22.798554) "></path>
                <path d="M28.0957902,17.9504356 C42.6948805,25.7488753 45,20.7792549 45,15.6109036 C45,12.0033612 39.6213878,0.79386814 25.7906707,0.0140241662 C20.2607896,-0.297777779 20.4120585,4.69308801 18.8753122,4.69308801 C17.3385658,4.69308801 18.106939,2.35355609 14.2650731,3.13340006 C10.4232073,3.91324404 5.81296825,9.37215185 5.04459508,16.3907476 C4.27622191,23.4093434 13.4967,10.1519958 28.0957902,17.9504356 Z" id="Oval" stroke="#FF7F0F" fill="#FFF2E7"></path>
                <path d="M20,35 C21.0666667,36.3333333 22.1333333,37 23.2,37 C25.0489024,37 26.6489024,37 28,37" id="Line" stroke="#FF7F0F" stroke-linecap="round" transform="translate(24.000000, 36.000000) scale(1, -1) translate(-24.000000, -36.000000) "></path>
                <ellipse id="Oval" fill="#FFF2E7" cx="19" cy="14" rx="10" ry="4"></ellipse>
            </g>
        </g>
    </g>
</svg>