<?xml version="1.0" encoding="UTF-8"?>
<svg width="44px" height="44px" viewBox="0 0 44 44" version="1.1" xmlns="http://www.w3.org/2000/svg" xmlns:xlink="http://www.w3.org/1999/xlink">
    <title>mood/sad/44x44</title>
    <g id="Page-1" stroke="none" stroke-width="1" fill="none" fill-rule="evenodd">
        <g id="mood/sad/44x44">
            <path d="M12.819426,-5.17920154e-16 L31.180574,5.17920154e-16 C35.6381677,-3.00926524e-16 37.2545989,0.464128056 38.8842285,1.33566352 C40.5138581,2.20719898 41.792801,3.48614185 42.6643365,5.11577148 C43.5358719,6.74540111 44,8.3618323 44,12.819426 L44,31.180574 C44,35.6381677 43.5358719,37.2545989 42.6643365,38.8842285 C41.792801,40.5138581 40.5138581,41.792801 38.8842285,42.6643365 C37.2545989,43.5358719 35.6381677,44 31.180574,44 L12.819426,44 C8.3618323,44 6.74540111,43.5358719 5.11577148,42.6643365 C3.48614185,41.792801 2.20719898,40.5138581 1.33566352,38.8842285 C0.464128056,37.2545989 2.00617683e-16,35.6381677 -3.45280103e-16,31.180574 L3.45280103e-16,12.819426 C-2.00617683e-16,8.3618323 0.464128056,6.74540111 1.33566352,5.11577148 C2.20719898,3.48614185 3.48614185,2.20719898 5.11577148,1.33566352 C6.74540111,0.464128056 8.3618323,3.00926524e-16 12.819426,-5.17920154e-16 Z" id="Rectangle" fill="#FFF2E7"></path>
            <g id="Group" transform="translate(6.500000, 7.491008)">
                <path d="M5,15.0089916 L-1.33226763e-14,19.5089916 C3.66666667,23.5089916 6.83333333,25.1756583 9.5,24.5089916 C12.1666667,23.842325 10.6666667,20.6756583 5,15.0089916 Z" id="Path-12" stroke="#FF7F0F"></path>
                <path d="M25,16.0089916 L20,20.5089916 C23.6666667,24.5089916 26.8333333,26.1756583 29.5,25.5089916 C32.1666667,24.842325 30.6666667,21.6756583 25,16.0089916 Z" id="Path-12" stroke="#FF7F0F" transform="translate(25.390000, 20.830420) scale(-1, 1) translate(-25.390000, -20.830420) "></path>
                <path d="M15.5,29.0089916 C22.3217394,29.0089916 27,22.5504821 27,15.6469227 C27,8.74336331 22.3217394,4.00899165 15.5,4.00899165 C8.67826059,4.00899165 4,8.74336331 4,15.6469227 C4,22.5504821 8.67826059,29.0089916 15.5,29.0089916 Z" id="Oval" stroke="#FF7F0F" fill="#FFF2E7"></path>
                <circle id="Oval" fill="#FF7F0F" cx="11" cy="17.0089916" r="2.5"></circle>
                <path d="M9.76856202,15.8148774 C10.9056189,15.8148774 13.4744444,17.1955892 13.4744444,15.8148774 C13.4744444,14.4341655 10.9056189,13.3148774 9.76856202,13.3148774 C8.63150518,13.3148774 6.47444437,14.4341655 6.47444437,15.8148774 C6.47444437,17.1955892 8.63150518,15.8148774 9.76856202,15.8148774 Z" id="Oval-Copy-2" fill="#FFF2E7" transform="translate(9.974444, 14.871702) scale(1, -1) rotate(-345.000000) translate(-9.974444, -14.871702) "></path>
                <circle id="Oval" fill="#FF7F0F" transform="translate(19.948889, 17.008992) scale(-1, 1) translate(-19.948889, -17.008992) " cx="19.9488887" cy="17.0089916" r="2.5"></circle>
                <path d="M20.768562,15.8148774 C21.9056189,15.8148774 24.4744444,17.1955892 24.4744444,15.8148774 C24.4744444,14.4341655 21.9056189,13.3148774 20.768562,13.3148774 C19.6315052,13.3148774 17.4744444,14.4341655 17.4744444,15.8148774 C17.4744444,17.1955892 19.6315052,15.8148774 20.768562,15.8148774 Z" id="Oval-Copy-2" fill="#FFF2E7" transform="translate(20.974444, 14.871702) scale(-1, -1) rotate(-345.000000) translate(-20.974444, -14.871702) "></path>
                <path d="M18,11.5089916 C27.5,16.5089916 29,13.3227001 29,10.0089916 C29,7.69600178 25.5,0.508991649 16.5,0.00899164876 C12.9015654,-0.190921382 13,3.00899165 12,3.00899165 C11,3.00899165 11.5,1.50899165 9,2.00899165 C6.5,2.50899165 3.5,6.00899165 3,10.5089916 C2.5,15.0089916 8.5,6.50899165 18,11.5089916 Z" id="Oval" stroke="#FF7F0F" fill="#FFF2E7"></path>
                <path d="M13,23.0089916 C13.6666667,23.6756583 14.3333333,24.0089916 15,24.0089916 C16.155564,24.0089916 17.155564,24.0089916 18,24.0089916" id="Line" stroke="#FF7F0F" stroke-linecap="round" transform="translate(15.500000, 23.508992) scale(1, -1) translate(-15.500000, -23.508992) "></path>
                <ellipse id="Oval" fill="#FFF2E7" cx="12" cy="9.00899165" rx="6.5" ry="2.5"></ellipse>
            </g>
        </g>
    </g>
</svg>