<?xml version="1.0" encoding="UTF-8"?>
<svg width="44px" height="44px" viewBox="0 0 44 44" version="1.1" xmlns="http://www.w3.org/2000/svg" xmlns:xlink="http://www.w3.org/1999/xlink">
    <title>symptom/flatulence/44x44</title>
    <g id="Page-1" stroke="none" stroke-width="1" fill="none" fill-rule="evenodd">
        <g id="symptom/flatulence/44x44">
            <path d="M12.819426,-5.17920154e-16 L31.180574,5.17920154e-16 C35.6381677,-3.00926524e-16 37.2545989,0.464128056 38.8842285,1.33566352 C40.5138581,2.20719898 41.792801,3.48614185 42.6643365,5.11577148 C43.5358719,6.74540111 44,8.3618323 44,12.819426 L44,31.180574 C44,35.6381677 43.5358719,37.2545989 42.6643365,38.8842285 C41.792801,40.5138581 40.5138581,41.792801 38.8842285,42.6643365 C37.2545989,43.5358719 35.6381677,44 31.180574,44 L12.819426,44 C8.3618323,44 6.74540111,43.5358719 5.11577148,42.6643365 C3.48614185,41.792801 2.20719898,40.5138581 1.33566352,38.8842285 C0.464128056,37.2545989 2.00617683e-16,35.6381677 -3.45280103e-16,31.180574 L3.45280103e-16,12.819426 C-2.00617683e-16,8.3618323 0.464128056,6.74540111 1.33566352,5.11577148 C2.20719898,3.48614185 3.48614185,2.20719898 5.11577148,1.33566352 C6.74540111,0.464128056 8.3618323,3.00926524e-16 12.819426,-5.17920154e-16 Z" id="Rectangle" fill="#FDD5B4"></path>
            <path d="M14.7443168,15.1852884 C17.5958607,11.660483 20.1400848,11.4963983 22.3769891,14.6930343 C24.6138933,17.8896702 23.7257792,20.3707381 19.7126466,22.1362378" id="Path-18" stroke="#FF7F0F" fill="#FDD5B4" stroke-linecap="round" stroke-linejoin="round" transform="translate(19.161098, 17.274425) rotate(-75.000000) translate(-19.161098, -17.274425) "></path>
            <path d="M19.7443168,26.1852884 C22.5958607,22.660483 25.1400848,22.4963983 27.3769891,25.6930343 C29.6138933,28.8896702 28.7257792,31.3707381 24.7126466,33.1362378" id="Path-18" stroke="#FF7F0F" fill="#FDD5B4" stroke-linecap="round" stroke-linejoin="round" transform="translate(24.161098, 28.274425) scale(-1, -1) rotate(-90.000000) translate(-24.161098, -28.274425) "></path>
            <path d="M11.7443168,23.1852884 C14.5958607,19.660483 17.1400848,19.4963983 19.3769891,22.6930343 C21.6138933,25.8896702 20.7257792,28.3707381 16.7126466,30.1362378" id="Path-18-Copy" stroke="#FF7F0F" fill="#FDD5B4" stroke-linecap="round" stroke-linejoin="round" transform="translate(16.161098, 25.274425) scale(1, -1) rotate(-120.000000) translate(-16.161098, -25.274425) "></path>
            <line x1="32.506277" y1="25.6434324" x2="24.993723" y2="18.8565676" id="Path-15" stroke="#FF7F0F" stroke-linecap="round" stroke-linejoin="round" transform="translate(28.750000, 22.250000) rotate(-75.000000) translate(-28.750000, -22.250000) "></line>
            <line x1="23.8302393" y1="13.6147857" x2="29.6697607" y2="21.8852143" id="Path-19" stroke="#FF7F0F" stroke-linecap="round" transform="translate(26.750000, 17.750000) rotate(-75.000000) translate(-26.750000, -17.750000) "></line>
        </g>
    </g>
</svg>