<?xml version="1.0" encoding="UTF-8"?>
<svg width="44px" height="44px" viewBox="0 0 44 44" version="1.1" xmlns="http://www.w3.org/2000/svg" xmlns:xlink="http://www.w3.org/1999/xlink">
    <title>symptom/constipation/44x44</title>
    <g id="Page-1" stroke="none" stroke-width="1" fill="none" fill-rule="evenodd">
        <g id="symptom/constipation/44x44">
            <path d="M12.819426,-5.17920154e-16 L31.180574,5.17920154e-16 C35.6381677,-3.00926524e-16 37.2545989,0.464128056 38.8842285,1.33566352 C40.5138581,2.20719898 41.792801,3.48614185 42.6643365,5.11577148 C43.5358719,6.74540111 44,8.3618323 44,12.819426 L44,31.180574 C44,35.6381677 43.5358719,37.2545989 42.6643365,38.8842285 C41.792801,40.5138581 40.5138581,41.792801 38.8842285,42.6643365 C37.2545989,43.5358719 35.6381677,44 31.180574,44 L12.819426,44 C8.3618323,44 6.74540111,43.5358719 5.11577148,42.6643365 C3.48614185,41.792801 2.20719898,40.5138581 1.33566352,38.8842285 C0.464128056,37.2545989 2.00617683e-16,35.6381677 -3.45280103e-16,31.180574 L3.45280103e-16,12.819426 C-2.00617683e-16,8.3618323 0.464128056,6.74540111 1.33566352,5.11577148 C2.20719898,3.48614185 3.48614185,2.20719898 5.11577148,1.33566352 C6.74540111,0.464128056 8.3618323,3.00926524e-16 12.819426,-5.17920154e-16 Z" id="Rectangle" fill="#FFF2E7"></path>
            <ellipse id="Oval" fill="#FFD3AD" cx="21" cy="29" rx="10" ry="6"></ellipse>
            <path d="M22,8.5 C21.6666667,10.8333333 21.1666667,12.1666667 20.5,12.5 C19.5,13 17.5,13 17.5,13 C13.5,13 14.5,18.5 17,18.5 C17,18.5 19.8333333,18.5 25.5,18.5 C21.1666667,18.5 17.6666667,18.5 15,18.5 C10,18.5 10.5,25 15,25 C18,25 22.1666667,25 27.5,25 C21.5,25 18.6666667,26.5 19,29.5 C19.1433027,30.789724 19.2866053,31.956234 19.429908,32.9995301 C19.5565951,33.921859 19.7466258,35.0886822 20,36.5 L22,36.5 L22.288844,33.0338715 L22.5,30.5 C22.5,29.1666667 24.3333333,28.5 28,28.5 C33.5,28.5 34,21.5 27.5,21.5 C23.1666667,21.5 19.8333333,21.5 17.5,21.5 C19.8333333,21.5 22.5,21.5 25.5,21.5 C30,21.5 29,15.5 26,15.5 C23,15.5 19,15.5 19,15.5 C19,15.5 24.5,16 25,13.5 C25.3333333,11.8333333 25,10.3333333 24,9" id="Path-37" stroke="#FF7F0F" stroke-linecap="round" stroke-linejoin="round"></path>
            <ellipse id="Oval-Copy" fill="#FF7F0F" cx="21" cy="32" rx="3" ry="2"></ellipse>
        </g>
    </g>
</svg>