<?xml version="1.0" encoding="UTF-8"?>
<svg width="68px" height="68px" viewBox="0 0 68 68" version="1.1" xmlns="http://www.w3.org/2000/svg" xmlns:xlink="http://www.w3.org/1999/xlink">
    <title>mood/feelingGuilty/68x68</title>
    <g id="Page-1" stroke="none" stroke-width="1" fill="none" fill-rule="evenodd">
        <g id="mood/feelingGuilty/68x68">
            <g id="Group-2">
                <path d="M12.819426,-2.33158843e-15 L55.180574,5.17920154e-16 C59.6381677,-3.00926524e-16 61.2545989,0.464128056 62.8842285,1.33566352 C64.5138581,2.20719898 65.792801,3.48614185 66.6643365,5.11577148 C67.5358719,6.74540111 68,8.3618323 68,12.819426 L68,55.180574 C68,59.6381677 67.5358719,61.2545989 66.6643365,62.8842285 C65.792801,64.5138581 64.5138581,65.792801 62.8842285,66.6643365 C61.2545989,67.5358719 59.6381677,68 55.180574,68 L12.819426,68 C8.3618323,68 6.74540111,67.5358719 5.11577148,66.6643365 C3.48614185,65.792801 2.20719898,64.5138581 1.33566352,62.8842285 C0.464128056,61.2545989 1.25441118e-15,59.6381677 -2.15894838e-15,55.180574 L3.45280103e-16,12.819426 C-2.00617683e-16,8.3618323 0.464128056,6.74540111 1.33566352,5.11577148 C2.20719898,3.48614185 3.48614185,2.20719898 5.11577148,1.33566352 C6.74540111,0.464128056 8.3618323,1.35472002e-15 12.819426,-2.33158843e-15 Z" id="Rectangle" fill="#FDD5B4"></path>
                <ellipse id="Oval" stroke="#FF7F0F" cx="26" cy="26.5" rx="14" ry="15.5"></ellipse>
                <path d="M32.5,53 C42.8809078,53 50,43.1830654 50,32.6896552 C50,22.1962449 42.8809078,15 32.5,15 C22.1190922,15 15,22.1962449 15,32.6896552 C15,43.1830654 22.1190922,53 32.5,53 Z" id="Oval" stroke="#FF7F0F" fill="#FDD5B4"></path>
                <path d="M24.7194918,32.556841 C26.4882468,32.556841 30.4841976,34.704615 30.4841976,32.556841 C30.4841976,30.4090669 26.4882468,28.6679521 24.7194918,28.6679521 C22.9507367,28.6679521 19.5953088,30.4090669 19.5953088,32.556841 C19.5953088,34.704615 22.9507367,32.556841 24.7194918,32.556841 Z" id="Oval-Copy-2" fill="#FDD5B4" transform="translate(25.039753, 31.089680) scale(1, -1) rotate(-345.000000) translate(-25.039753, -31.089680) "></path>
                <circle id="Oval-Copy" fill="#FF7F0F" transform="translate(21.750000, 36.113839) scale(-1, 1) translate(-21.750000, -36.113839) " cx="21.75" cy="36.1138395" r="3.75"></circle>
                <path d="M24.8771236,36.5743492 C26.3390538,36.5743492 28.7562198,36.238725 28.7562198,34.1676571 C28.7562198,32.0965893 25.4534441,30.4176571 23.9915139,30.4176571 C22.5295837,30.4176571 19.7562198,32.0965893 19.7562198,34.1676571 C19.7562198,36.238725 23.4151934,36.5743492 24.8771236,36.5743492 Z" id="Oval-Copy-2" fill="#FDD5B4" transform="translate(24.256220, 33.496003) scale(-1, -1) rotate(-345.000000) translate(-24.256220, -33.496003) "></path>
                <path d="M37.7194918,32.556841 C39.4882468,32.556841 43.4841976,34.704615 43.4841976,32.556841 C43.4841976,30.4090669 39.4882468,28.6679521 37.7194918,28.6679521 C35.9507367,28.6679521 32.5953088,30.4090669 32.5953088,32.556841 C32.5953088,34.704615 35.9507367,32.556841 37.7194918,32.556841 Z" id="Oval-Copy-2" fill="#FDD5B4" transform="translate(38.039753, 31.089680) scale(1, -1) rotate(-345.000000) translate(-38.039753, -31.089680) "></path>
                <circle id="Oval-Copy" fill="#FF7F0F" transform="translate(34.750000, 36.113839) scale(-1, 1) translate(-34.750000, -36.113839) " cx="34.75" cy="36.1138395" r="3.75"></circle>
                <path d="M37.8771236,36.5743492 C39.3390538,36.5743492 41.7562198,36.238725 41.7562198,34.1676571 C41.7562198,32.0965893 38.4534441,30.4176571 36.9915139,30.4176571 C35.5295837,30.4176571 32.7562198,32.0965893 32.7562198,34.1676571 C32.7562198,36.238725 36.4151934,36.5743492 37.8771236,36.5743492 Z" id="Oval-Copy-2" fill="#FDD5B4" transform="translate(37.256220, 33.496003) scale(-1, -1) rotate(-345.000000) translate(-37.256220, -33.496003) "></path>
                <line x1="30" y1="44.5" x2="33" y2="44.5" id="Line" stroke="#FF7F0F" stroke-linecap="square"></line>
                <path d="M26.8431373,23.9393939 C32.3333333,25.4882155 42.5294118,26.2626263 44.0980392,32.4579125 C44.8071313,35.2584681 42.1768235,46.3922229 46.4509804,51.8181818 C50.1111111,56.4646465 54.2941176,57.2390572 59,54.1414141 C55.7667298,49.7999283 54.1981024,46.4441483 54.2941176,44.0740741 C54.3901329,41.7039999 54.9130087,38.3482198 55.8627451,34.006734 C55.3398693,18.0022447 48.2810458,10 34.6862745,10 C23.9341506,10 19,10.7744108 19,15.4208754 C19,20.0673401 24.2455229,23.2065893 26.8431373,23.9393939 Z" id="Path-26" stroke="#FF7F0F" fill="#FDD5B4" stroke-linejoin="round"></path>
            </g>
            <g id="Group" transform="translate(18.000000, 27.000000)">
                <g id="Group-Copy" transform="translate(0.000000, 2.000000)"></g>
            </g>
            <g id="Group-Copy" transform="translate(31.000000, 29.000000)"></g>
        </g>
    </g>
</svg>