<?xml version="1.0" encoding="UTF-8"?>
<svg width="44px" height="44px" viewBox="0 0 44 44" version="1.1" xmlns="http://www.w3.org/2000/svg" xmlns:xlink="http://www.w3.org/1999/xlink">
    <title>symptom/sensetiveBreasts/44x44</title>
    <g id="Page-1" stroke="none" stroke-width="1" fill="none" fill-rule="evenodd">
        <g id="symptom/sensetiveBreasts/44x44">
            <path d="M12.819426,-5.17920154e-16 L31.180574,5.17920154e-16 C35.6381677,-3.00926524e-16 37.2545989,0.464128056 38.8842285,1.33566352 C40.5138581,2.20719898 41.792801,3.48614185 42.6643365,5.11577148 C43.5358719,6.74540111 44,8.3618323 44,12.819426 L44,31.180574 C44,35.6381677 43.5358719,37.2545989 42.6643365,38.8842285 C41.792801,40.5138581 40.5138581,41.792801 38.8842285,42.6643365 C37.2545989,43.5358719 35.6381677,44 31.180574,44 L12.819426,44 C8.3618323,44 6.74540111,43.5358719 5.11577148,42.6643365 C3.48614185,41.792801 2.20719898,40.5138581 1.33566352,38.8842285 C0.464128056,37.2545989 2.00617683e-16,35.6381677 -3.45280103e-16,31.180574 L3.45280103e-16,12.819426 C-2.00617683e-16,8.3618323 0.464128056,6.74540111 1.33566352,5.11577148 C2.20719898,3.48614185 3.48614185,2.20719898 5.11577148,1.33566352 C6.74540111,0.464128056 8.3618323,3.00926524e-16 12.819426,-5.17920154e-16 Z" id="Rectangle" fill="#FFF2E7"></path>
            <line x1="25.5" y1="32.5" x2="25.5" y2="36.5" id="Line" stroke="#FF7F0F" stroke-linecap="round" stroke-linejoin="round"></line>
            <path d="M23.5,16 C23.5,16 21.3333333,18.1666667 17,22.5 C18,26.8333333 19.3333333,29.6666667 21,31 C23.5,33 28,21.5 23.5,16 Z" id="Path-32" fill="#FFD3AD"></path>
            <path d="M32,6 L17,22.5 C18,30.5 22.1666667,33.5 29.5,31.5" id="Path-30" stroke="#FF7F0F" stroke-linecap="round" stroke-linejoin="round"></path>
            <polygon id="Path-14" stroke="#FF7F0F" fill="#FF7F0F" stroke-linejoin="round" transform="translate(11.854414, 16.000000) scale(-1, 1) rotate(-330.000000) translate(-11.854414, -16.000000) " points="10 16.9090909 11.5151515 16.9090909 10.3525641 21 13.7088274 15.5571096 11.969697 15.5571096 13.1193625 11 11.2353046 11"></polygon>
            <polygon id="Path-14-Copy" stroke="#FF7F0F" fill="#FF7F0F" stroke-linejoin="round" transform="translate(9.854414, 23.000000) scale(-1, 1) rotate(-285.000000) translate(-9.854414, -23.000000) " points="8 23.9090909 9.51515152 23.9090909 8.3525641 28 11.7088274 22.5571096 9.96969697 22.5571096 11.1193625 18 9.23530455 18"></polygon>
            <polygon id="Path-14-Copy-2" stroke="#FF7F0F" fill="#FF7F0F" stroke-linejoin="round" transform="translate(10.854414, 30.000000) scale(-1, 1) rotate(-255.000000) translate(-10.854414, -30.000000) " points="9 30.9090909 10.5151515 30.9090909 9.3525641 35 12.7088274 29.5571096 10.969697 29.5571096 12.1193625 25 10.2353046 25"></polygon>
        </g>
    </g>
</svg>