<svg width="82" height="113" viewBox="0 0 82 113" fill="none" xmlns="http://www.w3.org/2000/svg">
<path fill-rule="evenodd" clip-rule="evenodd" d="M40.9877 112.136C62.563 112.136 77.3591 91.7771 77.3591 70.0157C77.3591 48.2544 62.563 33.3307 40.9877 33.3307C19.4123 33.3307 4.61621 48.2544 4.61621 70.0157C4.61621 91.7771 19.4123 112.136 40.9877 112.136Z" stroke="#FF7F0F"/>
<path fill-rule="evenodd" clip-rule="evenodd" d="M40.9878 106.074C58.9672 106.074 71.2973 89.3692 71.2973 71.5138C71.2973 53.6583 55.1322 39.3926 39.9774 39.3926C24.8227 39.3926 10.6782 53.6583 10.6782 71.5138C10.6782 89.3692 23.0083 106.074 40.9878 106.074Z" fill="#FFF2E7"/>
<path d="M30.8843 83.8466C34.252 86.5408 37.6197 87.8879 40.9875 87.8879C44.3552 87.8879 47.7229 86.5408 51.0906 83.8466" stroke="#FDD5B4" stroke-width="6" stroke-linecap="round"/>
<path d="M30.8843 83.8466C34.252 86.5408 37.6197 87.8879 40.9875 87.8879C44.3552 87.8879 47.7229 86.5408 51.0906 83.8466" stroke="#FF7F0F" stroke-linecap="round"/>
<path d="M20.7812 66.1661C22.8019 64.1454 24.8225 63.1351 26.8432 63.1351C28.8638 63.1351 30.8844 64.1454 32.9051 66.1661" stroke="#FDD5B4" stroke-width="6" stroke-linecap="round"/>
<path d="M49.0698 66.1661C51.0905 64.1454 53.1111 63.1351 55.1317 63.1351C57.1524 63.1351 59.173 64.1454 61.1936 66.1661" stroke="#FDD5B4" stroke-width="6" stroke-linecap="round"/>
<path d="M20.7812 66.1661C22.8019 64.1454 24.8225 63.1351 26.8432 63.1351C28.8638 63.1351 30.8844 64.1454 32.9051 66.1661" stroke="#FF7F0F" stroke-linecap="round"/>
<path d="M49.0698 66.1661C51.0905 64.1454 53.1111 63.1351 55.1317 63.1351C57.1524 63.1351 59.173 64.1454 61.1936 66.1661" stroke="#FF7F0F" stroke-linecap="round"/>
<path fill-rule="evenodd" clip-rule="evenodd" d="M53.1115 17.1656C60.1196 18.9831 66.2457 21.2069 73.3179 30.2998C80.3901 39.3926 84.1093 54.0312 77.7 63.6402C70.2224 43.3545 53.2701 33.2514 26.8433 33.3307C35.8458 20.347 44.6019 14.9587 53.1115 17.1656Z" fill="#FFF2E7" stroke="#FF7F0F" stroke-linejoin="round"/>
<path fill-rule="evenodd" clip-rule="evenodd" d="M3.60577 61.6196C5.23734 66.5144 12.6986 29.2895 57.3185 31.1187C65.2154 10.5116 62.0566 1 38.3658 1C28.8894 1 17.7502 3.02119 12.6986 13.1244C7.26309 23.9954 10.5542 25.2381 22.5718 16.8522C3.19234 26.4908 -3.12969 41.4133 3.60577 61.6196Z" fill="#FFF2E7" stroke="#FF7F0F" stroke-linejoin="round"/>
</svg>
