<svg width="82" height="113" viewBox="0 0 82 113" fill="none" xmlns="http://www.w3.org/2000/svg">
<path fill-rule="evenodd" clip-rule="evenodd" d="M40.9876 112.135C62.5629 112.135 77.359 91.7769 77.359 70.0156C77.359 48.2543 62.5629 33.3307 40.9876 33.3307C19.4123 33.3307 4.61621 48.2543 4.61621 70.0156C4.61621 91.7769 19.4123 112.135 40.9876 112.135Z" stroke="#FF7F0F" stroke-width="1.3"/>
<path fill-rule="evenodd" clip-rule="evenodd" d="M40.9872 106.073C58.9666 106.073 71.2967 89.3691 71.2967 71.5137C71.2967 53.6582 55.1316 39.3926 39.9769 39.3926C24.8222 39.3926 10.6777 53.6582 10.6777 71.5137C10.6777 89.3691 23.0078 106.073 40.9872 106.073Z" fill="#FFD3AD"/>
<path d="M30.8843 83.8465C34.252 86.5407 37.6197 87.8878 40.9874 87.8878C44.3552 87.8878 47.7229 86.5407 51.0906 83.8465" stroke="#FFF2E7" stroke-width="6" stroke-linecap="round"/>
<path d="M30.8843 83.8465C34.252 86.5407 37.6197 87.8878 40.9874 87.8878C44.3552 87.8878 47.7229 86.5407 51.0906 83.8465" stroke="#FF7F0F" stroke-width="1.3" stroke-linecap="round"/>
<path d="M20.7808 66.166C22.8014 64.1453 24.822 63.135 26.8427 63.135C28.8633 63.135 30.8839 64.1453 32.9046 66.166" stroke="#FFF2E7" stroke-width="6" stroke-linecap="round"/>
<path d="M49.0698 66.166C51.0905 64.1453 53.1111 63.135 55.1317 63.135C57.1524 63.135 59.173 64.1453 61.1936 66.166" stroke="#FFF2E7" stroke-width="6" stroke-linecap="round"/>
<path d="M20.7808 66.166C22.8014 64.1453 24.822 63.135 26.8427 63.135C28.8633 63.135 30.8839 64.1453 32.9046 66.166" stroke="#FF7F0F" stroke-width="1.3" stroke-linecap="round"/>
<path d="M49.0698 66.166C51.0905 64.1453 53.1111 63.135 55.1317 63.135C57.1524 63.135 59.173 64.1453 61.1936 66.166" stroke="#FF7F0F" stroke-width="1.3" stroke-linecap="round"/>
<path fill-rule="evenodd" clip-rule="evenodd" d="M53.111 17.1656C60.119 18.9831 66.2451 21.2069 73.3173 30.2997C80.3895 39.3926 84.1088 54.0312 77.6994 63.6402C70.2218 43.3545 53.2696 33.2513 26.8428 33.3307C35.8453 20.347 44.6014 14.9587 53.111 17.1656Z" fill="#FFF2E7" stroke="#FF7F0F" stroke-width="1.3" stroke-linejoin="round"/>
<path fill-rule="evenodd" clip-rule="evenodd" d="M3.60576 61.6195C5.23734 66.5143 12.6986 29.2894 57.3184 31.1187C65.2153 10.5115 62.0565 1 38.3657 1C28.8894 1 17.7502 3.02119 12.6986 13.1244C7.26308 23.9954 10.5541 25.238 22.5718 16.8522C3.19233 26.4908 -3.12968 41.4132 3.60576 61.6195Z" fill="#FFF2E7" stroke="#FF7F0F" stroke-width="1.3" stroke-linejoin="round"/>
</svg>
