<?xml version="1.0" encoding="UTF-8"?>
<svg width="44px" height="44px" viewBox="0 0 44 44" version="1.1" xmlns="http://www.w3.org/2000/svg" xmlns:xlink="http://www.w3.org/1999/xlink">
    <title>mood/energetic/44x44</title>
    <g id="Page-1" stroke="none" stroke-width="1" fill="none" fill-rule="evenodd">
        <g id="mood/energetic/44x44" transform="translate(0.000000, 0.000000)">
            <path d="M12.819426,-5.17920154e-16 L31.180574,5.17920154e-16 C35.6381677,-3.00926524e-16 37.2545989,0.464128056 38.8842285,1.33566352 C40.5138581,2.20719898 41.792801,3.48614185 42.6643365,5.11577148 C43.5358719,6.74540111 44,8.3618323 44,12.819426 L44,31.180574 C44,35.6381677 43.5358719,37.2545989 42.6643365,38.8842285 C41.792801,40.5138581 40.5138581,41.792801 38.8842285,42.6643365 C37.2545989,43.5358719 35.6381677,44 31.180574,44 L12.819426,44 C8.3618323,44 6.74540111,43.5358719 5.11577148,42.6643365 C3.48614185,41.792801 2.20719898,40.5138581 1.33566352,38.8842285 C0.464128056,37.2545989 2.00617683e-16,35.6381677 -3.45280103e-16,31.180574 L3.45280103e-16,12.819426 C-2.00617683e-16,8.3618323 0.464128056,6.74540111 1.33566352,5.11577148 C2.20719898,3.48614185 3.48614185,2.20719898 5.11577148,1.33566352 C6.74540111,0.464128056 8.3618323,3.00926524e-16 12.819426,-5.17920154e-16 Z" id="Rectangle" fill="#FDD5B4"></path>
            <path d="M33.5,34.5 C33.1666667,33.5 32,32.3333333 30,31 C27.3333333,33 22.1666667,33.3333333 14.5,32 C12.1666667,31.3333333 11.5,29.3333333 12.5,26 C13.8333333,22 16.3333333,17.8333333 20,13.5 C20.4406161,12.9792719 21.0889244,10.1029109 21.5,9.5 C23.1666667,6.83333333 25.3333333,7 28,10 C28.6666667,12.6666667 27.6666667,14.3333333 25,15 C24,15 23.5,12.5 24.5,12.5 C25.1666667,12.5 25.6666667,12.6666667 26,13" id="Path-6" stroke="#FF7F0F" stroke-linecap="round" stroke-linejoin="round"></path>
            <path d="M26.5,24 C27.1666667,23 28.5,22.5 30.5,22.5 C34.4383344,22.5 34.5,24.5 34.5,24.5" id="Path-7" stroke="#FF7F0F" stroke-linecap="round" stroke-linejoin="round"></path>
            <path d="M17.5,26 C19.1666667,23.6666667 21,22.5 23,22.5 C25,22.5 26.3333333,23.3333333 27,25" id="Path-8" stroke="#FF7F0F" stroke-linecap="round" stroke-linejoin="round"></path>
            <path d="M19.5,24 C21.2335281,16.366764 22.4001948,12.7000974 23,13 C23.6666667,13.3333333 24,13.5 24,13.5" id="Path-9" stroke="#FF7F0F"></path>
        </g>
    </g>
</svg>