<?xml version="1.0" encoding="UTF-8"?>
<svg width="44px" height="44px" viewBox="0 0 44 44" version="1.1" xmlns="http://www.w3.org/2000/svg" xmlns:xlink="http://www.w3.org/1999/xlink">
    <title>mood/moodswing/44x44</title>
    <g id="Page-1" stroke="none" stroke-width="1" fill="none" fill-rule="evenodd">
        <g id="mood/moodswing/44x44">
            <g id="Group-6">
                <path d="M12.819426,-5.17920154e-16 L31.180574,5.17920154e-16 C35.6381677,-3.00926524e-16 37.2545989,0.464128056 38.8842285,1.33566352 C40.5138581,2.20719898 41.792801,3.48614185 42.6643365,5.11577148 C43.5358719,6.74540111 44,8.3618323 44,12.819426 L44,31.180574 C44,35.6381677 43.5358719,37.2545989 42.6643365,38.8842285 C41.792801,40.5138581 40.5138581,41.792801 38.8842285,42.6643365 C37.2545989,43.5358719 35.6381677,44 31.180574,44 L12.819426,44 C8.3618323,44 6.74540111,43.5358719 5.11577148,42.6643365 C3.48614185,41.792801 2.20719898,40.5138581 1.33566352,38.8842285 C0.464128056,37.2545989 2.00617683e-16,35.6381677 -3.45280103e-16,31.180574 L3.45280103e-16,12.819426 C-2.00617683e-16,8.3618323 0.464128056,6.74540111 1.33566352,5.11577148 C2.20719898,3.48614185 3.48614185,2.20719898 5.11577148,1.33566352 C6.74540111,0.464128056 8.3618323,3.00926524e-16 12.819426,-5.17920154e-16 Z" id="Rectangle" fill="#FDD5B4"></path>
                <path d="M18,31.5 C24.8217394,31.5 29.5,25.0414904 29.5,18.137931 C29.5,11.2343717 24.8217394,6.5 18,6.5 C11.1782606,6.5 6.5,11.2343717 6.5,18.137931 C6.5,25.0414904 11.1782606,31.5 18,31.5 Z" id="Oval" stroke="#FF7F0F"></path>
                <circle id="Oval" fill="#FF7F0F" cx="13.5" cy="16.5" r="2.5"></circle>
                <path d="M13.5,19.5 C14.8807119,19.5 18,20.8807119 18,19.5 C18,18.1192881 14.8807119,17 13.5,17 C12.1192881,17 9.5,18.1192881 9.5,19.5 C9.5,20.8807119 12.1192881,19.5 13.5,19.5 Z" id="Oval-Copy-2" fill="#FDD5B4"></path>
                <rect id="Rectangle-Copy" fill="#FFFFFF" x="14" y="15" width="1" height="1"></rect>
                <path d="M12.5,22.5 C13.1666667,23.1666667 14.6666667,23.5 17,23.5 C19.3333333,23.5 20.5,23.1666667 20.5,22.5" id="Line" stroke="#FF7F0F" stroke-linecap="round"></path>
                <circle id="Oval-Copy" fill="#FF7F0F" cx="22.5" cy="16.5" r="2.5"></circle>
                <path d="M22.5,19.5 C23.8807119,19.5 27,20.8807119 27,19.5 C27,18.1192881 23.8807119,17 22.5,17 C21.1192881,17 18.5,18.1192881 18.5,19.5 C18.5,20.8807119 21.1192881,19.5 22.5,19.5 Z" id="Oval-Copy-3" fill="#FDD5B4"></path>
                <rect id="Rectangle" stroke="#FFFFFF" x="23" y="15" width="1" height="1"></rect>
                <rect id="Rectangle" fill="#FDD5B4" x="24" y="2" width="12" height="34"></rect>
                <path d="M26,9.5 C32.8217394,9.5 37.5,14.2343717 37.5,21.137931 C37.5,28.0414904 32.8217394,34.5 26,34.5 C24.9453862,34.5 23.9420014,34.3456421 22.9992112,34.0591449 L22.9998154,9.8298366 C23.9424301,9.61310282 24.9456115,9.5 26,9.5 Z" id="Combined-Shape" stroke="#FF7F0F" fill="#FDD5B4"></path>
                <path d="M24,28.5 C28.5,28.5 28.5,27.5 28.5,27.5" id="Line" stroke="#FF7F0F" stroke-linecap="round" transform="translate(26.250000, 28.000000) scale(1, -1) translate(-26.250000, -28.000000) "></path>
                <polygon id="Path-14" stroke="#FF7F0F" fill="#FDD5B4" stroke-linejoin="round" transform="translate(21.380435, 21.500000) scale(-1, 1) translate(-21.380435, -21.500000) " points="15.2608696 24.5 20.2608696 24.5 16.4243311 38 27.5 20.0384615 21.7608696 20.0384615 25.5547659 5 19.3373746 5"></polygon>
                <circle id="Oval" fill="#FF7F0F" transform="translate(31.448889, 22.500000) scale(-1, 1) translate(-31.448889, -22.500000) " cx="31.4488887" cy="22.5" r="2.5"></circle>
                <path d="M32.268562,21.3058857 C33.4056189,21.3058857 35.9744444,22.6865976 35.9744444,21.3058857 C35.9744444,19.9251738 33.4056189,18.8058857 32.268562,18.8058857 C31.1315052,18.8058857 28.9744444,19.9251738 28.9744444,21.3058857 C28.9744444,22.6865976 31.1315052,21.3058857 32.268562,21.3058857 Z" id="Oval-Copy-2" fill="#FDD5B4" transform="translate(32.474444, 20.362711) scale(-1, -1) rotate(-345.000000) translate(-32.474444, -20.362711) "></path>
            </g>
            <g id="Group-3" transform="translate(6.500000, 2.000000)">
                <g id="Group-4" transform="translate(0.000000, 4.500000)">
                    <g id="Group" transform="translate(3.000000, 7.500000)"></g>
                </g>
                <g id="Group-2" transform="translate(12.000000, 12.000000)"></g>
            </g>
            <g id="Group-Copy" transform="translate(27.948889, 17.805886)"></g>
        </g>
    </g>
</svg>