<?xml version="1.0" encoding="UTF-8"?>
<svg width="68px" height="68px" viewBox="0 0 68 68" version="1.1" xmlns="http://www.w3.org/2000/svg" xmlns:xlink="http://www.w3.org/1999/xlink">
    <title>symptom/diarrhea/68x68</title>
    <g id="Page-1" stroke="none" stroke-width="1" fill="none" fill-rule="evenodd">
        <g id="symptom/diarrhea/68x68">
            <path d="M12.819426,-2.33158843e-15 L55.180574,5.17920154e-16 C59.6381677,-3.00926524e-16 61.2545989,0.464128056 62.8842285,1.33566352 C64.5138581,2.20719898 65.792801,3.48614185 66.6643365,5.11577148 C67.5358719,6.74540111 68,8.3618323 68,12.819426 L68,55.180574 C68,59.6381677 67.5358719,61.2545989 66.6643365,62.8842285 C65.792801,64.5138581 64.5138581,65.792801 62.8842285,66.6643365 C61.2545989,67.5358719 59.6381677,68 55.180574,68 L12.819426,68 C8.3618323,68 6.74540111,67.5358719 5.11577148,66.6643365 C3.48614185,65.792801 2.20719898,64.5138581 1.33566352,62.8842285 C0.464128056,61.2545989 1.25441118e-15,59.6381677 -2.15894838e-15,55.180574 L3.45280103e-16,12.819426 C-2.00617683e-16,8.3618323 0.464128056,6.74540111 1.33566352,5.11577148 C2.20719898,3.48614185 3.48614185,2.20719898 5.11577148,1.33566352 C6.74540111,0.464128056 8.3618323,1.35472002e-15 12.819426,-2.33158843e-15 Z" id="Rectangle" fill="#FFF2E7"></path>
            <g id="Group" transform="translate(20.000000, 20.000000)" stroke="#FF7F0F">
                <path d="M0.0661157025,0 L8,0 L8,13.9612188 C5.09090909,14.2197599 2.97520661,13.1855956 1.65289256,10.8587258 C0.330578512,8.53185596 -0.198347107,4.9122807 0.0661157025,0 Z" id="Rectangle"></path>
                <path d="M3,14 L26,14 C26,16 25.7444444,17.75 25.2333333,19.25 C24.7222222,20.75 23.4444444,22 21.4,23 L21.4,26 L7.6,26 L7.6,23 C5.55555556,21.5 4.27777778,20.25 3.76666667,19.25 C3.25555556,18.25 3,16.5 3,14 Z" id="Rectangle"></path>
            </g>
        </g>
    </g>
</svg>