<?xml version="1.0" encoding="UTF-8"?>
<svg width="68px" height="68px" viewBox="0 0 68 68" version="1.1" xmlns="http://www.w3.org/2000/svg" xmlns:xlink="http://www.w3.org/1999/xlink">
    <title>mood/energetic/68x68</title>
    <g id="Page-1" stroke="none" stroke-width="1" fill="none" fill-rule="evenodd">
        <g id="mood/energetic/68x68" transform="translate(0.000000, 0.000000)">
            <path d="M12.819426,-2.33158843e-15 L55.180574,5.17920154e-16 C59.6381677,-3.00926524e-16 61.2545989,0.464128056 62.8842285,1.33566352 C64.5138581,2.20719898 65.792801,3.48614185 66.6643365,5.11577148 C67.5358719,6.74540111 68,8.3618323 68,12.819426 L68,55.180574 C68,59.6381677 67.5358719,61.2545989 66.6643365,62.8842285 C65.792801,64.5138581 64.5138581,65.792801 62.8842285,66.6643365 C61.2545989,67.5358719 59.6381677,68 55.180574,68 L12.819426,68 C8.3618323,68 6.74540111,67.5358719 5.11577148,66.6643365 C3.48614185,65.792801 2.20719898,64.5138581 1.33566352,62.8842285 C0.464128056,61.2545989 1.25441118e-15,59.6381677 -2.15894838e-15,55.180574 L3.45280103e-16,12.819426 C-2.00617683e-16,8.3618323 0.464128056,6.74540111 1.33566352,5.11577148 C2.20719898,3.48614185 3.48614185,2.20719898 5.11577148,1.33566352 C6.74540111,0.464128056 8.3618323,1.35472002e-15 12.819426,-2.33158843e-15 Z" id="Rectangle" fill="#FDD5B4"></path>
            <path d="M50.05,55.6176471 C49.5060995,53.9808856 47.6024476,52.0713305 44.3390443,49.8889819 C38.7796814,52.6296606 30.349223,53.1752478 19.047669,51.5257433 C15.2403652,50.434569 14.1525641,47.161046 15.7842657,41.7051744 C17.9598679,35.1581285 22.039122,28.3382889 28.022028,21.2456558 C28.740982,20.3933481 29.7988277,15.6854311 30.4695804,14.6986099 C33.1890831,10.3339126 36.7244367,10.6067061 41.075641,15.5169906 C42.1634421,19.8816879 40.5317405,22.6096237 36.1805361,23.700798 C34.5488345,23.700798 33.7329837,19.6088943 35.3646853,19.6088943 C36.4524864,19.6088943 37.2683372,19.8816879 37.8122378,20.4272751" id="Path-6" stroke="#FF7F0F" stroke-linecap="round" stroke-linejoin="round"></path>
            <path d="M39.05,38.6176471 C40.1,37.2058824 42.25,36.5 45.5,36.5 C51.8997934,36.5 52.05,39.6176471 52.05,39.6176471" id="Path-7" stroke="#FF7F0F" stroke-linecap="round" stroke-linejoin="round"></path>
            <path d="M24.05,41.6176471 C26.5254386,38.2058824 29.3421053,36.5 32.5,36.5 C35.6578947,36.5 37.8245614,37.1666667 39,38.5" id="Path-8" stroke="#FF7F0F" stroke-linecap="round" stroke-linejoin="round"></path>
            <path d="M27.05,38.6176471 C30.1504825,27.3050881 32.2245565,21.3143498 33.2722222,20.6454324 C33.5,20.5 34.5,21 34.5,21" id="Path-9" stroke="#FF7F0F"></path>
        </g>
    </g>
</svg>