<?xml version="1.0" encoding="UTF-8"?>
<svg width="68px" height="68px" viewBox="0 0 68 68" version="1.1" xmlns="http://www.w3.org/2000/svg" xmlns:xlink="http://www.w3.org/1999/xlink">
    <title>symptom/allIsWell/68x68</title>
    <g id="Page-1" stroke="none" stroke-width="1" fill="none" fill-rule="evenodd">
        <g id="symptom/allIsWell/68x68">
            <path d="M12.819426,-2.33158843e-15 L55.180574,5.17920154e-16 C59.6381677,-3.00926524e-16 61.2545989,0.464128056 62.8842285,1.33566352 C64.5138581,2.20719898 65.792801,3.48614185 66.6643365,5.11577148 C67.5358719,6.74540111 68,8.3618323 68,12.819426 L68,55.180574 C68,59.6381677 67.5358719,61.2545989 66.6643365,62.8842285 C65.792801,64.5138581 64.5138581,65.792801 62.8842285,66.6643365 C61.2545989,67.5358719 59.6381677,68 55.180574,68 L12.819426,68 C8.3618323,68 6.74540111,67.5358719 5.11577148,66.6643365 C3.48614185,65.792801 2.20719898,64.5138581 1.33566352,62.8842285 C0.464128056,61.2545989 1.25441118e-15,59.6381677 -2.15894838e-15,55.180574 L3.45280103e-16,12.819426 C-2.00617683e-16,8.3618323 0.464128056,6.74540111 1.33566352,5.11577148 C2.20719898,3.48614185 3.48614185,2.20719898 5.11577148,1.33566352 C6.74540111,0.464128056 8.3618323,1.35472002e-15 12.819426,-2.33158843e-15 Z" id="Rectangle" fill="#FDD5B4"></path>
            <g id="Group" transform="translate(18.000000, 9.000000)" stroke="#FF7F0F" stroke-linecap="round" stroke-linejoin="round">
                <path d="M27.1271586,26.5341066 C25.3186813,20.434312 20.1946625,17.079425 11.755102,16.4694455 C6.32967033,18.2993839 2.41130298,21.0442915 0,24.7041683 C1.80847724,28.364045 4.52119309,28.6690348 8.13814757,25.6191374 C11.755102,22.5692401 15.0706436,22.2642504 18.0847724,24.7041683 C20.4960754,28.364045 20.4960754,31.7189321 18.0847724,34.7688294 C15.6734694,37.8187267 12.3579278,38.1237164 8.13814757,35.6837986 C6.32967033,29.584004 3.61695447,27.4490758 0,29.2790142 C0,29.2790142 0,32.938891 1.80847724,39.3436754 C3.61695447,45.7484597 11.755102,51.2382749 23.5102041,45.7484597 C31.3469388,42.0885829 33.7582418,32.938891 30.744113,18.2993839 C24.7158556,9.14969194 17.7833595,3.04989731 9.9466248,0 C6.93249608,3.65987678 8.74097331,7.01476382 15.3720565,10.0646611 L20.7974882,18.2993839" id="Path-27"></path>
                <path d="M8.80898876,5 C7.37078652,7.13333333 7.85018727,9.53333333 10.247191,12.2 C12.2337714,14.4100707 12.8978614,14.6992472 16,17" id="Path-29"></path>
            </g>
        </g>
    </g>
</svg>