<svg width="82" height="92" viewBox="0 0 82 92" fill="none" xmlns="http://www.w3.org/2000/svg">
<path d="M62.9048 78.7143V90.9047" stroke="#FF7F0F" stroke-linecap="round" stroke-linejoin="round"/>
<path fill-rule="evenodd" clip-rule="evenodd" d="M55.2857 29.5714C55.2857 29.5714 49.2539 36.4385 37.1904 50.1726C40.5419 63.7144 44.6689 72.403 49.5714 76.2381C56.9252 81.9908 68.5225 45.3915 55.2857 29.5714Z" fill="#FFD3AD"/>
<path d="M81 1L37.1904 50.3706C40.1111 74.3078 52.2804 83.2843 73.6984 77.2999" stroke="#FF7F0F" stroke-linecap="round" stroke-linejoin="round"/>
<path fill-rule="evenodd" clip-rule="evenodd" d="M28.4515 30.6569L24.7343 32.7638L33.3811 41L17.4374 32.558L21.7041 30.1397L12.4287 20.7627L17.051 18.1429L28.4515 30.6569Z" fill="#FF7F0F" stroke="#FF7F0F" stroke-linejoin="round"/>
<path fill-rule="evenodd" clip-rule="evenodd" d="M20.1372 47.6114L18.9853 51.5171L31.4762 51.3459L13.4816 56.2381L14.8038 51.755L1 51.571L2.43235 46.7143L20.1372 47.6114Z" fill="#FF7F0F" stroke="#FF7F0F" stroke-linejoin="round"/>
<path fill-rule="evenodd" clip-rule="evenodd" d="M21.1331 65.9376L22.3211 70.1769L33.381 63.8571L20.0848 77.3281L18.7212 72.4622L6.28689 79.0952L4.80957 73.8239L21.1331 65.9376Z" fill="#FF7F0F" stroke="#FF7F0F" stroke-linejoin="round"/>
</svg>
