<?xml version="1.0" encoding="UTF-8"?>
<svg width="44px" height="44px" viewBox="0 0 44 44" version="1.1" xmlns="http://www.w3.org/2000/svg" xmlns:xlink="http://www.w3.org/1999/xlink">
    <title>mood/feelingGuilty/44x44</title>
    <g id="Page-1" stroke="none" stroke-width="1" fill="none" fill-rule="evenodd">
        <g id="mood/feelingGuilty/44x44">
            <path d="M12.819426,-5.17920154e-16 L31.180574,5.17920154e-16 C35.6381677,-3.00926524e-16 37.2545989,0.464128056 38.8842285,1.33566352 C40.5138581,2.20719898 41.792801,3.48614185 42.6643365,5.11577148 C43.5358719,6.74540111 44,8.3618323 44,12.819426 L44,31.180574 C44,35.6381677 43.5358719,37.2545989 42.6643365,38.8842285 C41.792801,40.5138581 40.5138581,41.792801 38.8842285,42.6643365 C37.2545989,43.5358719 35.6381677,44 31.180574,44 L12.819426,44 C8.3618323,44 6.74540111,43.5358719 5.11577148,42.6643365 C3.48614185,41.792801 2.20719898,40.5138581 1.33566352,38.8842285 C0.464128056,37.2545989 2.00617683e-16,35.6381677 -3.45280103e-16,31.180574 L3.45280103e-16,12.819426 C-2.00617683e-16,8.3618323 0.464128056,6.74540111 1.33566352,5.11577148 C2.20719898,3.48614185 3.48614185,2.20719898 5.11577148,1.33566352 C6.74540111,0.464128056 8.3618323,3.00926524e-16 12.819426,-5.17920154e-16 Z" id="Rectangle" fill="#FDD5B4"></path>
            <ellipse id="Oval" stroke="#FF7F0F" cx="17" cy="17" rx="9" ry="10"></ellipse>
            <path d="M21,34.5 C27.8217394,34.5 32.5,28.0414904 32.5,21.137931 C32.5,14.2343717 27.8217394,9.5 21,9.5 C14.1782606,9.5 9.5,14.2343717 9.5,21.137931 C9.5,28.0414904 14.1782606,34.5 21,34.5 Z" id="Oval" stroke="#FF7F0F" fill="#FDD5B4"></path>
            <g id="Group" transform="translate(11.948889, 17.090774)">
                <path d="M4.31967328,4.21511205 C5.45673012,4.21511205 8.02555563,5.59582392 8.02555563,4.21511205 C8.02555563,2.83440017 5.45673012,1.71511205 4.31967328,1.71511205 C3.18261644,1.71511205 1.02555563,2.83440017 1.02555563,4.21511205 C1.02555563,5.59582392 3.18261644,4.21511205 4.31967328,4.21511205 Z" id="Oval-Copy-2" fill="#FDD5B4" transform="translate(4.525556, 3.271937) scale(1, -1) rotate(-345.000000) translate(-4.525556, -3.271937) "></path>
                <g id="Group-Copy" transform="translate(0.000000, 1.000000)">
                    <circle id="Oval-Copy" fill="#FF7F0F" transform="translate(2.500000, 5.409226) scale(-1, 1) translate(-2.500000, -5.409226) " cx="2.5" cy="5.40922633" r="2.5"></circle>
                    <path d="M4.58474906,5.71623279 C5.55936921,5.71623279 7.17081318,5.49248331 7.17081318,4.11177143 C7.17081318,2.73105956 4.96896274,1.61177143 3.99434259,1.61177143 C3.01972244,1.61177143 1.17081318,2.73105956 1.17081318,4.11177143 C1.17081318,5.49248331 3.61012891,5.71623279 4.58474906,5.71623279 Z" id="Oval-Copy-2" fill="#FDD5B4" transform="translate(4.170813, 3.664002) scale(-1, -1) rotate(-345.000000) translate(-4.170813, -3.664002) "></path>
                </g>
            </g>
            <g id="Group-Copy-2" transform="translate(19.948889, 17.090774)">
                <path d="M4.31967328,4.21511205 C5.45673012,4.21511205 8.02555563,5.59582392 8.02555563,4.21511205 C8.02555563,2.83440017 5.45673012,1.71511205 4.31967328,1.71511205 C3.18261644,1.71511205 1.02555563,2.83440017 1.02555563,4.21511205 C1.02555563,5.59582392 3.18261644,4.21511205 4.31967328,4.21511205 Z" id="Oval-Copy-2" fill="#FDD5B4" transform="translate(4.525556, 3.271937) scale(1, -1) rotate(-345.000000) translate(-4.525556, -3.271937) "></path>
                <g id="Group-Copy" transform="translate(0.000000, 1.000000)">
                    <circle id="Oval-Copy" fill="#FF7F0F" transform="translate(2.500000, 5.409226) scale(-1, 1) translate(-2.500000, -5.409226) " cx="2.5" cy="5.40922633" r="2.5"></circle>
                    <path d="M4.58474906,5.71623279 C5.55936921,5.71623279 7.17081318,5.49248331 7.17081318,4.11177143 C7.17081318,2.73105956 4.96896274,1.61177143 3.99434259,1.61177143 C3.01972244,1.61177143 1.17081318,2.73105956 1.17081318,4.11177143 C1.17081318,5.49248331 3.61012891,5.71623279 4.58474906,5.71623279 Z" id="Oval-Copy-2" fill="#FDD5B4" transform="translate(4.170813, 3.664002) scale(-1, -1) rotate(-345.000000) translate(-4.170813, -3.664002) "></path>
                </g>
            </g>
            <line x1="19.5" y1="28.5" x2="21.5" y2="28.5" id="Line" stroke="#FF7F0F" stroke-linecap="square"></line>
            <path d="M17.5,15.5 C21,16.5 27.5,17 28.5,21 C28.9520462,22.8081848 27.275225,29.9967178 30,33.5 C32.3333333,36.5 35,37 38,35 C35.9387903,32.1969102 34.9387903,30.0302436 35,28.5 C35.0612097,26.9697564 35.3945431,24.8030898 36,22 C35.6666667,11.6666667 31.1666667,6.5 22.5,6.5 C15.645521,6.5 12.5,7 12.5,10 C12.5,13 15.8440208,15.0268631 17.5,15.5 Z" id="Path-26" stroke="#FF7F0F" fill="#FDD5B4" stroke-linejoin="round"></path>
        </g>
    </g>
</svg>