<?xml version="1.0" encoding="UTF-8"?>
<svg width="70px" height="68px" viewBox="0 0 70 68" version="1.1" xmlns="http://www.w3.org/2000/svg" xmlns:xlink="http://www.w3.org/1999/xlink">
    <title>mood/depressed/68x68</title>
    <g id="Page-1" stroke="none" stroke-width="1" fill="none" fill-rule="evenodd">
        <g id="mood/depressed/68x68/dark" transform="translate(1.000000, 0.000000)">
            <g id="mood/depressed/68x68" transform="translate(-0.800000, 0.000000)">
                <path d="M13.619426,-2.33158843e-15 L55.980574,5.17920154e-16 C60.4381677,-3.00926524e-16 62.0545989,0.464128056 63.6842285,1.33566352 C65.3138581,2.20719898 66.592801,3.48614185 67.4643365,5.11577148 C68.3358719,6.74540111 68.8,8.3618323 68.8,12.819426 L68.8,55.180574 C68.8,59.6381677 68.3358719,61.2545989 67.4643365,62.8842285 C66.592801,64.5138581 65.3138581,65.792801 63.6842285,66.6643365 C62.0545989,67.5358719 60.4381677,68 55.980574,68 L13.619426,68 C9.1618323,68 7.54540111,67.5358719 5.91577148,66.6643365 C4.28614185,65.792801 3.00719898,64.5138581 2.13566352,62.8842285 C1.26412806,61.2545989 0.8,59.6381677 0.8,55.180574 L0.8,12.819426 C0.8,8.3618323 1.26412806,6.74540111 2.13566352,5.11577148 C3.00719898,3.48614185 4.28614185,2.20719898 5.91577148,1.33566352 C7.54540111,0.464128056 9.1618323,1.35472002e-15 13.619426,-2.33158843e-15 Z" id="Rectangle" fill="#FDD5B4"></path>
                <path d="M34.5,60 C44.8809078,60 52,49.924725 52,39.1551724 C52,28.3856198 44.8809078,21 34.5,21 C24.1190922,21 17,28.3856198 17,39.1551724 C17,49.924725 24.1190922,60 34.5,60 Z" id="Oval" stroke="#FF7F0F" fill="#FDD5B4"></path>
                <path d="M31,52 C31.9333333,52.6666667 32.8666667,53 33.8,53 C35.4177896,53 36.8177896,53 38,53" id="Line" stroke="#FF7F0F" stroke-linecap="round" transform="translate(34.500000, 52.500000) scale(1, -1) translate(-34.500000, -52.500000) "></path>
                <g id="Group" transform="translate(37.000000, 38.000000)">
                    <circle id="Oval" fill="#FF7F0F" transform="translate(4.800000, 6.000000) scale(-1, 1) translate(-4.800000, -6.000000) " cx="4.8" cy="6" r="4"></circle>
                    <path d="M8.14245374,8.34658594 C10.2541262,8.35607899 13.7442241,8.02055785 13.7358689,5.8532701 C13.7274836,3.68598236 8.95003261,1.90760191 6.83836019,1.89807017 C4.72668778,1.8886158 0.727511792,3.6275408 0.735868903,5.79482855 C0.74425225,7.96211629 6.03078133,8.33709288 8.14245374,8.34658594 Z" id="Oval-Copy-2" fill="#FDD5B4" transform="translate(7.235869, 5.122424) scale(-1, -1) rotate(-345.000000) translate(-7.235869, -5.122424) "></path>
                </g>
                <g id="Group" transform="translate(24.500000, 43.000000) scale(-1, 1) translate(-24.500000, -43.000000) translate(17.000000, 38.000000)">
                    <circle id="Oval" fill="#FF7F0F" transform="translate(4.200000, 6.000000) scale(-1, 1) translate(-4.200000, -6.000000) " cx="4.2" cy="6" r="4"></circle>
                    <path d="M8.14245374,8.34658594 C10.2541262,8.35607899 13.7442241,8.02055785 13.7358689,5.8532701 C13.7274836,3.68598236 8.95003261,1.9076019 6.83836019,1.89807017 C4.72668778,1.8886158 0.727511792,3.6275408 0.735868903,5.79482855 C0.74425225,7.96211629 6.03078133,8.33709288 8.14245374,8.34658594 Z" id="Oval-Copy-2" fill="#FDD5B4" transform="translate(7.235869, 5.122424) scale(-1, -1) rotate(-345.000000) translate(-7.235869, -5.122424) "></path>
                </g>
                <path d="M16.5344828,38 C16.5344828,38 31.1781609,38 60.4655172,38 C62.1551724,38 63,36.9545455 63,34.8636364 C63,31.7272727 58.7758621,32.7727273 55.3965517,32.7727273 C54.5517241,32.7727273 56.2413793,28.5909091 54.5517241,26.5 C53.4252874,25.1060606 51.7356322,24.7575758 49.4827586,25.4545455 C47.7931034,18.4848485 44.6954023,15 40.1896552,15 C38.5,15 34.2758621,16.0454545 32.5862069,22.3181818 C32.5862069,22.3181818 27.5172414,20.2272727 24.9827586,23.3636364 C22.4482759,26.5 23.2931034,29.6363636 23.2931034,32.7727273 C17.2482067,32.7727273 14,31.7272727 14,34.8636364 C14,38 16.5344828,38 16.5344828,38 Z" id="Path-20-Copy-4" stroke="#FF7F0F" fill="#FDD5B4" stroke-linejoin="round"></path>
                <path d="M8.37931034,29 C8.37931034,29 22.1264368,29 49.6206897,29 C51.2068966,29 52,28.1818182 52,26.5454545 C52,24.0909091 48.0344828,24.9090909 44.862069,24.9090909 C44.0689655,24.9090909 45.6551724,21.6363636 44.0689655,20 C43.0114943,18.9090909 41.4252874,18.6363636 39.3103448,19.1818182 C37.7241379,13.7272727 34.816092,11 30.5862069,11 C29,11 25.0344828,11.8181818 23.4482759,16.7272727 C23.4482759,16.7272727 18.6896552,15.0909091 16.3103448,17.5454545 C13.9310345,20 14.7241379,22.4545455 14.7241379,24.9090909 C9.04933689,24.9090909 6,24.0909091 6,26.5454545 C6,29 8.37931034,29 8.37931034,29 Z" id="Path-20-Copy-5" stroke="#FF7F0F" fill="#FDD5B4" stroke-linejoin="round"></path>
            </g>
        </g>
    </g>
</svg>