<?xml version="1.0" encoding="UTF-8"?>
<svg width="44px" height="44px" viewBox="0 0 44 44" version="1.1" xmlns="http://www.w3.org/2000/svg" xmlns:xlink="http://www.w3.org/1999/xlink">
    <title>mood/happy/44x44</title>
    <g id="Page-1" stroke="none" stroke-width="1" fill="none" fill-rule="evenodd">
        <g id="mood/happy/44x44" transform="translate(0.000000, 0.000000)">
            <path d="M12.819426,-5.17920154e-16 L31.180574,5.17920154e-16 C35.6381677,-3.00926524e-16 37.2545989,0.464128056 38.8842285,1.33566352 C40.5138581,2.20719898 41.792801,3.48614185 42.6643365,5.11577148 C43.5358719,6.74540111 44,8.3618323 44,12.819426 L44,31.180574 C44,35.6381677 43.5358719,37.2545989 42.6643365,38.8842285 C41.792801,40.5138581 40.5138581,41.792801 38.8842285,42.6643365 C37.2545989,43.5358719 35.6381677,44 31.180574,44 L12.819426,44 C8.3618323,44 6.74540111,43.5358719 5.11577148,42.6643365 C3.48614185,41.792801 2.20719898,40.5138581 1.33566352,38.8842285 C0.464128056,37.2545989 2.00617683e-16,35.6381677 -3.45280103e-16,31.180574 L3.45280103e-16,12.819426 C-2.00617683e-16,8.3618323 0.464128056,6.74540111 1.33566352,5.11577148 C2.20719898,3.48614185 3.48614185,2.20719898 5.11577148,1.33566352 C6.74540111,0.464128056 8.3618323,3.00926524e-16 12.819426,-5.17920154e-16 Z" id="Rectangle" fill="#FDD5B4"></path>
            <g id="Group-3" transform="translate(8.717488, 5.500000)">
                <path d="M7.2825117,25.5 C4.7825117,24 0.782511696,21 0.782511696,13 C0.782511696,2 9.7825117,0 12.7825117,0 C18.7825117,0 25.7825117,3 25.7825117,13 C25.7825117,23 23.7825117,25.5 22.2825117,31" id="Path-22" stroke="#FF7F0F" fill="#FDD5B4" stroke-linecap="round" stroke-linejoin="round"></path>
                <g id="Group" transform="translate(2.782512, 3.500000)">
                    <path d="M10.5,24.5 C15.5,24.5 20.5,18.5 20.5,14 C20.5,6 18,0 10.5,0 C3,0 0.5,5.5 0.5,14 C0.5,17.5 5.5,24.5 10.5,24.5 Z" id="Oval" stroke="#FF7F0F" fill="#FDD5B4"></path>
                    <circle id="Oval" fill="#FF7F0F" cx="6" cy="10.5" r="2.5"></circle>
                    <path d="M6,13.5 C7.38071187,13.5 10.5,14.8807119 10.5,13.5 C10.5,12.1192881 7.38071187,11 6,11 C4.61928813,11 2,12.1192881 2,13.5 C2,14.8807119 4.61928813,13.5 6,13.5 Z" id="Oval-Copy-2" fill="#FDD5B4"></path>
                    <rect id="Rectangle-Copy" stroke="#FFFFFF" stroke-width="0.5" x="6.75" y="9.25" width="1" height="1"></rect>
                </g>
                <g id="Group-2" transform="translate(13.782512, 11.500000)">
                    <circle id="Oval-Copy" fill="#FF7F0F" cx="4" cy="2.5" r="2.5"></circle>
                    <path d="M4,5.5 C5.38071187,5.5 8.5,6.88071187 8.5,5.5 C8.5,4.11928813 5.38071187,3 4,3 C2.61928813,3 0,4.11928813 0,5.5 C0,6.88071187 2.61928813,5.5 4,5.5 Z" id="Oval-Copy-3" fill="#FDD5B4"></path>
                    <rect id="Rectangle" stroke="#FFFFFF" stroke-width="0.5" x="4.75" y="1.25" width="1" height="1"></rect>
                </g>
                <path d="M9.2825117,20 C10.7825117,22.3333333 12.115845,23.5 13.2825117,23.5 C14.4491784,23.5 15.7825117,22.3333333 17.2825117,20 L9.2825117,20 Z" id="Line" stroke="#FF7F0F" stroke-linecap="round"></path>
                <path d="M5.7825117,7 C9.22695614,6.33333333 11.7269561,6 13.2825117,6 C14.8380673,6 17.3380673,6.33333333 20.7825117,7" id="Line-3" stroke="#FF7F0F" stroke-linecap="round" stroke-linejoin="round"></path>
            </g>
        </g>
    </g>
</svg>