<?xml version="1.0" encoding="UTF-8"?>
<svg width="68px" height="68px" viewBox="0 0 68 68" version="1.1" xmlns="http://www.w3.org/2000/svg" xmlns:xlink="http://www.w3.org/1999/xlink">
    <title>symptom/tiredness/68x68</title>
    <g id="Page-1" stroke="none" stroke-width="1" fill="none" fill-rule="evenodd">
        <g id="symptom/tiredness/68x68">
            <path d="M12.819426,-2.33158843e-15 L55.180574,5.17920154e-16 C59.6381677,-3.00926524e-16 61.2545989,0.464128056 62.8842285,1.33566352 C64.5138581,2.20719898 65.792801,3.48614185 66.6643365,5.11577148 C67.5358719,6.74540111 68,8.3618323 68,12.819426 L68,55.180574 C68,59.6381677 67.5358719,61.2545989 66.6643365,62.8842285 C65.792801,64.5138581 64.5138581,65.792801 62.8842285,66.6643365 C61.2545989,67.5358719 59.6381677,68 55.180574,68 L12.819426,68 C8.3618323,68 6.74540111,67.5358719 5.11577148,66.6643365 C3.48614185,65.792801 2.20719898,64.5138581 1.33566352,62.8842285 C0.464128056,61.2545989 1.25441118e-15,59.6381677 -2.15894838e-15,55.180574 L3.45280103e-16,12.819426 C-2.00617683e-16,8.3618323 0.464128056,6.74540111 1.33566352,5.11577148 C2.20719898,3.48614185 3.48614185,2.20719898 5.11577148,1.33566352 C6.74540111,0.464128056 8.3618323,1.35472002e-15 12.819426,-2.33158843e-15 Z" id="Rectangle" fill="#FDD5B4"></path>
            <path d="M19.3455933,19 C11.0608567,35.0467223 9.78408302,45.735674 15.5152722,51.066855 C24.112056,59.0636265 44.4795669,58.9187336 52.6941276,50.9836146 C58.1705015,45.6935353 56.8429215,35.0323304 48.7113878,19 L19.3455933,19 Z" id="Path-33" stroke="#FF7F0F" stroke-linejoin="round"></path>
            <path d="M34,49 C44.6775052,49 52,38.924725 52,28.1551724 C52,17.3856198 44.6775052,10 34,10 C23.3224948,10 16,17.3856198 16,28.1551724 C16,38.924725 23.3224948,49 34,49 Z" id="Oval" stroke="#FF7F0F" fill="#FDD5B4"></path>
            <line x1="39" y1="22.5" x2="42.3333333" y2="22.5" id="Line" stroke="#FF7F0F" stroke-linecap="round" stroke-linejoin="round"></line>
            <line x1="25.6666667" y1="22.5" x2="29" y2="22.5" id="Line-Copy" stroke="#FF7F0F" stroke-linecap="round" stroke-linejoin="round"></line>
            <path d="M27,21 C27,21 27.6666667,21.3333333 29,22 C27.6666667,21.3333333 27,21 27,21 Z" id="Line-Copy-2" stroke="#FF7F0F" stroke-linecap="round" stroke-linejoin="round"></path>
            <path d="M39,21 C39,21 39.6666667,21.3333333 41,22 C39.6666667,21.3333333 39,21 39,21 Z" id="Line-Copy-3" stroke="#FF7F0F" stroke-linecap="round" stroke-linejoin="round" transform="translate(40.000000, 21.500000) scale(-1, 1) translate(-40.000000, -21.500000) "></path>
            <ellipse id="Oval" stroke="#FF7F0F" cx="34" cy="34" rx="8" ry="6"></ellipse>
            <path d="M23,13.5 C27,14.1666667 30.6666667,14.5 34,14.5 C37.3333333,14.5 41,14.1666667 45,13.5" id="Path-34" stroke="#FF7F0F" stroke-linecap="round" stroke-linejoin="round"></path>
        </g>
    </g>
</svg>