<?xml version="1.0" encoding="UTF-8"?>
<svg width="44px" height="44px" viewBox="0 0 44 44" version="1.1" xmlns="http://www.w3.org/2000/svg" xmlns:xlink="http://www.w3.org/1999/xlink">
    <title>symptom/allIsWell/44x44</title>
    <g id="Page-1" stroke="none" stroke-width="1" fill="none" fill-rule="evenodd">
        <g id="symptom/allIsWell/44x44">
            <path d="M12.819426,-5.17920154e-16 L31.180574,5.17920154e-16 C35.6381677,-3.00926524e-16 37.2545989,0.464128056 38.8842285,1.33566352 C40.5138581,2.20719898 41.792801,3.48614185 42.6643365,5.11577148 C43.5358719,6.74540111 44,8.3618323 44,12.819426 L44,31.180574 C44,35.6381677 43.5358719,37.2545989 42.6643365,38.8842285 C41.792801,40.5138581 40.5138581,41.792801 38.8842285,42.6643365 C37.2545989,43.5358719 35.6381677,44 31.180574,44 L12.819426,44 C8.3618323,44 6.74540111,43.5358719 5.11577148,42.6643365 C3.48614185,41.792801 2.20719898,40.5138581 1.33566352,38.8842285 C0.464128056,37.2545989 2.00617683e-16,35.6381677 -3.45280103e-16,31.180574 L3.45280103e-16,12.819426 C-2.00617683e-16,8.3618323 0.464128056,6.74540111 1.33566352,5.11577148 C2.20719898,3.48614185 3.48614185,2.20719898 5.11577148,1.33566352 C6.74540111,0.464128056 8.3618323,3.00926524e-16 12.819426,-5.17920154e-16 Z" id="Rectangle" fill="#FFF2E7"></path>
            <g id="Group" transform="translate(11.544041, 6.000000)" stroke="#FF7F0F" stroke-linecap="round" stroke-linejoin="round">
                <path d="M17.7275281,17.1366105 C16.5456929,13.1971598 13.1971598,11.030462 7.68192886,10.6365169 C4.13642323,11.8183521 1.57578028,13.5911049 -2.13162821e-14,15.9547753 C1.18183521,18.3184457 2.95458802,18.5154183 5.31825844,16.5456929 C7.68192886,14.5759676 9.84862675,14.378995 11.8183521,15.9547753 C13.3941324,18.3184457 13.3941324,20.4851436 11.8183521,22.454869 C10.2425718,24.4245943 8.07587393,24.6215669 5.31825844,23.0457866 C4.13642323,19.1063359 2.36367042,17.7275281 -2.13162821e-14,18.9093634 C-2.13162821e-14,18.9093634 -2.13162821e-14,21.2730338 1.18183521,25.409457 C2.36367042,29.5458802 7.68192886,33.0913859 15.3638577,29.5458802 C20.4851436,27.1822098 22.0609239,21.2730338 20.0911986,11.8183521 C16.1517479,5.90917605 11.6213796,1.96972535 6.50009365,0 C4.5303683,2.36367042 5.71220351,4.5303683 10.0455993,6.50009365 L13.5911049,11.8183521" id="Path-27"></path>
                <path d="M5.45595873,3.5 C4.45595873,4.83333333 4.78929206,6.33333333 6.45595873,8 C7.83725289,9.38129417 8.29900301,9.56202952 10.4559587,11" id="Path-29"></path>
            </g>
        </g>
    </g>
</svg>