<?xml version="1.0" encoding="UTF-8"?>
<svg width="68px" height="68px" viewBox="0 0 68 68" version="1.1" xmlns="http://www.w3.org/2000/svg" xmlns:xlink="http://www.w3.org/1999/xlink">
    <title>mood/relaxed/68x68</title>
    <g id="Page-1" stroke="none" stroke-width="1" fill="none" fill-rule="evenodd">
        <g id="mood/relaxed/68x68">
            <path d="M12.819426,-2.33158843e-15 L55.180574,5.17920154e-16 C59.6381677,-3.00926524e-16 61.2545989,0.464128056 62.8842285,1.33566352 C64.5138581,2.20719898 65.792801,3.48614185 66.6643365,5.11577148 C67.5358719,6.74540111 68,8.3618323 68,12.819426 L68,55.180574 C68,59.6381677 67.5358719,61.2545989 66.6643365,62.8842285 C65.792801,64.5138581 64.5138581,65.792801 62.8842285,66.6643365 C61.2545989,67.5358719 59.6381677,68 55.180574,68 L12.819426,68 C8.3618323,68 6.74540111,67.5358719 5.11577148,66.6643365 C3.48614185,65.792801 2.20719898,64.5138581 1.33566352,62.8842285 C0.464128056,61.2545989 1.25441118e-15,59.6381677 -2.15894838e-15,55.180574 L3.45280103e-16,12.819426 C-2.00617683e-16,8.3618323 0.464128056,6.74540111 1.33566352,5.11577148 C2.20719898,3.48614185 3.48614185,2.20719898 5.11577148,1.33566352 C6.74540111,0.464128056 8.3618323,1.35472002e-15 12.819426,-2.33158843e-15 Z" id="Rectangle" fill="#FFF2E7"></path>
            <path d="M34,60 C44.6775052,60 52,49.924725 52,39.1551724 C52,28.3856198 44.6775052,21 34,21 C23.3224948,21 16,28.3856198 16,39.1551724 C16,49.924725 23.3224948,60 34,60 Z" id="Oval" stroke="#FF7F0F"></path>
            <path d="M34,57 C42.897921,57 49,48.7331077 49,39.8965517 C49,31.0599957 41,24 33.5,24 C26,24 19,31.0599957 19,39.8965517 C19,48.7331077 25.102079,57 34,57 Z" id="Oval" fill="#FFD3AD"></path>
            <path d="M29,46 C30.6666667,47.3333333 32.3333333,48 34,48 C35.6666667,48 37.3333333,47.3333333 39,46" id="Line" stroke="#FFF2E7" stroke-width="6" stroke-linecap="round"></path>
            <path d="M29,46 C30.6666667,47.3333333 32.3333333,48 34,48 C35.6666667,48 37.3333333,47.3333333 39,46" id="Line" stroke="#FF7F0F" stroke-linecap="round"></path>
            <path d="M24,35.75 C25,36.75 26,37.25 27,37.25 C28,37.25 29,36.75 30,35.75" id="Line-Copy" stroke="#FFF2E7" stroke-width="6" stroke-linecap="round" transform="translate(27.000000, 36.500000) scale(1, -1) translate(-27.000000, -36.500000) "></path>
            <path d="M38,35.75 C39,36.75 40,37.25 41,37.25 C42,37.25 43,36.75 44,35.75" id="Line-Copy-2" stroke="#FFF2E7" stroke-width="6" stroke-linecap="round" transform="translate(41.000000, 36.500000) scale(1, -1) translate(-41.000000, -36.500000) "></path>
            <path d="M24,35.75 C25,36.75 26,37.25 27,37.25 C28,37.25 29,36.75 30,35.75" id="Line-Copy" stroke="#FF7F0F" stroke-linecap="round" transform="translate(27.000000, 36.500000) scale(1, -1) translate(-27.000000, -36.500000) "></path>
            <path d="M38,35.75 C39,36.75 40,37.25 41,37.25 C42,37.25 43,36.75 44,35.75" id="Line-Copy-2" stroke="#FF7F0F" stroke-linecap="round" transform="translate(41.000000, 36.500000) scale(1, -1) translate(-41.000000, -36.500000) "></path>
            <path d="M40,13 C43.4682413,13.8994852 46.5,15 50,19.5 C53.5,24 55.3406279,31.2445589 52.1686682,36 C48.4680484,25.9607354 40.0784924,20.9607354 27,21 C31.4553176,14.5744572 35.7886509,11.9077905 40,13 Z" id="Path-4" stroke="#FF7F0F" fill="#FFF2E7" stroke-linejoin="round"></path>
            <path d="M15.5,35 C16.3074578,37.4223734 20,19 42.0820781,19.9052894 C45.990235,9.70693349 44.4269723,4.99972396 32.7025015,4.99972396 C28.0127132,4.99972396 22.5,6 20,11 C17.3099867,16.3800267 18.9387159,16.9949897 24.8861876,12.8448891 C15.2953959,17.614963 12.1666667,25 15.5,35 Z" id="Path-3" stroke="#FF7F0F" fill="#FFF2E7" stroke-linejoin="round"></path>
        </g>
    </g>
</svg>