<?xml version="1.0" encoding="UTF-8"?>
<svg width="68px" height="68px" viewBox="0 0 68 68" version="1.1" xmlns="http://www.w3.org/2000/svg" xmlns:xlink="http://www.w3.org/1999/xlink">
    <title>mood/playful/68x68</title>
    <g id="Page-1" stroke="none" stroke-width="1" fill="none" fill-rule="evenodd">
        <g id="mood/playful/68x68">
            <path d="M12.819426,-2.33158843e-15 L55.180574,5.17920154e-16 C59.6381677,-3.00926524e-16 61.2545989,0.464128056 62.8842285,1.33566352 C64.5138581,2.20719898 65.792801,3.48614185 66.6643365,5.11577148 C67.5358719,6.74540111 68,8.3618323 68,12.819426 L68,55.180574 C68,59.6381677 67.5358719,61.2545989 66.6643365,62.8842285 C65.792801,64.5138581 64.5138581,65.792801 62.8842285,66.6643365 C61.2545989,67.5358719 59.6381677,68 55.180574,68 L12.819426,68 C8.3618323,68 6.74540111,67.5358719 5.11577148,66.6643365 C3.48614185,65.792801 2.20719898,64.5138581 1.33566352,62.8842285 C0.464128056,61.2545989 1.25441118e-15,59.6381677 -2.15894838e-15,55.180574 L3.45280103e-16,12.819426 C-2.00617683e-16,8.3618323 0.464128056,6.74540111 1.33566352,5.11577148 C2.20719898,3.48614185 3.48614185,2.20719898 5.11577148,1.33566352 C6.74540111,0.464128056 8.3618323,1.35472002e-15 12.819426,-2.33158843e-15 Z" id="Rectangle" fill="#FFF2E7"></path>
            <path d="M20.8857143,28 C24.2941002,28 34,18.7238949 34,14.8910088 C34,12.0198767 30.6175335,10.3476839 26.2857143,10.264306 C24.8346683,10.2363766 23.2056878,9.68383611 21.6571429,10.264306 C15.4857143,12.5776574 7,26.4577657 7,26.4577657 C7,26.4577657 17.4773284,28 20.8857143,28 Z" id="Oval" stroke="#FF7F0F"></path>
            <path d="M34,53 C44.6775052,53 52,43.1830654 52,32.6896552 C52,22.1962449 44.6775052,15 34,15 C23.3224948,15 16,22.1962449 16,32.6896552 C16,43.1830654 23.3224948,53 34,53 Z" id="Oval" stroke="#FF7F0F" fill="#FFF2E7"></path>
            <path d="M43.2935125,30.1701755 C41.686807,29.7183182 38.5797253,26.6497717 38.0569565,28.6974876 C37.5341878,30.7452035 40.7402504,33.4260358 42.3469559,33.8778931 C43.9536615,34.3297503 47.4254602,33.5269473 47.948229,31.4792314 C48.4709977,29.4315155 44.9002181,30.6220328 43.2935125,30.1701755 Z" id="Oval-Copy-2" fill="#FFF2E7"></path>
            <circle id="Oval" fill="#FF7F0F" transform="translate(27.000000, 30.000000) scale(-1, 1) translate(-27.000000, -30.000000) " cx="27" cy="30" r="4"></circle>
            <path d="M37.5,28.5 C38.3333333,29.8333333 39.5,30.5 41,30.5 C42.5,30.5 43.6666667,29.8333333 44.5,28.5" id="Line-Copy-2" stroke="#FF7F0F" stroke-linecap="round" transform="translate(41.000000, 29.500000) scale(1, -1) translate(-41.000000, -29.500000) "></path>
            <line x1="28.75" y1="39.5" x2="39.25" y2="39.5" id="Line-2" stroke="#FF7F0F" stroke-linecap="square"></line>
            <path d="M34,46 C35.2426407,46 38,43.5 38,40 C38,40 35.9926407,39 34.75,39 C33.5073593,39 30,40 30,40 C30,43.5 32.7573593,46 34,46 Z" id="Oval" fill="#FF7F0F"></path>
            <path d="M31,15 C32.5652174,20.0909091 38.5652174,22.4049587 49,21.9421488" id="Path-5" stroke="#FF7F0F"></path>
            <path d="M26.4285714,34.52 C28.5982615,34.52 33.5,36.618682 33.5,34.52 C33.5,32.421318 28.5982615,30.72 26.4285714,30.72 C24.2588813,30.72 20.1428571,32.421318 20.1428571,34.52 C20.1428571,36.618682 24.2588813,34.52 26.4285714,34.52 Z" id="Oval-Copy-2" fill="#FFF2E7"></path>
        </g>
    </g>
</svg>