<?xml version="1.0" encoding="UTF-8"?>
<svg width="46px" height="44px" viewBox="0 0 46 44" version="1.1" xmlns="http://www.w3.org/2000/svg" xmlns:xlink="http://www.w3.org/1999/xlink">
    <title>mood/depressed/44x44</title>
    <g id="Page-1" stroke="none" stroke-width="1" fill="none" fill-rule="evenodd">
        <g id="mood/depressed/44x44/dark" transform="translate(1.000000, 0.000000)">
            <g id="mood/depressed/44x44" transform="translate(-0.800000, 0.000000)">
                <path d="M13.619426,-5.17920154e-16 L31.980574,5.17920154e-16 C36.4381677,-3.00926524e-16 38.0545989,0.464128056 39.6842285,1.33566352 C41.3138581,2.20719898 42.592801,3.48614185 43.4643365,5.11577148 C44.3358719,6.74540111 44.8,8.3618323 44.8,12.819426 L44.8,31.180574 C44.8,35.6381677 44.3358719,37.2545989 43.4643365,38.8842285 C42.592801,40.5138581 41.3138581,41.792801 39.6842285,42.6643365 C38.0545989,43.5358719 36.4381677,44 31.980574,44 L13.619426,44 C9.1618323,44 7.54540111,43.5358719 5.91577148,42.6643365 C4.28614185,41.792801 3.00719898,40.5138581 2.13566352,38.8842285 C1.26412806,37.2545989 0.8,35.6381677 0.8,31.180574 L0.8,12.819426 C0.8,8.3618323 1.26412806,6.74540111 2.13566352,5.11577148 C3.00719898,3.48614185 4.28614185,2.20719898 5.91577148,1.33566352 C7.54540111,0.464128056 9.1618323,3.00926524e-16 13.619426,-5.17920154e-16 Z" id="Rectangle" fill="#FDD5B4"></path>
                <path d="M22.8,38.5 C29.6217394,38.5 34.3,32.0414904 34.3,25.137931 C34.3,18.2343717 29.6217394,13.5 22.8,13.5 C15.9782606,13.5 11.3,18.2343717 11.3,25.137931 C11.3,32.0414904 15.9782606,38.5 22.8,38.5 Z" id="Oval" stroke="#FF7F0F" fill="#FDD5B4"></path>
                <path d="M20.3,33.5 C20.9666667,34.1666667 21.6333333,34.5 22.3,34.5 C23.455564,34.5 24.455564,34.5 25.3,34.5" id="Line" stroke="#FF7F0F" stroke-linecap="round" transform="translate(22.800000, 34.000000) scale(1, -1) translate(-22.800000, -34.000000) "></path>
                <g id="Group" transform="translate(23.748889, 24.805886)">
                    <circle id="Oval" fill="#FF7F0F" transform="translate(3.500000, 3.694114) scale(-1, 1) translate(-3.500000, -3.694114) " cx="3.5" cy="3.69411428" r="2.5"></circle>
                    <path d="M5.68865352,5.25993979 C6.98814704,5.25993979 9.136739,5.03619031 9.136739,3.65547843 C9.136739,2.27476656 6.20093842,1.15547843 4.90144489,1.15547843 C3.60195136,1.15547843 1.136739,2.27476656 1.136739,3.65547843 C1.136739,5.03619031 4.38915999,5.25993979 5.68865352,5.25993979 Z" id="Oval-Copy-2" fill="#FDD5B4" transform="translate(5.136739, 3.207709) scale(-1, -1) rotate(-345.000000) translate(-5.136739, -3.207709) "></path>
                </g>
                <g id="Group" transform="translate(16.748889, 28.305886) scale(-1, 1) translate(-16.748889, -28.305886) translate(11.748889, 24.805886)">
                    <circle id="Oval" fill="#FF7F0F" transform="translate(3.500000, 3.694114) scale(-1, 1) translate(-3.500000, -3.694114) " cx="3.5" cy="3.69411428" r="2.5"></circle>
                    <path d="M5.68865352,5.25993979 C6.98814704,5.25993979 9.136739,5.03619031 9.136739,3.65547843 C9.136739,2.27476656 6.20093842,1.15547843 4.90144489,1.15547843 C3.60195136,1.15547843 1.136739,2.27476656 1.136739,3.65547843 C1.136739,5.03619031 4.38915999,5.25993979 5.68865352,5.25993979 Z" id="Oval-Copy-2" fill="#FDD5B4" transform="translate(5.136739, 3.207709) scale(-1, -1) rotate(-345.000000) translate(-5.136739, -3.207709) "></path>
                </g>
                <path d="M11.6551724,25.5 C11.6551724,25.5 21.2183908,25.5 40.3448276,25.5 C41.4482759,25.5 42,24.8181818 42,23.4545455 C42,21.4090909 39.2413793,22.0909091 37.0344828,22.0909091 C36.4827586,22.0909091 37.5862069,19.3636364 36.4827586,18 C35.7471264,17.0909091 34.6436782,16.8636364 33.1724138,17.3181818 C32.0689655,12.7727273 30.045977,10.5 27.1034483,10.5 C26,10.5 23.2413793,11.1818182 22.137931,15.2727273 C22.137931,15.2727273 18.8275862,13.9090909 17.1724138,15.9545455 C15.5172414,18 16.0689655,20.0454545 16.0689655,22.0909091 C12.1212778,22.0909091 10,21.4090909 10,23.4545455 C10,25.5 11.6551724,25.5 11.6551724,25.5 Z" id="Path-20-Copy-4" stroke="#FF7F0F" fill="#FDD5B4" stroke-linejoin="round"></path>
                <path d="M3.55172414,19.5 C3.55172414,19.5 12.5172414,19.5 30.4482759,19.5 C31.4827586,19.5 32,18.9545455 32,17.8636364 C32,16.2272727 29.4137931,16.7727273 27.3448276,16.7727273 C26.8275862,16.7727273 27.862069,14.5909091 26.8275862,13.5 C26.137931,12.7727273 25.1034483,12.5909091 23.7241379,12.9545455 C22.6896552,9.31818182 20.7931034,7.5 18.0344828,7.5 C17,7.5 14.4137931,8.04545455 13.3793103,11.3181818 C13.3793103,11.3181818 10.2758621,10.2272727 8.72413793,11.8636364 C7.17241379,13.5 7.68965517,15.1363636 7.68965517,16.7727273 C3.98869797,16.7727273 2,16.2272727 2,17.8636364 C2,19.5 3.55172414,19.5 3.55172414,19.5 Z" id="Path-20-Copy-5" stroke="#FF7F0F" fill="#FDD5B4" stroke-linejoin="round"></path>
            </g>
        </g>
    </g>
</svg>