<?xml version="1.0" encoding="UTF-8"?>
<svg width="44px" height="44px" viewBox="0 0 44 44" version="1.1" xmlns="http://www.w3.org/2000/svg" xmlns:xlink="http://www.w3.org/1999/xlink">
    <title>bleeding/light/44x44</title>
    <g id="Page-1" stroke="none" stroke-width="1" fill="none" fill-rule="evenodd">
        <g id="bleeding/light/44x44">
            <path d="M12.819426,-5.17920154e-16 L31.180574,5.17920154e-16 C35.6381677,-3.00926524e-16 37.2545989,0.464128056 38.8842285,1.33566352 C40.5138581,2.20719898 41.792801,3.48614185 42.6643365,5.11577148 C43.5358719,6.74540111 44,8.3618323 44,12.819426 L44,31.180574 C44,35.6381677 43.5358719,37.2545989 42.6643365,38.8842285 C41.792801,40.5138581 40.5138581,41.792801 38.8842285,42.6643365 C37.2545989,43.5358719 35.6381677,44 31.180574,44 L12.819426,44 C8.3618323,44 6.74540111,43.5358719 5.11577148,42.6643365 C3.48614185,41.792801 2.20719898,40.5138581 1.33566352,38.8842285 C0.464128056,37.2545989 2.00617683e-16,35.6381677 -3.45280103e-16,31.180574 L3.45280103e-16,12.819426 C-2.00617683e-16,8.3618323 0.464128056,6.74540111 1.33566352,5.11577148 C2.20719898,3.48614185 3.48614185,2.20719898 5.11577148,1.33566352 C6.74540111,0.464128056 8.3618323,3.00926524e-16 12.819426,-5.17920154e-16 Z" id="Rectangle" fill="#FFF2E7"></path>
            <path d="M15.5,26 C15.5,30 17,33.5 22,33.5 C27,33.5 28.5,30 28.5,26 C28.5,23.3333333 26.5,18.1666667 22.5,10.5 C21.8333333,10.5 21.5,10.5 21.5,10.5 C21.5,10.5 15.5,22 15.5,26 Z" id="Path" stroke="#FF7F0F"></path>
            <path d="M15.5,28 C15.5,28 17,33.5 22,33.5 C27,33.5 28.5,28 28.5,28 C28.5,28 26.5,28.5 22.5,29.5 C21.8333333,29.5 21.5,29.5 21.5,29.5 C21.5,29.5 15.5,28 15.5,28 Z" id="Path" fill="#FF7F0F"></path>
        </g>
    </g>
</svg>